G04 #@! TF.FileFunction,Legend,Top*
%FSLAX46Y46*%
G04 Gerber Fmt 4.6, Leading zero omitted, Abs format (unit mm)*
G04 Created by KiCad (PCBNEW 4.0.1-3.201512221401+6198~38~ubuntu15.10.1-stable) date Fri 08 Apr 2016 11:07:14 AM EEST*
%MOMM*%
G01*
G04 APERTURE LIST*
%ADD10C,0.100000*%
%ADD11C,0.222250*%
%ADD12C,0.349250*%
%ADD13C,0.254000*%
%ADD14C,0.300000*%
%ADD15C,0.200000*%
%ADD16C,0.500000*%
%ADD17C,0.150000*%
%ADD18C,0.127000*%
%ADD19C,0.009000*%
%ADD20C,0.250000*%
%ADD21C,0.158750*%
%ADD22C,0.203200*%
%ADD23C,0.225000*%
G04 APERTURE END LIST*
D10*
D11*
X147462834Y-97002167D02*
X147166500Y-96578833D01*
X146954834Y-97002167D02*
X146954834Y-96113167D01*
X147293500Y-96113167D01*
X147378167Y-96155500D01*
X147420500Y-96197833D01*
X147462834Y-96282500D01*
X147462834Y-96409500D01*
X147420500Y-96494167D01*
X147378167Y-96536500D01*
X147293500Y-96578833D01*
X146954834Y-96578833D01*
X148182500Y-96959833D02*
X148097834Y-97002167D01*
X147928500Y-97002167D01*
X147843834Y-96959833D01*
X147801500Y-96875167D01*
X147801500Y-96536500D01*
X147843834Y-96451833D01*
X147928500Y-96409500D01*
X148097834Y-96409500D01*
X148182500Y-96451833D01*
X148224834Y-96536500D01*
X148224834Y-96621167D01*
X147801500Y-96705833D01*
X148521167Y-96409500D02*
X148732834Y-97002167D01*
X148944500Y-96409500D01*
X149283167Y-96917500D02*
X149325500Y-96959833D01*
X149283167Y-97002167D01*
X149240833Y-96959833D01*
X149283167Y-96917500D01*
X149283167Y-97002167D01*
X149664166Y-96748167D02*
X150087500Y-96748167D01*
X149579500Y-97002167D02*
X149875833Y-96113167D01*
X150172166Y-97002167D01*
D12*
X142011358Y-95631976D02*
X142011358Y-94700643D01*
X142011358Y-94234976D02*
X141944834Y-94301500D01*
X142011358Y-94368024D01*
X142077882Y-94301500D01*
X142011358Y-94234976D01*
X142011358Y-94368024D01*
X143474882Y-95498929D02*
X143408358Y-95565452D01*
X143208787Y-95631976D01*
X143075739Y-95631976D01*
X142876167Y-95565452D01*
X142743120Y-95432405D01*
X142676596Y-95299357D01*
X142610072Y-95033262D01*
X142610072Y-94833690D01*
X142676596Y-94567595D01*
X142743120Y-94434548D01*
X142876167Y-94301500D01*
X143075739Y-94234976D01*
X143208787Y-94234976D01*
X143408358Y-94301500D01*
X143474882Y-94368024D01*
X144073596Y-94900214D02*
X144539263Y-94900214D01*
X144738834Y-95631976D02*
X144073596Y-95631976D01*
X144073596Y-94234976D01*
X144738834Y-94234976D01*
X145936262Y-94700643D02*
X145936262Y-95631976D01*
X145603643Y-94168452D02*
X145271024Y-95166310D01*
X146135834Y-95166310D01*
X146934119Y-94234976D02*
X147067167Y-94234976D01*
X147200215Y-94301500D01*
X147266738Y-94368024D01*
X147333262Y-94501071D01*
X147399786Y-94767167D01*
X147399786Y-95099786D01*
X147333262Y-95365881D01*
X147266738Y-95498929D01*
X147200215Y-95565452D01*
X147067167Y-95631976D01*
X146934119Y-95631976D01*
X146801072Y-95565452D01*
X146734548Y-95498929D01*
X146668024Y-95365881D01*
X146601500Y-95099786D01*
X146601500Y-94767167D01*
X146668024Y-94501071D01*
X146734548Y-94368024D01*
X146801072Y-94301500D01*
X146934119Y-94234976D01*
X147998500Y-95099786D02*
X149062881Y-95099786D01*
X149728119Y-95631976D02*
X149728119Y-94234976D01*
X150060738Y-94234976D01*
X150260310Y-94301500D01*
X150393357Y-94434548D01*
X150459881Y-94567595D01*
X150526405Y-94833690D01*
X150526405Y-95033262D01*
X150459881Y-95299357D01*
X150393357Y-95432405D01*
X150260310Y-95565452D01*
X150060738Y-95631976D01*
X149728119Y-95631976D01*
X151125119Y-95631976D02*
X151125119Y-94234976D01*
X152056452Y-94234976D02*
X152322548Y-94234976D01*
X152455595Y-94301500D01*
X152588643Y-94434548D01*
X152655167Y-94700643D01*
X152655167Y-95166310D01*
X152588643Y-95432405D01*
X152455595Y-95565452D01*
X152322548Y-95631976D01*
X152056452Y-95631976D01*
X151923405Y-95565452D01*
X151790357Y-95432405D01*
X151723833Y-95166310D01*
X151723833Y-94700643D01*
X151790357Y-94434548D01*
X151923405Y-94301500D01*
X152056452Y-94234976D01*
D13*
X139382500Y-90424000D02*
X139700000Y-90424000D01*
X139700000Y-90360500D02*
X139382500Y-90360500D01*
X139700000Y-90551000D02*
X139700000Y-90360500D01*
X154940000Y-99377500D02*
X155194000Y-99377500D01*
X154940000Y-99504500D02*
X155257500Y-99504500D01*
X154940000Y-99314000D02*
X154940000Y-99504500D01*
D14*
X145467144Y-128718571D02*
X144752858Y-128718571D01*
X144681429Y-129432857D01*
X144752858Y-129361429D01*
X144895715Y-129290000D01*
X145252858Y-129290000D01*
X145395715Y-129361429D01*
X145467144Y-129432857D01*
X145538572Y-129575714D01*
X145538572Y-129932857D01*
X145467144Y-130075714D01*
X145395715Y-130147143D01*
X145252858Y-130218571D01*
X144895715Y-130218571D01*
X144752858Y-130147143D01*
X144681429Y-130075714D01*
X146467143Y-128718571D02*
X146610000Y-128718571D01*
X146752857Y-128790000D01*
X146824286Y-128861429D01*
X146895715Y-129004286D01*
X146967143Y-129290000D01*
X146967143Y-129647143D01*
X146895715Y-129932857D01*
X146824286Y-130075714D01*
X146752857Y-130147143D01*
X146610000Y-130218571D01*
X146467143Y-130218571D01*
X146324286Y-130147143D01*
X146252857Y-130075714D01*
X146181429Y-129932857D01*
X146110000Y-129647143D01*
X146110000Y-129290000D01*
X146181429Y-129004286D01*
X146252857Y-128861429D01*
X146324286Y-128790000D01*
X146467143Y-128718571D01*
X147467143Y-130218571D02*
X148252857Y-129218571D01*
X147467143Y-129218571D02*
X148252857Y-130218571D01*
X149538572Y-128718571D02*
X148824286Y-128718571D01*
X148752857Y-129432857D01*
X148824286Y-129361429D01*
X148967143Y-129290000D01*
X149324286Y-129290000D01*
X149467143Y-129361429D01*
X149538572Y-129432857D01*
X149610000Y-129575714D01*
X149610000Y-129932857D01*
X149538572Y-130075714D01*
X149467143Y-130147143D01*
X149324286Y-130218571D01*
X148967143Y-130218571D01*
X148824286Y-130147143D01*
X148752857Y-130075714D01*
X150538571Y-128718571D02*
X150681428Y-128718571D01*
X150824285Y-128790000D01*
X150895714Y-128861429D01*
X150967143Y-129004286D01*
X151038571Y-129290000D01*
X151038571Y-129647143D01*
X150967143Y-129932857D01*
X150895714Y-130075714D01*
X150824285Y-130147143D01*
X150681428Y-130218571D01*
X150538571Y-130218571D01*
X150395714Y-130147143D01*
X150324285Y-130075714D01*
X150252857Y-129932857D01*
X150181428Y-129647143D01*
X150181428Y-129290000D01*
X150252857Y-129004286D01*
X150324285Y-128861429D01*
X150395714Y-128790000D01*
X150538571Y-128718571D01*
X151681428Y-130218571D02*
X151681428Y-129218571D01*
X151681428Y-129361429D02*
X151752856Y-129290000D01*
X151895714Y-129218571D01*
X152109999Y-129218571D01*
X152252856Y-129290000D01*
X152324285Y-129432857D01*
X152324285Y-130218571D01*
X152324285Y-129432857D02*
X152395714Y-129290000D01*
X152538571Y-129218571D01*
X152752856Y-129218571D01*
X152895714Y-129290000D01*
X152967142Y-129432857D01*
X152967142Y-130218571D01*
X153681428Y-130218571D02*
X153681428Y-129218571D01*
X153681428Y-129361429D02*
X153752856Y-129290000D01*
X153895714Y-129218571D01*
X154109999Y-129218571D01*
X154252856Y-129290000D01*
X154324285Y-129432857D01*
X154324285Y-130218571D01*
X154324285Y-129432857D02*
X154395714Y-129290000D01*
X154538571Y-129218571D01*
X154752856Y-129218571D01*
X154895714Y-129290000D01*
X154967142Y-129432857D01*
X154967142Y-130218571D01*
X142467143Y-131401429D02*
X142538572Y-131330000D01*
X142681429Y-131258571D01*
X143038572Y-131258571D01*
X143181429Y-131330000D01*
X143252858Y-131401429D01*
X143324286Y-131544286D01*
X143324286Y-131687143D01*
X143252858Y-131901429D01*
X142395715Y-132758571D01*
X143324286Y-132758571D01*
X145824286Y-132758571D02*
X145110000Y-132758571D01*
X145110000Y-131258571D01*
X146967143Y-132758571D02*
X146967143Y-131972857D01*
X146895714Y-131830000D01*
X146752857Y-131758571D01*
X146467143Y-131758571D01*
X146324286Y-131830000D01*
X146967143Y-132687143D02*
X146824286Y-132758571D01*
X146467143Y-132758571D01*
X146324286Y-132687143D01*
X146252857Y-132544286D01*
X146252857Y-132401429D01*
X146324286Y-132258571D01*
X146467143Y-132187143D01*
X146824286Y-132187143D01*
X146967143Y-132115714D01*
X147538572Y-131758571D02*
X147895715Y-132758571D01*
X148252857Y-131758571D02*
X147895715Y-132758571D01*
X147752857Y-133115714D01*
X147681429Y-133187143D01*
X147538572Y-133258571D01*
X149395714Y-132687143D02*
X149252857Y-132758571D01*
X148967143Y-132758571D01*
X148824286Y-132687143D01*
X148752857Y-132544286D01*
X148752857Y-131972857D01*
X148824286Y-131830000D01*
X148967143Y-131758571D01*
X149252857Y-131758571D01*
X149395714Y-131830000D01*
X149467143Y-131972857D01*
X149467143Y-132115714D01*
X148752857Y-132258571D01*
X150110000Y-132758571D02*
X150110000Y-131758571D01*
X150110000Y-132044286D02*
X150181428Y-131901429D01*
X150252857Y-131830000D01*
X150395714Y-131758571D01*
X150538571Y-131758571D01*
X150967142Y-132687143D02*
X151109999Y-132758571D01*
X151395714Y-132758571D01*
X151538571Y-132687143D01*
X151609999Y-132544286D01*
X151609999Y-132472857D01*
X151538571Y-132330000D01*
X151395714Y-132258571D01*
X151181428Y-132258571D01*
X151038571Y-132187143D01*
X150967142Y-132044286D01*
X150967142Y-131972857D01*
X151038571Y-131830000D01*
X151181428Y-131758571D01*
X151395714Y-131758571D01*
X151538571Y-131830000D01*
X153395714Y-132758571D02*
X153395714Y-131258571D01*
X153967142Y-131258571D01*
X154110000Y-131330000D01*
X154181428Y-131401429D01*
X154252857Y-131544286D01*
X154252857Y-131758571D01*
X154181428Y-131901429D01*
X154110000Y-131972857D01*
X153967142Y-132044286D01*
X153395714Y-132044286D01*
X155752857Y-132615714D02*
X155681428Y-132687143D01*
X155467142Y-132758571D01*
X155324285Y-132758571D01*
X155110000Y-132687143D01*
X154967142Y-132544286D01*
X154895714Y-132401429D01*
X154824285Y-132115714D01*
X154824285Y-131901429D01*
X154895714Y-131615714D01*
X154967142Y-131472857D01*
X155110000Y-131330000D01*
X155324285Y-131258571D01*
X155467142Y-131258571D01*
X155681428Y-131330000D01*
X155752857Y-131401429D01*
X156895714Y-131972857D02*
X157110000Y-132044286D01*
X157181428Y-132115714D01*
X157252857Y-132258571D01*
X157252857Y-132472857D01*
X157181428Y-132615714D01*
X157110000Y-132687143D01*
X156967142Y-132758571D01*
X156395714Y-132758571D01*
X156395714Y-131258571D01*
X156895714Y-131258571D01*
X157038571Y-131330000D01*
X157110000Y-131401429D01*
X157181428Y-131544286D01*
X157181428Y-131687143D01*
X157110000Y-131830000D01*
X157038571Y-131901429D01*
X156895714Y-131972857D01*
X156395714Y-131972857D01*
D13*
X125000000Y-120000000D02*
X125000000Y-70000000D01*
X175000000Y-120000000D02*
X125000000Y-120000000D01*
X175000000Y-70000000D02*
X175000000Y-120000000D01*
X125000000Y-70000000D02*
X175000000Y-70000000D01*
X165100000Y-110871000D02*
X165100000Y-111125000D01*
X163830000Y-110871000D02*
X163830000Y-111125000D01*
X150495000Y-110871000D02*
X150495000Y-111125000D01*
X149225000Y-110871000D02*
X149225000Y-111125000D01*
X135890000Y-110871000D02*
X135890000Y-111125000D01*
X137922000Y-119761000D02*
X137922000Y-120015000D01*
X160782000Y-118745000D02*
X160782000Y-119405400D01*
X159385000Y-118757700D02*
X159385000Y-119405400D01*
X166370000Y-111125000D02*
X166370000Y-120015000D01*
X133350000Y-120015000D02*
X137922000Y-120015000D01*
X151892000Y-118745000D02*
X165100000Y-118745000D01*
X165100000Y-112395000D02*
X165100000Y-118745000D01*
X134620000Y-112395000D02*
X134620000Y-118745000D01*
X133350000Y-111125000D02*
X133350000Y-120015000D01*
X133350000Y-111125000D02*
X134620000Y-111125000D01*
X134620000Y-112395000D02*
X165100000Y-112395000D01*
X139192000Y-120015000D02*
X158369000Y-120015000D01*
X147828000Y-118745000D02*
X134620000Y-118745000D01*
X166370000Y-111125000D02*
X165100000Y-111125000D01*
X165100000Y-110871000D02*
X163830000Y-110871000D01*
X163830000Y-111125000D02*
X150495000Y-111125000D01*
X150495000Y-110871000D02*
X149225000Y-110871000D01*
X149225000Y-111125000D02*
X135890000Y-111125000D01*
X135890000Y-110871000D02*
X134620000Y-110871000D01*
X134620000Y-110871000D02*
X134620000Y-111125000D01*
X161671000Y-120015000D02*
X166370000Y-120015000D01*
X151892000Y-117983000D02*
X151892000Y-120015000D01*
X158369000Y-120015000D02*
X159004000Y-119507000D01*
X159004000Y-119507000D02*
X161290000Y-119507000D01*
X161290000Y-119507000D02*
X161671000Y-120015000D01*
X147828000Y-120015000D02*
X147828000Y-117983000D01*
X147828000Y-117983000D02*
X151892000Y-117983000D01*
X137922000Y-119761000D02*
X139192000Y-119761000D01*
X139192000Y-119761000D02*
X139192000Y-120015000D01*
D15*
X154920000Y-99270000D02*
X155320000Y-99270000D01*
X155320000Y-99270000D02*
X155320000Y-106470000D01*
X155320000Y-106470000D02*
X154920000Y-106470000D01*
X139720000Y-99270000D02*
X139320000Y-99270000D01*
X139320000Y-99270000D02*
X139320000Y-105970000D01*
X139320000Y-105970000D02*
X139720000Y-106370000D01*
D13*
X139071600Y-107056800D02*
G75*
G03X139071600Y-107056800I-500000J0D01*
G01*
X141120000Y-105370000D02*
G75*
G03X141120000Y-105370000I-500000J0D01*
G01*
X134937500Y-88074500D02*
X135953500Y-88074500D01*
X134937500Y-86550500D02*
X135953500Y-86550500D01*
X144780000Y-93853000D02*
X145034000Y-93853000D01*
X144780000Y-93853000D02*
X144526000Y-93853000D01*
X144780000Y-92964000D02*
X144526000Y-92964000D01*
X144780000Y-92964000D02*
X145034000Y-92964000D01*
X151765000Y-93853000D02*
X152019000Y-93853000D01*
X151765000Y-93853000D02*
X151511000Y-93853000D01*
X151765000Y-92964000D02*
X151511000Y-92964000D01*
X151765000Y-92964000D02*
X152019000Y-92964000D01*
X144780000Y-96901000D02*
X145034000Y-96901000D01*
X144780000Y-96901000D02*
X144526000Y-96901000D01*
X144780000Y-96012000D02*
X144526000Y-96012000D01*
X144780000Y-96012000D02*
X145034000Y-96012000D01*
X157035500Y-95885000D02*
X157035500Y-96139000D01*
X157035500Y-95885000D02*
X157035500Y-95631000D01*
X157924500Y-95885000D02*
X157924500Y-95631000D01*
X157924500Y-95885000D02*
X157924500Y-96139000D01*
X157035500Y-93345000D02*
X157035500Y-93599000D01*
X157035500Y-93345000D02*
X157035500Y-93091000D01*
X157924500Y-93345000D02*
X157924500Y-93091000D01*
X157924500Y-93345000D02*
X157924500Y-93599000D01*
X157035500Y-98425000D02*
X157035500Y-98679000D01*
X157035500Y-98425000D02*
X157035500Y-98171000D01*
X157924500Y-98425000D02*
X157924500Y-98171000D01*
X157924500Y-98425000D02*
X157924500Y-98679000D01*
X157035500Y-100965000D02*
X157035500Y-101219000D01*
X157035500Y-100965000D02*
X157035500Y-100711000D01*
X157924500Y-100965000D02*
X157924500Y-100711000D01*
X157924500Y-100965000D02*
X157924500Y-101219000D01*
X137160000Y-78549500D02*
X136906000Y-78549500D01*
X137160000Y-78549500D02*
X137414000Y-78549500D01*
X137160000Y-79438500D02*
X137414000Y-79438500D01*
X137160000Y-79438500D02*
X136906000Y-79438500D01*
X137160000Y-79438500D02*
X136906000Y-79438500D01*
X137160000Y-79438500D02*
X137414000Y-79438500D01*
X137160000Y-80327500D02*
X137414000Y-80327500D01*
X137160000Y-80327500D02*
X136906000Y-80327500D01*
X138938000Y-79438500D02*
X138684000Y-79438500D01*
X138938000Y-79438500D02*
X139192000Y-79438500D01*
X138938000Y-80327500D02*
X139192000Y-80327500D01*
X138938000Y-80327500D02*
X138684000Y-80327500D01*
X135255000Y-105473500D02*
X135001000Y-105473500D01*
X135255000Y-105473500D02*
X135509000Y-105473500D01*
X135255000Y-106362500D02*
X135509000Y-106362500D01*
X135255000Y-106362500D02*
X135001000Y-106362500D01*
X160655000Y-81089500D02*
X160909000Y-81089500D01*
X160655000Y-81089500D02*
X160401000Y-81089500D01*
X160655000Y-80200500D02*
X160401000Y-80200500D01*
X160655000Y-80200500D02*
X160909000Y-80200500D01*
X160655000Y-110299500D02*
X160909000Y-110299500D01*
X160655000Y-110299500D02*
X160401000Y-110299500D01*
X160655000Y-109410500D02*
X160401000Y-109410500D01*
X160655000Y-109410500D02*
X160909000Y-109410500D01*
X135255000Y-84137500D02*
X135001000Y-84137500D01*
X135255000Y-84137500D02*
X135509000Y-84137500D01*
X135255000Y-85026500D02*
X135509000Y-85026500D01*
X135255000Y-85026500D02*
X135001000Y-85026500D01*
X135382000Y-88138000D02*
X135128000Y-88138000D01*
X135382000Y-88138000D02*
X135636000Y-88138000D01*
X135382000Y-89027000D02*
X135636000Y-89027000D01*
X135382000Y-89027000D02*
X135128000Y-89027000D01*
X135128000Y-95186500D02*
X136144000Y-95186500D01*
X135128000Y-93662500D02*
X136144000Y-93662500D01*
X134493000Y-78613000D02*
X133477000Y-78613000D01*
X134493000Y-80137000D02*
X133477000Y-80137000D01*
X137223500Y-91186000D02*
X137223500Y-90932000D01*
X137223500Y-91186000D02*
X137223500Y-91440000D01*
X136334500Y-91186000D02*
X136334500Y-91440000D01*
X136334500Y-91186000D02*
X136334500Y-90932000D01*
X138938000Y-79438500D02*
X139192000Y-79438500D01*
X138938000Y-79438500D02*
X138684000Y-79438500D01*
X138938000Y-78549500D02*
X138684000Y-78549500D01*
X138938000Y-78549500D02*
X139192000Y-78549500D01*
X143319500Y-110109000D02*
X143319500Y-110363000D01*
X143319500Y-110109000D02*
X143319500Y-109855000D01*
X144208500Y-110109000D02*
X144208500Y-109855000D01*
X144208500Y-110109000D02*
X144208500Y-110363000D01*
D16*
X129438400Y-105143300D02*
X129641600Y-105143300D01*
X129438400Y-107670600D02*
X129641600Y-107670600D01*
X129438400Y-110236000D02*
X129641600Y-110236000D01*
X129438400Y-112776000D02*
X129641600Y-112776000D01*
X129438400Y-115316000D02*
X129641600Y-115316000D01*
X126453900Y-74663300D02*
X126949200Y-74663300D01*
X126453900Y-92430600D02*
X126949200Y-92430600D01*
X126453900Y-94996000D02*
X126949200Y-94996000D01*
X126453900Y-97536000D02*
X126949200Y-97536000D01*
X126479300Y-115316000D02*
X126974600Y-115316000D01*
D13*
X124373640Y-117993160D02*
X124368560Y-115194080D01*
X124368560Y-115194080D02*
X120362980Y-115189000D01*
X120362980Y-115189000D02*
X120365520Y-117993160D01*
X120365520Y-117993160D02*
X124371100Y-117993160D01*
D17*
X121094500Y-74914760D02*
X120830340Y-75237340D01*
X120777000Y-74201020D02*
X120972580Y-74307700D01*
X122039380Y-74597260D02*
X122336560Y-74658220D01*
X120683020Y-75633580D02*
X122229880Y-74658220D01*
X122229880Y-74658220D02*
X120683020Y-73842880D01*
X120683020Y-73842880D02*
X120675400Y-75504040D01*
X120675400Y-75504040D02*
X122016520Y-74673460D01*
X122016520Y-74673460D02*
X120759220Y-74002900D01*
X120759220Y-74002900D02*
X120774460Y-75374500D01*
X120774460Y-75374500D02*
X121803160Y-74673460D01*
X121803160Y-74673460D02*
X120827800Y-74132440D01*
X120827800Y-74132440D02*
X120881140Y-75161140D01*
X120881140Y-75161140D02*
X121627900Y-74635360D01*
X121627900Y-74635360D02*
X120888760Y-74345800D01*
X120888760Y-74345800D02*
X120972580Y-74932540D01*
X120972580Y-74932540D02*
X121414540Y-74642980D01*
X121414540Y-74642980D02*
X120964960Y-74498200D01*
X120964960Y-74498200D02*
X121010680Y-74780140D01*
X121010680Y-74780140D02*
X121117360Y-74604880D01*
X121117360Y-74604880D02*
X121185940Y-74711560D01*
X121185940Y-74711560D02*
X121193560Y-74703940D01*
X120604280Y-75613260D02*
X120599200Y-75806300D01*
X120599200Y-75648820D02*
X120599200Y-73652380D01*
X120599200Y-73652380D02*
X122488960Y-74658220D01*
X122488960Y-74658220D02*
X120675400Y-75785980D01*
X120675400Y-75785980D02*
X120599200Y-75831700D01*
D13*
X124540000Y-92996000D02*
X118540000Y-92996000D01*
X124540000Y-96996000D02*
X118540000Y-96996000D01*
X124540000Y-92996000D02*
X124540000Y-96996000D01*
X126314200Y-70996000D02*
X118540000Y-70996000D01*
X126314200Y-118996000D02*
X118540000Y-118996000D01*
X118540000Y-118996000D02*
X118540000Y-70996000D01*
X126314200Y-118996000D02*
X126314200Y-70996000D01*
D16*
X126453900Y-100076000D02*
X126949200Y-100076000D01*
X126453900Y-102616000D02*
X126949200Y-102616000D01*
X126453900Y-105156000D02*
X126949200Y-105156000D01*
X126453900Y-107696000D02*
X126949200Y-107696000D01*
X126453900Y-110236000D02*
X126949200Y-110236000D01*
X126453900Y-112776000D02*
X126949200Y-112776000D01*
X129438400Y-102590600D02*
X129641600Y-102590600D01*
X129438400Y-100063300D02*
X129641600Y-100063300D01*
X129438400Y-97510600D02*
X129641600Y-97510600D01*
X129438400Y-94983300D02*
X129641600Y-94983300D01*
X129438400Y-92456000D02*
X129641600Y-92456000D01*
X129438400Y-84823300D02*
X129641600Y-84823300D01*
X129438400Y-77190600D02*
X129641600Y-77190600D01*
X129438400Y-74663300D02*
X129641600Y-74663300D01*
X129438400Y-79743300D02*
X129641600Y-79743300D01*
X129438400Y-82270600D02*
X129641600Y-82270600D01*
X129438400Y-89916000D02*
X129641600Y-89916000D01*
X129438400Y-87350600D02*
X129641600Y-87350600D01*
X126453900Y-89916000D02*
X126949200Y-89916000D01*
X126453900Y-87376000D02*
X126949200Y-87376000D01*
X126453900Y-84836000D02*
X126949200Y-84836000D01*
X126453900Y-82296000D02*
X126949200Y-82296000D01*
X126453900Y-79756000D02*
X126949200Y-79756000D01*
X126453900Y-77216000D02*
X126949200Y-77216000D01*
X170596600Y-84848700D02*
X170393400Y-84848700D01*
X170596600Y-82321400D02*
X170393400Y-82321400D01*
X170596600Y-79756000D02*
X170393400Y-79756000D01*
X170596600Y-77216000D02*
X170393400Y-77216000D01*
X170596600Y-74676000D02*
X170393400Y-74676000D01*
X173581100Y-115328700D02*
X173085800Y-115328700D01*
X173581100Y-97561400D02*
X173085800Y-97561400D01*
X173581100Y-94996000D02*
X173085800Y-94996000D01*
X173581100Y-92456000D02*
X173085800Y-92456000D01*
X173555700Y-74676000D02*
X173060400Y-74676000D01*
D13*
X173568400Y-118237000D02*
X172895300Y-118237000D01*
X172895300Y-118237000D02*
X172895300Y-119240300D01*
X172895300Y-119240300D02*
X173568400Y-119240300D01*
X173555700Y-70751700D02*
X172895300Y-70751700D01*
X172895300Y-70751700D02*
X172895300Y-71755000D01*
X172895300Y-71755000D02*
X173568400Y-71755000D01*
X175661360Y-117083840D02*
X175666440Y-119882920D01*
X175666440Y-119882920D02*
X179672020Y-119888000D01*
X179672020Y-119888000D02*
X179669480Y-117083840D01*
X179669480Y-117083840D02*
X175663900Y-117083840D01*
X181417000Y-113030000D02*
X181417000Y-115062000D01*
X181422080Y-115062000D02*
X182433000Y-115062000D01*
X182433000Y-113030000D02*
X181432240Y-113030000D01*
X177683200Y-114835940D02*
G75*
G03X177683200Y-113372900I-731520J731520D01*
G01*
X176022040Y-114866420D02*
X177596840Y-114866420D01*
X176001720Y-113317020D02*
X177596840Y-113322100D01*
X175087320Y-113311940D02*
X176027120Y-113317020D01*
X176027120Y-113317020D02*
X176027120Y-114876580D01*
X176027120Y-114876580D02*
X175097480Y-114876580D01*
X175100020Y-116230400D02*
X175100020Y-114874040D01*
X175087320Y-112420400D02*
X175087320Y-113311940D01*
D17*
X178910020Y-94884240D02*
X176674820Y-94856300D01*
D13*
X182433000Y-116248180D02*
X173720800Y-116248180D01*
D17*
X176865320Y-94871540D02*
X176090620Y-94858840D01*
X176090620Y-94858840D02*
X176093160Y-95250000D01*
X180845500Y-74437240D02*
X181109660Y-74114660D01*
X181163000Y-75150980D02*
X180967420Y-75044300D01*
X179900620Y-74754740D02*
X179603440Y-74693780D01*
X181256980Y-73718420D02*
X179710120Y-74693780D01*
X179710120Y-74693780D02*
X181256980Y-75509120D01*
X181256980Y-75509120D02*
X181264600Y-73847960D01*
X181264600Y-73847960D02*
X179923480Y-74678540D01*
X179923480Y-74678540D02*
X181180780Y-75349100D01*
X181180780Y-75349100D02*
X181165540Y-73977500D01*
X181165540Y-73977500D02*
X180136840Y-74678540D01*
X180136840Y-74678540D02*
X181112200Y-75219560D01*
X181112200Y-75219560D02*
X181058860Y-74190860D01*
X181058860Y-74190860D02*
X180312100Y-74716640D01*
X180312100Y-74716640D02*
X181051240Y-75006200D01*
X181051240Y-75006200D02*
X180967420Y-74419460D01*
X180967420Y-74419460D02*
X180525460Y-74709020D01*
X180525460Y-74709020D02*
X180975040Y-74853800D01*
X180975040Y-74853800D02*
X180929320Y-74571860D01*
X180929320Y-74571860D02*
X180822640Y-74747120D01*
X180822640Y-74747120D02*
X180754060Y-74640440D01*
X180754060Y-74640440D02*
X180746440Y-74648060D01*
X181335720Y-73738740D02*
X181340800Y-73545700D01*
X181340800Y-73703180D02*
X181340800Y-75699620D01*
X181340800Y-75699620D02*
X179451040Y-74693780D01*
X179451040Y-74693780D02*
X181264600Y-73566020D01*
X181264600Y-73566020D02*
X181340800Y-73520300D01*
X181523680Y-95283020D02*
X176143960Y-95237300D01*
X181508440Y-95161100D02*
X176143960Y-95145860D01*
X181508440Y-95039180D02*
X176113480Y-95023940D01*
X181508440Y-94917260D02*
X176128720Y-94932500D01*
X181554160Y-94780100D02*
X176083000Y-94780100D01*
X175996640Y-94640400D02*
X181554160Y-94640400D01*
X181554160Y-94640400D02*
X181554160Y-95351600D01*
X181554160Y-95351600D02*
X176006800Y-95351600D01*
D13*
X175989020Y-92854780D02*
X175989020Y-97155000D01*
X175087320Y-112420400D02*
X173753820Y-112420400D01*
X174965400Y-97155000D02*
X182433000Y-97155000D01*
X174965400Y-92837000D02*
X182433000Y-92837000D01*
X174962860Y-97155000D02*
X174962860Y-92837000D01*
X173720800Y-120396000D02*
X182433000Y-120396000D01*
X173720800Y-69596000D02*
X182433000Y-69596000D01*
X182433000Y-69596000D02*
X182433000Y-120396000D01*
X173720800Y-69596000D02*
X173720800Y-120396000D01*
D16*
X173581100Y-89916000D02*
X173085800Y-89916000D01*
X173581100Y-87376000D02*
X173085800Y-87376000D01*
X173581100Y-84836000D02*
X173085800Y-84836000D01*
X173581100Y-82296000D02*
X173085800Y-82296000D01*
X173581100Y-79756000D02*
X173085800Y-79756000D01*
X173581100Y-77216000D02*
X173085800Y-77216000D01*
X170596600Y-87401400D02*
X170393400Y-87401400D01*
X170596600Y-89928700D02*
X170393400Y-89928700D01*
X170596600Y-92481400D02*
X170393400Y-92481400D01*
X170596600Y-95008700D02*
X170393400Y-95008700D01*
X170596600Y-97536000D02*
X170393400Y-97536000D01*
X170596600Y-105168700D02*
X170393400Y-105168700D01*
X170596600Y-112801400D02*
X170393400Y-112801400D01*
X170596600Y-115328700D02*
X170393400Y-115328700D01*
X170596600Y-110248700D02*
X170393400Y-110248700D01*
X170596600Y-107721400D02*
X170393400Y-107721400D01*
X170596600Y-100076000D02*
X170393400Y-100076000D01*
X170596600Y-102641400D02*
X170393400Y-102641400D01*
X173581100Y-100076000D02*
X173085800Y-100076000D01*
X173581100Y-102616000D02*
X173085800Y-102616000D01*
X173581100Y-105156000D02*
X173085800Y-105156000D01*
X173581100Y-107696000D02*
X173085800Y-107696000D01*
X173581100Y-110236000D02*
X173085800Y-110236000D01*
X173581100Y-112776000D02*
X173085800Y-112776000D01*
D18*
X136067800Y-95694500D02*
X135229600Y-95694500D01*
X136067800Y-97472500D02*
X135229600Y-97472500D01*
D13*
X140398500Y-77406500D02*
X140398500Y-76390500D01*
X138874500Y-77406500D02*
X138874500Y-76390500D01*
X151765000Y-81089500D02*
X152019000Y-81089500D01*
X151765000Y-81089500D02*
X151511000Y-81089500D01*
X151765000Y-80200500D02*
X151511000Y-80200500D01*
X151765000Y-80200500D02*
X152019000Y-80200500D01*
X142875000Y-80200500D02*
X142621000Y-80200500D01*
X142875000Y-80200500D02*
X143129000Y-80200500D01*
X142875000Y-81089500D02*
X143129000Y-81089500D01*
X142875000Y-81089500D02*
X142621000Y-81089500D01*
X151511000Y-109664500D02*
X151765000Y-109664500D01*
X151511000Y-109664500D02*
X151257000Y-109664500D01*
X151511000Y-108775500D02*
X151257000Y-108775500D01*
X151511000Y-108775500D02*
X151765000Y-108775500D01*
X151765000Y-96901000D02*
X152019000Y-96901000D01*
X151765000Y-96901000D02*
X151511000Y-96901000D01*
X151765000Y-96012000D02*
X151511000Y-96012000D01*
X151765000Y-96012000D02*
X152019000Y-96012000D01*
X158483300Y-91097100D02*
X156464000Y-91097100D01*
X156464000Y-91097100D02*
X156464000Y-89725500D01*
X158483300Y-91097100D02*
X158483300Y-89725500D01*
X158470600Y-85445600D02*
X156476700Y-85445600D01*
X156464000Y-85471000D02*
X156464000Y-86766400D01*
X158470600Y-85458300D02*
X158470600Y-86753700D01*
X157492700Y-89509600D02*
X157492700Y-87033100D01*
X156540200Y-88925400D02*
X157454600Y-87553800D01*
X157454600Y-87553800D02*
X158445200Y-88925400D01*
X156540200Y-87553800D02*
X158445200Y-87553800D01*
X156540200Y-88925400D02*
X158445200Y-88925400D01*
X132715000Y-106680000D02*
X132969000Y-106680000D01*
X132969000Y-106680000D02*
X135001000Y-106680000D01*
X135001000Y-106680000D02*
X135255000Y-106934000D01*
X135255000Y-106934000D02*
X135509000Y-106680000D01*
X135509000Y-106680000D02*
X137541000Y-106680000D01*
X137541000Y-106680000D02*
X137795000Y-106934000D01*
X137795000Y-106934000D02*
X137795000Y-108966000D01*
X132715000Y-106934000D02*
X132969000Y-106680000D01*
X132969000Y-109220000D02*
X132715000Y-108966000D01*
X133223000Y-109220000D02*
X132715000Y-109220000D01*
X137541000Y-109220000D02*
X135509000Y-109220000D01*
X135509000Y-109220000D02*
X135255000Y-108966000D01*
X135255000Y-108966000D02*
X135001000Y-109220000D01*
X135001000Y-109220000D02*
X133223000Y-109220000D01*
X137541000Y-109220000D02*
X137795000Y-108966000D01*
X132715000Y-106680000D02*
X132715000Y-109220000D01*
X163195000Y-83820000D02*
X162941000Y-83820000D01*
X162941000Y-83820000D02*
X160909000Y-83820000D01*
X160909000Y-83820000D02*
X160655000Y-83566000D01*
X160655000Y-83566000D02*
X160401000Y-83820000D01*
X160401000Y-83820000D02*
X158369000Y-83820000D01*
X158369000Y-83820000D02*
X158115000Y-83566000D01*
X158115000Y-83566000D02*
X158115000Y-81534000D01*
X163195000Y-83566000D02*
X162941000Y-83820000D01*
X162941000Y-81280000D02*
X163195000Y-81534000D01*
X162687000Y-81280000D02*
X163195000Y-81280000D01*
X158369000Y-81280000D02*
X160401000Y-81280000D01*
X160401000Y-81280000D02*
X160655000Y-81534000D01*
X160655000Y-81534000D02*
X160909000Y-81280000D01*
X160909000Y-81280000D02*
X162687000Y-81280000D01*
X158369000Y-81280000D02*
X158115000Y-81534000D01*
X163195000Y-83820000D02*
X163195000Y-81280000D01*
X163195000Y-109220000D02*
X162941000Y-109220000D01*
X162941000Y-109220000D02*
X160909000Y-109220000D01*
X160909000Y-109220000D02*
X160655000Y-108966000D01*
X160655000Y-108966000D02*
X160401000Y-109220000D01*
X160401000Y-109220000D02*
X158369000Y-109220000D01*
X158369000Y-109220000D02*
X158115000Y-108966000D01*
X158115000Y-108966000D02*
X158115000Y-106934000D01*
X163195000Y-108966000D02*
X162941000Y-109220000D01*
X162941000Y-106680000D02*
X163195000Y-106934000D01*
X162687000Y-106680000D02*
X163195000Y-106680000D01*
X158369000Y-106680000D02*
X160401000Y-106680000D01*
X160401000Y-106680000D02*
X160655000Y-106934000D01*
X160655000Y-106934000D02*
X160909000Y-106680000D01*
X160909000Y-106680000D02*
X162687000Y-106680000D01*
X158369000Y-106680000D02*
X158115000Y-106934000D01*
X163195000Y-109220000D02*
X163195000Y-106680000D01*
X132715000Y-81280000D02*
X132969000Y-81280000D01*
X132969000Y-81280000D02*
X135001000Y-81280000D01*
X135001000Y-81280000D02*
X135255000Y-81534000D01*
X135255000Y-81534000D02*
X135509000Y-81280000D01*
X135509000Y-81280000D02*
X137541000Y-81280000D01*
X137541000Y-81280000D02*
X137795000Y-81534000D01*
X137795000Y-81534000D02*
X137795000Y-83566000D01*
X132715000Y-81534000D02*
X132969000Y-81280000D01*
X132969000Y-83820000D02*
X132715000Y-83566000D01*
X133223000Y-83820000D02*
X132715000Y-83820000D01*
X137541000Y-83820000D02*
X135509000Y-83820000D01*
X135509000Y-83820000D02*
X135255000Y-83566000D01*
X135255000Y-83566000D02*
X135001000Y-83820000D01*
X135001000Y-83820000D02*
X133223000Y-83820000D01*
X137541000Y-83820000D02*
X137795000Y-83566000D01*
X132715000Y-81280000D02*
X132715000Y-83820000D01*
X165100000Y-70231000D02*
X165100000Y-70485000D01*
X163830000Y-70231000D02*
X163830000Y-70485000D01*
X154305000Y-70231000D02*
X154305000Y-70485000D01*
X153035000Y-70231000D02*
X153035000Y-70485000D01*
X143510000Y-70231000D02*
X143510000Y-70485000D01*
X145542000Y-79121000D02*
X145542000Y-79375000D01*
X160782000Y-78105000D02*
X160782000Y-78765400D01*
X159385000Y-78117700D02*
X159385000Y-78765400D01*
X166370000Y-70485000D02*
X166370000Y-79375000D01*
X140970000Y-79375000D02*
X145542000Y-79375000D01*
X155702000Y-78105000D02*
X165100000Y-78105000D01*
X165100000Y-71755000D02*
X165100000Y-78105000D01*
X142240000Y-71755000D02*
X142240000Y-78105000D01*
X140970000Y-70485000D02*
X140970000Y-79375000D01*
X140970000Y-70485000D02*
X142240000Y-70485000D01*
X142240000Y-71755000D02*
X165100000Y-71755000D01*
X146812000Y-79375000D02*
X158369000Y-79375000D01*
X151638000Y-78105000D02*
X142240000Y-78105000D01*
X166370000Y-70485000D02*
X165100000Y-70485000D01*
X165100000Y-70231000D02*
X163830000Y-70231000D01*
X163830000Y-70485000D02*
X154305000Y-70485000D01*
X154305000Y-70231000D02*
X153035000Y-70231000D01*
X153035000Y-70485000D02*
X143510000Y-70485000D01*
X143510000Y-70231000D02*
X142240000Y-70231000D01*
X142240000Y-70231000D02*
X142240000Y-70485000D01*
X161671000Y-79375000D02*
X166370000Y-79375000D01*
X155702000Y-77343000D02*
X155702000Y-79375000D01*
X158369000Y-79375000D02*
X159004000Y-78867000D01*
X159004000Y-78867000D02*
X161290000Y-78867000D01*
X161290000Y-78867000D02*
X161671000Y-79375000D01*
X151638000Y-79375000D02*
X151638000Y-77343000D01*
X151638000Y-77343000D02*
X155702000Y-77343000D01*
X145542000Y-79121000D02*
X146812000Y-79121000D01*
X146812000Y-79121000D02*
X146812000Y-79375000D01*
X134064500Y-91522500D02*
X136064500Y-91522500D01*
X136064500Y-91522500D02*
X136064500Y-90722500D01*
X136064500Y-90722500D02*
X134064500Y-90722500D01*
X134064500Y-90722500D02*
X134064500Y-91522500D01*
X136847343Y-90022500D02*
G75*
G03X136847343Y-90022500I-282843J0D01*
G01*
D15*
X139720000Y-90595000D02*
X139320000Y-90595000D01*
X139320000Y-90595000D02*
X139320000Y-83395000D01*
X139320000Y-83395000D02*
X139720000Y-83395000D01*
X154920000Y-90595000D02*
X155320000Y-90595000D01*
X155320000Y-90595000D02*
X155320000Y-83895000D01*
X155320000Y-83895000D02*
X154920000Y-83495000D01*
D13*
X156568400Y-82808200D02*
G75*
G03X156568400Y-82808200I-500000J0D01*
G01*
X154520000Y-84495000D02*
G75*
G03X154520000Y-84495000I-500000J0D01*
G01*
X167894000Y-103886000D02*
X167640000Y-103886000D01*
X167894000Y-102616000D02*
X167640000Y-102616000D01*
X167894000Y-95631000D02*
X167640000Y-95631000D01*
X167894000Y-94361000D02*
X167640000Y-94361000D01*
X167894000Y-87376000D02*
X167640000Y-87376000D01*
X159004000Y-89408000D02*
X158750000Y-89408000D01*
X160020000Y-99568000D02*
X159359600Y-99568000D01*
X160007300Y-98171000D02*
X159359600Y-98171000D01*
X167640000Y-105156000D02*
X158750000Y-105156000D01*
X158750000Y-84836000D02*
X158750000Y-89408000D01*
X160020000Y-97028000D02*
X160020000Y-103886000D01*
X166370000Y-103886000D02*
X160020000Y-103886000D01*
X166370000Y-86106000D02*
X160020000Y-86106000D01*
X167640000Y-84836000D02*
X158750000Y-84836000D01*
X167640000Y-84836000D02*
X167640000Y-86106000D01*
X166370000Y-86106000D02*
X166370000Y-103886000D01*
X158750000Y-90678000D02*
X158750000Y-97155000D01*
X160020000Y-92964000D02*
X160020000Y-86106000D01*
X167640000Y-105156000D02*
X167640000Y-103886000D01*
X167894000Y-103886000D02*
X167894000Y-102616000D01*
X167640000Y-102616000D02*
X167640000Y-95631000D01*
X167894000Y-95631000D02*
X167894000Y-94361000D01*
X167640000Y-94361000D02*
X167640000Y-87376000D01*
X167894000Y-87376000D02*
X167894000Y-86106000D01*
X167894000Y-86106000D02*
X167640000Y-86106000D01*
X158750000Y-100457000D02*
X158750000Y-105156000D01*
X160782000Y-97028000D02*
X158750000Y-97028000D01*
X158750000Y-97155000D02*
X159258000Y-97790000D01*
X159258000Y-97790000D02*
X159258000Y-100076000D01*
X159258000Y-100076000D02*
X158750000Y-100457000D01*
X158750000Y-92964000D02*
X160782000Y-92964000D01*
X160782000Y-92964000D02*
X160782000Y-97028000D01*
X159004000Y-89408000D02*
X159004000Y-90678000D01*
X159004000Y-90678000D02*
X158750000Y-90678000D01*
X138505000Y-76045000D02*
X138505000Y-72545000D01*
X138505000Y-72545000D02*
X135255000Y-72545000D01*
X135255000Y-72545000D02*
X132005000Y-72545000D01*
X132005000Y-72545000D02*
X132005000Y-76045000D01*
X132005000Y-76045000D02*
X132232400Y-76045000D01*
X133205220Y-76045000D02*
X133507480Y-76045000D01*
X134457440Y-76045000D02*
X134780020Y-76045000D01*
X135729980Y-76045000D02*
X136052560Y-76045000D01*
X137002520Y-76045000D02*
X137304780Y-76045000D01*
X138277600Y-76045000D02*
X138505000Y-76045000D01*
D19*
G36*
X129020842Y-71872094D02*
X129018654Y-71920273D01*
X129008694Y-71963558D01*
X129002745Y-71977742D01*
X128979207Y-72014381D01*
X128946461Y-72050932D01*
X128909560Y-72082350D01*
X128879422Y-72100900D01*
X128856060Y-72108740D01*
X128856060Y-71881990D01*
X128852993Y-71847795D01*
X128842425Y-71825738D01*
X128822302Y-71813723D01*
X128790571Y-71809655D01*
X128785126Y-71809600D01*
X128759471Y-71811375D01*
X128738642Y-71815908D01*
X128731368Y-71819329D01*
X128718147Y-71837325D01*
X128711167Y-71863871D01*
X128710437Y-71893647D01*
X128715968Y-71921330D01*
X128727768Y-71941597D01*
X128731138Y-71944483D01*
X128751243Y-71952266D01*
X128778749Y-71954816D01*
X128807520Y-71952429D01*
X128831420Y-71945406D01*
X128840820Y-71939140D01*
X128850675Y-71924456D01*
X128855275Y-71902999D01*
X128856060Y-71881990D01*
X128856060Y-72108740D01*
X128843446Y-72112973D01*
X128800351Y-72119359D01*
X128756433Y-72119700D01*
X128717990Y-72113637D01*
X128708730Y-72110617D01*
X128677232Y-72095013D01*
X128644103Y-72072825D01*
X128614560Y-72047987D01*
X128593817Y-72024432D01*
X128593170Y-72023459D01*
X128577930Y-72000144D01*
X128415760Y-72000122D01*
X128356492Y-71999844D01*
X128310586Y-71998956D01*
X128276176Y-71997349D01*
X128251391Y-71994914D01*
X128234363Y-71991544D01*
X128227445Y-71989176D01*
X128212116Y-71979540D01*
X128188862Y-71960971D01*
X128159949Y-71935670D01*
X128127643Y-71905840D01*
X128094208Y-71873686D01*
X128061910Y-71841409D01*
X128033015Y-71811213D01*
X128009788Y-71785300D01*
X127994495Y-71765874D01*
X127990136Y-71758410D01*
X127988273Y-71751664D01*
X127986637Y-71740195D01*
X127985213Y-71723117D01*
X127983988Y-71699543D01*
X127982951Y-71668586D01*
X127982086Y-71629358D01*
X127981381Y-71580974D01*
X127980822Y-71522546D01*
X127980397Y-71453186D01*
X127980091Y-71372009D01*
X127979892Y-71278128D01*
X127979787Y-71170654D01*
X127979760Y-71066895D01*
X127979760Y-70399900D01*
X128097870Y-70399900D01*
X128215980Y-70399900D01*
X128215980Y-71030659D01*
X128215980Y-71661419D01*
X128267606Y-71712649D01*
X128319232Y-71763880D01*
X128448581Y-71763858D01*
X128577930Y-71763836D01*
X128593170Y-71740521D01*
X128612566Y-71718018D01*
X128640957Y-71693525D01*
X128673281Y-71670942D01*
X128704477Y-71654166D01*
X128706403Y-71653345D01*
X128745253Y-71643490D01*
X128790671Y-71641731D01*
X128836507Y-71647766D01*
X128876611Y-71661292D01*
X128877583Y-71661771D01*
X128922011Y-71690317D01*
X128962501Y-71728143D01*
X128994246Y-71770504D01*
X129001992Y-71784683D01*
X129015280Y-71824928D01*
X129020842Y-71872094D01*
X129020842Y-71872094D01*
X129020842Y-71872094D01*
G37*
X129020842Y-71872094D02*
X129018654Y-71920273D01*
X129008694Y-71963558D01*
X129002745Y-71977742D01*
X128979207Y-72014381D01*
X128946461Y-72050932D01*
X128909560Y-72082350D01*
X128879422Y-72100900D01*
X128856060Y-72108740D01*
X128856060Y-71881990D01*
X128852993Y-71847795D01*
X128842425Y-71825738D01*
X128822302Y-71813723D01*
X128790571Y-71809655D01*
X128785126Y-71809600D01*
X128759471Y-71811375D01*
X128738642Y-71815908D01*
X128731368Y-71819329D01*
X128718147Y-71837325D01*
X128711167Y-71863871D01*
X128710437Y-71893647D01*
X128715968Y-71921330D01*
X128727768Y-71941597D01*
X128731138Y-71944483D01*
X128751243Y-71952266D01*
X128778749Y-71954816D01*
X128807520Y-71952429D01*
X128831420Y-71945406D01*
X128840820Y-71939140D01*
X128850675Y-71924456D01*
X128855275Y-71902999D01*
X128856060Y-71881990D01*
X128856060Y-72108740D01*
X128843446Y-72112973D01*
X128800351Y-72119359D01*
X128756433Y-72119700D01*
X128717990Y-72113637D01*
X128708730Y-72110617D01*
X128677232Y-72095013D01*
X128644103Y-72072825D01*
X128614560Y-72047987D01*
X128593817Y-72024432D01*
X128593170Y-72023459D01*
X128577930Y-72000144D01*
X128415760Y-72000122D01*
X128356492Y-71999844D01*
X128310586Y-71998956D01*
X128276176Y-71997349D01*
X128251391Y-71994914D01*
X128234363Y-71991544D01*
X128227445Y-71989176D01*
X128212116Y-71979540D01*
X128188862Y-71960971D01*
X128159949Y-71935670D01*
X128127643Y-71905840D01*
X128094208Y-71873686D01*
X128061910Y-71841409D01*
X128033015Y-71811213D01*
X128009788Y-71785300D01*
X127994495Y-71765874D01*
X127990136Y-71758410D01*
X127988273Y-71751664D01*
X127986637Y-71740195D01*
X127985213Y-71723117D01*
X127983988Y-71699543D01*
X127982951Y-71668586D01*
X127982086Y-71629358D01*
X127981381Y-71580974D01*
X127980822Y-71522546D01*
X127980397Y-71453186D01*
X127980091Y-71372009D01*
X127979892Y-71278128D01*
X127979787Y-71170654D01*
X127979760Y-71066895D01*
X127979760Y-70399900D01*
X128097870Y-70399900D01*
X128215980Y-70399900D01*
X128215980Y-71030659D01*
X128215980Y-71661419D01*
X128267606Y-71712649D01*
X128319232Y-71763880D01*
X128448581Y-71763858D01*
X128577930Y-71763836D01*
X128593170Y-71740521D01*
X128612566Y-71718018D01*
X128640957Y-71693525D01*
X128673281Y-71670942D01*
X128704477Y-71654166D01*
X128706403Y-71653345D01*
X128745253Y-71643490D01*
X128790671Y-71641731D01*
X128836507Y-71647766D01*
X128876611Y-71661292D01*
X128877583Y-71661771D01*
X128922011Y-71690317D01*
X128962501Y-71728143D01*
X128994246Y-71770504D01*
X129001992Y-71784683D01*
X129015280Y-71824928D01*
X129020842Y-71872094D01*
X129020842Y-71872094D01*
G36*
X130965057Y-71857021D02*
X130964454Y-71905796D01*
X130955170Y-71952946D01*
X130945576Y-71977742D01*
X130922415Y-72014127D01*
X130889912Y-72050594D01*
X130853084Y-72082112D01*
X130822522Y-72101065D01*
X130799160Y-72108681D01*
X130799160Y-71881990D01*
X130796093Y-71847795D01*
X130785525Y-71825738D01*
X130765402Y-71813723D01*
X130733671Y-71809655D01*
X130728226Y-71809600D01*
X130702571Y-71811375D01*
X130681742Y-71815908D01*
X130674468Y-71819329D01*
X130661247Y-71837325D01*
X130654267Y-71863871D01*
X130653537Y-71893647D01*
X130659068Y-71921330D01*
X130670868Y-71941597D01*
X130674238Y-71944483D01*
X130694343Y-71952266D01*
X130721849Y-71954816D01*
X130750620Y-71952429D01*
X130774520Y-71945406D01*
X130783920Y-71939140D01*
X130793775Y-71924456D01*
X130798375Y-71902999D01*
X130799160Y-71881990D01*
X130799160Y-72108681D01*
X130782719Y-72114041D01*
X130735735Y-72119235D01*
X130687475Y-72116672D01*
X130643850Y-72106373D01*
X130629463Y-72100312D01*
X130586301Y-72072247D01*
X130546304Y-72033753D01*
X130514119Y-71989570D01*
X130505835Y-71974204D01*
X130491288Y-71931365D01*
X130485474Y-71883759D01*
X130488683Y-71837372D01*
X130497649Y-71805862D01*
X130514220Y-71774163D01*
X130536769Y-71741285D01*
X130561444Y-71712253D01*
X130584396Y-71692092D01*
X130585301Y-71691490D01*
X130608616Y-71676250D01*
X130608638Y-71156185D01*
X130608660Y-70636120D01*
X130576219Y-70636120D01*
X130567486Y-70636327D01*
X130559286Y-70637644D01*
X130550402Y-70641112D01*
X130539618Y-70647775D01*
X130525714Y-70658673D01*
X130507476Y-70674850D01*
X130483683Y-70697347D01*
X130453121Y-70727208D01*
X130414571Y-70765473D01*
X130366816Y-70813186D01*
X130351429Y-70828580D01*
X130159080Y-71021040D01*
X130159102Y-71093375D01*
X130159267Y-71126999D01*
X130160354Y-71148842D01*
X130163283Y-71162361D01*
X130168977Y-71171015D01*
X130178356Y-71178263D01*
X130182439Y-71180950D01*
X130207862Y-71203062D01*
X130233698Y-71234597D01*
X130256162Y-71270331D01*
X130270732Y-71302820D01*
X130279257Y-71346481D01*
X130278654Y-71395256D01*
X130269370Y-71442406D01*
X130259776Y-71467202D01*
X130236615Y-71503587D01*
X130204112Y-71540053D01*
X130167284Y-71571572D01*
X130136722Y-71590524D01*
X130113360Y-71598141D01*
X130113360Y-71371450D01*
X130110293Y-71337255D01*
X130099725Y-71315198D01*
X130079602Y-71303183D01*
X130047871Y-71299115D01*
X130042426Y-71299060D01*
X130016771Y-71300835D01*
X129995942Y-71305368D01*
X129988668Y-71308789D01*
X129975447Y-71326785D01*
X129968467Y-71353331D01*
X129967737Y-71383107D01*
X129973268Y-71410790D01*
X129985068Y-71431057D01*
X129988438Y-71433943D01*
X130008543Y-71441726D01*
X130036049Y-71444276D01*
X130064820Y-71441889D01*
X130088720Y-71434866D01*
X130098120Y-71428600D01*
X130107975Y-71413916D01*
X130112575Y-71392459D01*
X130113360Y-71371450D01*
X130113360Y-71598141D01*
X130096919Y-71603501D01*
X130049935Y-71608695D01*
X130001675Y-71606132D01*
X129958050Y-71595833D01*
X129943664Y-71589772D01*
X129900501Y-71561707D01*
X129860504Y-71523213D01*
X129828319Y-71479030D01*
X129820035Y-71463664D01*
X129805488Y-71420825D01*
X129799674Y-71373219D01*
X129802883Y-71326832D01*
X129811849Y-71295322D01*
X129828420Y-71263623D01*
X129850969Y-71230745D01*
X129875644Y-71201713D01*
X129898596Y-71181552D01*
X129899501Y-71180950D01*
X129910306Y-71173405D01*
X129917120Y-71165600D01*
X129920864Y-71154078D01*
X129922460Y-71135379D01*
X129922828Y-71106046D01*
X129922838Y-71093375D01*
X129922860Y-71021040D01*
X129730511Y-70828580D01*
X129679924Y-70777999D01*
X129638887Y-70737160D01*
X129606183Y-70705022D01*
X129580594Y-70680543D01*
X129560904Y-70662679D01*
X129545895Y-70650390D01*
X129534350Y-70642632D01*
X129525051Y-70638364D01*
X129516781Y-70636543D01*
X129508323Y-70636127D01*
X129505721Y-70636120D01*
X129473280Y-70636120D01*
X129473302Y-71156185D01*
X129473324Y-71676250D01*
X129496639Y-71691490D01*
X129522062Y-71713602D01*
X129547898Y-71745137D01*
X129570362Y-71780871D01*
X129584932Y-71813360D01*
X129593457Y-71857021D01*
X129592854Y-71905796D01*
X129583570Y-71952946D01*
X129573976Y-71977742D01*
X129550756Y-72014213D01*
X129518205Y-72050694D01*
X129481367Y-72082136D01*
X129450922Y-72100900D01*
X129427560Y-72108751D01*
X129427560Y-71881990D01*
X129424493Y-71847795D01*
X129413925Y-71825738D01*
X129393802Y-71813723D01*
X129362071Y-71809655D01*
X129356626Y-71809600D01*
X129330971Y-71811375D01*
X129310142Y-71815908D01*
X129302868Y-71819329D01*
X129289647Y-71837325D01*
X129282667Y-71863871D01*
X129281937Y-71893647D01*
X129287468Y-71921330D01*
X129299268Y-71941597D01*
X129302638Y-71944483D01*
X129322743Y-71952266D01*
X129350249Y-71954816D01*
X129379020Y-71952429D01*
X129402920Y-71945406D01*
X129412320Y-71939140D01*
X129422175Y-71924456D01*
X129426775Y-71902999D01*
X129427560Y-71881990D01*
X129427560Y-72108751D01*
X129415292Y-72112874D01*
X129372536Y-72119290D01*
X129328917Y-72119784D01*
X129290697Y-72113993D01*
X129280674Y-72110770D01*
X129230807Y-72084326D01*
X129185449Y-72046044D01*
X129148000Y-71999288D01*
X129125823Y-71957577D01*
X129117731Y-71926138D01*
X129114648Y-71887049D01*
X129116564Y-71847051D01*
X129123468Y-71812885D01*
X129126049Y-71805862D01*
X129142620Y-71774163D01*
X129165169Y-71741285D01*
X129189844Y-71712253D01*
X129212796Y-71692092D01*
X129213701Y-71691490D01*
X129237016Y-71676250D01*
X129237038Y-71038075D01*
X129237060Y-70399900D01*
X129419444Y-70399900D01*
X129478251Y-70400240D01*
X129529650Y-70401214D01*
X129571798Y-70402748D01*
X129602855Y-70404771D01*
X129620979Y-70407211D01*
X129623279Y-70407880D01*
X129633473Y-70414977D01*
X129653018Y-70431654D01*
X129680561Y-70456643D01*
X129714748Y-70488674D01*
X129754224Y-70526481D01*
X129797637Y-70568795D01*
X129842904Y-70613621D01*
X130041079Y-70811383D01*
X130235335Y-70616304D01*
X130280938Y-70570887D01*
X130324097Y-70528625D01*
X130363422Y-70490823D01*
X130397523Y-70458791D01*
X130425009Y-70433835D01*
X130444491Y-70417264D01*
X130454110Y-70410563D01*
X130466272Y-70406940D01*
X130485130Y-70404172D01*
X130512393Y-70402172D01*
X130549768Y-70400852D01*
X130598961Y-70400123D01*
X130661679Y-70399900D01*
X130661755Y-70399900D01*
X130844880Y-70399900D01*
X130844902Y-71038075D01*
X130844924Y-71676250D01*
X130868239Y-71691490D01*
X130893662Y-71713602D01*
X130919498Y-71745137D01*
X130941962Y-71780871D01*
X130956532Y-71813360D01*
X130965057Y-71857021D01*
X130965057Y-71857021D01*
X130965057Y-71857021D01*
G37*
X130965057Y-71857021D02*
X130964454Y-71905796D01*
X130955170Y-71952946D01*
X130945576Y-71977742D01*
X130922415Y-72014127D01*
X130889912Y-72050594D01*
X130853084Y-72082112D01*
X130822522Y-72101065D01*
X130799160Y-72108681D01*
X130799160Y-71881990D01*
X130796093Y-71847795D01*
X130785525Y-71825738D01*
X130765402Y-71813723D01*
X130733671Y-71809655D01*
X130728226Y-71809600D01*
X130702571Y-71811375D01*
X130681742Y-71815908D01*
X130674468Y-71819329D01*
X130661247Y-71837325D01*
X130654267Y-71863871D01*
X130653537Y-71893647D01*
X130659068Y-71921330D01*
X130670868Y-71941597D01*
X130674238Y-71944483D01*
X130694343Y-71952266D01*
X130721849Y-71954816D01*
X130750620Y-71952429D01*
X130774520Y-71945406D01*
X130783920Y-71939140D01*
X130793775Y-71924456D01*
X130798375Y-71902999D01*
X130799160Y-71881990D01*
X130799160Y-72108681D01*
X130782719Y-72114041D01*
X130735735Y-72119235D01*
X130687475Y-72116672D01*
X130643850Y-72106373D01*
X130629463Y-72100312D01*
X130586301Y-72072247D01*
X130546304Y-72033753D01*
X130514119Y-71989570D01*
X130505835Y-71974204D01*
X130491288Y-71931365D01*
X130485474Y-71883759D01*
X130488683Y-71837372D01*
X130497649Y-71805862D01*
X130514220Y-71774163D01*
X130536769Y-71741285D01*
X130561444Y-71712253D01*
X130584396Y-71692092D01*
X130585301Y-71691490D01*
X130608616Y-71676250D01*
X130608638Y-71156185D01*
X130608660Y-70636120D01*
X130576219Y-70636120D01*
X130567486Y-70636327D01*
X130559286Y-70637644D01*
X130550402Y-70641112D01*
X130539618Y-70647775D01*
X130525714Y-70658673D01*
X130507476Y-70674850D01*
X130483683Y-70697347D01*
X130453121Y-70727208D01*
X130414571Y-70765473D01*
X130366816Y-70813186D01*
X130351429Y-70828580D01*
X130159080Y-71021040D01*
X130159102Y-71093375D01*
X130159267Y-71126999D01*
X130160354Y-71148842D01*
X130163283Y-71162361D01*
X130168977Y-71171015D01*
X130178356Y-71178263D01*
X130182439Y-71180950D01*
X130207862Y-71203062D01*
X130233698Y-71234597D01*
X130256162Y-71270331D01*
X130270732Y-71302820D01*
X130279257Y-71346481D01*
X130278654Y-71395256D01*
X130269370Y-71442406D01*
X130259776Y-71467202D01*
X130236615Y-71503587D01*
X130204112Y-71540053D01*
X130167284Y-71571572D01*
X130136722Y-71590524D01*
X130113360Y-71598141D01*
X130113360Y-71371450D01*
X130110293Y-71337255D01*
X130099725Y-71315198D01*
X130079602Y-71303183D01*
X130047871Y-71299115D01*
X130042426Y-71299060D01*
X130016771Y-71300835D01*
X129995942Y-71305368D01*
X129988668Y-71308789D01*
X129975447Y-71326785D01*
X129968467Y-71353331D01*
X129967737Y-71383107D01*
X129973268Y-71410790D01*
X129985068Y-71431057D01*
X129988438Y-71433943D01*
X130008543Y-71441726D01*
X130036049Y-71444276D01*
X130064820Y-71441889D01*
X130088720Y-71434866D01*
X130098120Y-71428600D01*
X130107975Y-71413916D01*
X130112575Y-71392459D01*
X130113360Y-71371450D01*
X130113360Y-71598141D01*
X130096919Y-71603501D01*
X130049935Y-71608695D01*
X130001675Y-71606132D01*
X129958050Y-71595833D01*
X129943664Y-71589772D01*
X129900501Y-71561707D01*
X129860504Y-71523213D01*
X129828319Y-71479030D01*
X129820035Y-71463664D01*
X129805488Y-71420825D01*
X129799674Y-71373219D01*
X129802883Y-71326832D01*
X129811849Y-71295322D01*
X129828420Y-71263623D01*
X129850969Y-71230745D01*
X129875644Y-71201713D01*
X129898596Y-71181552D01*
X129899501Y-71180950D01*
X129910306Y-71173405D01*
X129917120Y-71165600D01*
X129920864Y-71154078D01*
X129922460Y-71135379D01*
X129922828Y-71106046D01*
X129922838Y-71093375D01*
X129922860Y-71021040D01*
X129730511Y-70828580D01*
X129679924Y-70777999D01*
X129638887Y-70737160D01*
X129606183Y-70705022D01*
X129580594Y-70680543D01*
X129560904Y-70662679D01*
X129545895Y-70650390D01*
X129534350Y-70642632D01*
X129525051Y-70638364D01*
X129516781Y-70636543D01*
X129508323Y-70636127D01*
X129505721Y-70636120D01*
X129473280Y-70636120D01*
X129473302Y-71156185D01*
X129473324Y-71676250D01*
X129496639Y-71691490D01*
X129522062Y-71713602D01*
X129547898Y-71745137D01*
X129570362Y-71780871D01*
X129584932Y-71813360D01*
X129593457Y-71857021D01*
X129592854Y-71905796D01*
X129583570Y-71952946D01*
X129573976Y-71977742D01*
X129550756Y-72014213D01*
X129518205Y-72050694D01*
X129481367Y-72082136D01*
X129450922Y-72100900D01*
X129427560Y-72108751D01*
X129427560Y-71881990D01*
X129424493Y-71847795D01*
X129413925Y-71825738D01*
X129393802Y-71813723D01*
X129362071Y-71809655D01*
X129356626Y-71809600D01*
X129330971Y-71811375D01*
X129310142Y-71815908D01*
X129302868Y-71819329D01*
X129289647Y-71837325D01*
X129282667Y-71863871D01*
X129281937Y-71893647D01*
X129287468Y-71921330D01*
X129299268Y-71941597D01*
X129302638Y-71944483D01*
X129322743Y-71952266D01*
X129350249Y-71954816D01*
X129379020Y-71952429D01*
X129402920Y-71945406D01*
X129412320Y-71939140D01*
X129422175Y-71924456D01*
X129426775Y-71902999D01*
X129427560Y-71881990D01*
X129427560Y-72108751D01*
X129415292Y-72112874D01*
X129372536Y-72119290D01*
X129328917Y-72119784D01*
X129290697Y-72113993D01*
X129280674Y-72110770D01*
X129230807Y-72084326D01*
X129185449Y-72046044D01*
X129148000Y-71999288D01*
X129125823Y-71957577D01*
X129117731Y-71926138D01*
X129114648Y-71887049D01*
X129116564Y-71847051D01*
X129123468Y-71812885D01*
X129126049Y-71805862D01*
X129142620Y-71774163D01*
X129165169Y-71741285D01*
X129189844Y-71712253D01*
X129212796Y-71692092D01*
X129213701Y-71691490D01*
X129237016Y-71676250D01*
X129237038Y-71038075D01*
X129237060Y-70399900D01*
X129419444Y-70399900D01*
X129478251Y-70400240D01*
X129529650Y-70401214D01*
X129571798Y-70402748D01*
X129602855Y-70404771D01*
X129620979Y-70407211D01*
X129623279Y-70407880D01*
X129633473Y-70414977D01*
X129653018Y-70431654D01*
X129680561Y-70456643D01*
X129714748Y-70488674D01*
X129754224Y-70526481D01*
X129797637Y-70568795D01*
X129842904Y-70613621D01*
X130041079Y-70811383D01*
X130235335Y-70616304D01*
X130280938Y-70570887D01*
X130324097Y-70528625D01*
X130363422Y-70490823D01*
X130397523Y-70458791D01*
X130425009Y-70433835D01*
X130444491Y-70417264D01*
X130454110Y-70410563D01*
X130466272Y-70406940D01*
X130485130Y-70404172D01*
X130512393Y-70402172D01*
X130549768Y-70400852D01*
X130598961Y-70400123D01*
X130661679Y-70399900D01*
X130661755Y-70399900D01*
X130844880Y-70399900D01*
X130844902Y-71038075D01*
X130844924Y-71676250D01*
X130868239Y-71691490D01*
X130893662Y-71713602D01*
X130919498Y-71745137D01*
X130941962Y-71780871D01*
X130956532Y-71813360D01*
X130965057Y-71857021D01*
X130965057Y-71857021D01*
G36*
X133082302Y-71872094D02*
X133080114Y-71920273D01*
X133070154Y-71963558D01*
X133064205Y-71977742D01*
X133040667Y-72014381D01*
X133007921Y-72050932D01*
X132971020Y-72082350D01*
X132940882Y-72100900D01*
X132917520Y-72108751D01*
X132917520Y-71881990D01*
X132914454Y-71847795D01*
X132903885Y-71825738D01*
X132883762Y-71813723D01*
X132852031Y-71809655D01*
X132846586Y-71809600D01*
X132820931Y-71811375D01*
X132800102Y-71815908D01*
X132792828Y-71819329D01*
X132779607Y-71837325D01*
X132772627Y-71863871D01*
X132771897Y-71893647D01*
X132777428Y-71921330D01*
X132789228Y-71941597D01*
X132792597Y-71944483D01*
X132812703Y-71952266D01*
X132840209Y-71954816D01*
X132868980Y-71952429D01*
X132892880Y-71945406D01*
X132902280Y-71939140D01*
X132912135Y-71924456D01*
X132916735Y-71902999D01*
X132917520Y-71881990D01*
X132917520Y-72108751D01*
X132905252Y-72112874D01*
X132862496Y-72119290D01*
X132818877Y-72119784D01*
X132780657Y-72113993D01*
X132770634Y-72110770D01*
X132720767Y-72084326D01*
X132675409Y-72046044D01*
X132637960Y-71999288D01*
X132615783Y-71957577D01*
X132607614Y-71925803D01*
X132604589Y-71886414D01*
X132606685Y-71846131D01*
X132613879Y-71811675D01*
X132616314Y-71805133D01*
X132628480Y-71776015D01*
X132515920Y-71663267D01*
X132403361Y-71550520D01*
X132361311Y-71550520D01*
X132319261Y-71550520D01*
X132075465Y-71795123D01*
X132024437Y-71846019D01*
X131975963Y-71893788D01*
X131931248Y-71937287D01*
X131891496Y-71975369D01*
X131857911Y-72006888D01*
X131831696Y-72030701D01*
X131814057Y-72045660D01*
X131807150Y-72050393D01*
X131791417Y-72053808D01*
X131762922Y-72056628D01*
X131724134Y-72058854D01*
X131677518Y-72060484D01*
X131625543Y-72061516D01*
X131570675Y-72061948D01*
X131515381Y-72061780D01*
X131462129Y-72061009D01*
X131413386Y-72059635D01*
X131371618Y-72057655D01*
X131339294Y-72055069D01*
X131318880Y-72051874D01*
X131315170Y-72050684D01*
X131300549Y-72041068D01*
X131278155Y-72022197D01*
X131250192Y-71996336D01*
X131218862Y-71965749D01*
X131186368Y-71932703D01*
X131154914Y-71899462D01*
X131126702Y-71868293D01*
X131103935Y-71841461D01*
X131088817Y-71821231D01*
X131084404Y-71813375D01*
X131082119Y-71800253D01*
X131080070Y-71773392D01*
X131078257Y-71734292D01*
X131076681Y-71684453D01*
X131075342Y-71625374D01*
X131074239Y-71558556D01*
X131073373Y-71485497D01*
X131072744Y-71407698D01*
X131072351Y-71326658D01*
X131072194Y-71243877D01*
X131072275Y-71160854D01*
X131072591Y-71079089D01*
X131073145Y-71000082D01*
X131073935Y-70925333D01*
X131074961Y-70856340D01*
X131076224Y-70794604D01*
X131077724Y-70741625D01*
X131079460Y-70698901D01*
X131081433Y-70667933D01*
X131083642Y-70650221D01*
X131084404Y-70647585D01*
X131094040Y-70632256D01*
X131112609Y-70609002D01*
X131137910Y-70580089D01*
X131167739Y-70547783D01*
X131199894Y-70514348D01*
X131232171Y-70482050D01*
X131262367Y-70453155D01*
X131288280Y-70429928D01*
X131307706Y-70414635D01*
X131315170Y-70410276D01*
X131331101Y-70406881D01*
X131359757Y-70404093D01*
X131398674Y-70401913D01*
X131445382Y-70400339D01*
X131497415Y-70399369D01*
X131552307Y-70399001D01*
X131607589Y-70399235D01*
X131660794Y-70400068D01*
X131709456Y-70401500D01*
X131751107Y-70403529D01*
X131783281Y-70406153D01*
X131803509Y-70409372D01*
X131807150Y-70410567D01*
X131817514Y-70418079D01*
X131837362Y-70435309D01*
X131865490Y-70461112D01*
X131900695Y-70494343D01*
X131941772Y-70533855D01*
X131987517Y-70578504D01*
X132036727Y-70627144D01*
X132075465Y-70665837D01*
X132319261Y-70910440D01*
X132361311Y-70910440D01*
X132403361Y-70910440D01*
X132515920Y-70797692D01*
X132628480Y-70684945D01*
X132616314Y-70655827D01*
X132605577Y-70613661D01*
X132604378Y-70565810D01*
X132612440Y-70518244D01*
X132624195Y-70486756D01*
X132655079Y-70438620D01*
X132696527Y-70395667D01*
X132743901Y-70362569D01*
X132751217Y-70358751D01*
X132800737Y-70342102D01*
X132854213Y-70337956D01*
X132906887Y-70346315D01*
X132939043Y-70358751D01*
X132983471Y-70387297D01*
X133023961Y-70425123D01*
X133055706Y-70467484D01*
X133063452Y-70481663D01*
X133073498Y-70505926D01*
X133079052Y-70531259D01*
X133081201Y-70563559D01*
X133081350Y-70578970D01*
X133077866Y-70628951D01*
X133066083Y-70670444D01*
X133044006Y-70708189D01*
X133011366Y-70745206D01*
X132964104Y-70783813D01*
X132917520Y-70806034D01*
X132917520Y-70578970D01*
X132914454Y-70544775D01*
X132903885Y-70522718D01*
X132883762Y-70510703D01*
X132852031Y-70506635D01*
X132846586Y-70506580D01*
X132820931Y-70508355D01*
X132800102Y-70512888D01*
X132792828Y-70516309D01*
X132779607Y-70534305D01*
X132772627Y-70560851D01*
X132771897Y-70590627D01*
X132777428Y-70618310D01*
X132789228Y-70638577D01*
X132792597Y-70641463D01*
X132812703Y-70649246D01*
X132840209Y-70651796D01*
X132868980Y-70649409D01*
X132892880Y-70642386D01*
X132902280Y-70636120D01*
X132912135Y-70621436D01*
X132916735Y-70599979D01*
X132917520Y-70578970D01*
X132917520Y-70806034D01*
X132913808Y-70807805D01*
X132864594Y-70817346D01*
X132822270Y-70820509D01*
X132666060Y-70975600D01*
X132625079Y-71015836D01*
X132586617Y-71052749D01*
X132552256Y-71084885D01*
X132523578Y-71110793D01*
X132502163Y-71129023D01*
X132489594Y-71138121D01*
X132488399Y-71138675D01*
X132469362Y-71142570D01*
X132439132Y-71145197D01*
X132401425Y-71146594D01*
X132359957Y-71146801D01*
X132318445Y-71145855D01*
X132280604Y-71143795D01*
X132250150Y-71140659D01*
X132230800Y-71136487D01*
X132229570Y-71135993D01*
X132219206Y-71128481D01*
X132199358Y-71111251D01*
X132171230Y-71085448D01*
X132136025Y-71052217D01*
X132094948Y-71012705D01*
X132049203Y-70968056D01*
X131999993Y-70919416D01*
X131961255Y-70880723D01*
X131717459Y-70636120D01*
X131564810Y-70636120D01*
X131412161Y-70636120D01*
X131360931Y-70687746D01*
X131309700Y-70739372D01*
X131309700Y-70912536D01*
X131309700Y-71085700D01*
X131460195Y-71085678D01*
X131610690Y-71085656D01*
X131625930Y-71062341D01*
X131645326Y-71039837D01*
X131673717Y-71015345D01*
X131706041Y-70992762D01*
X131737237Y-70975986D01*
X131739163Y-70975165D01*
X131778013Y-70965310D01*
X131823431Y-70963551D01*
X131869267Y-70969586D01*
X131909371Y-70983112D01*
X131910343Y-70983591D01*
X131954771Y-71012137D01*
X131995261Y-71049963D01*
X132027006Y-71092324D01*
X132034752Y-71106503D01*
X132048040Y-71146748D01*
X132053602Y-71193914D01*
X132051414Y-71242093D01*
X132041454Y-71285378D01*
X132035505Y-71299562D01*
X132012011Y-71336149D01*
X131979355Y-71372619D01*
X131942561Y-71403954D01*
X131912182Y-71422616D01*
X131888820Y-71430398D01*
X131888820Y-71203810D01*
X131885754Y-71169615D01*
X131875185Y-71147558D01*
X131855062Y-71135543D01*
X131823331Y-71131475D01*
X131817886Y-71131420D01*
X131792231Y-71133195D01*
X131771402Y-71137728D01*
X131764128Y-71141149D01*
X131750907Y-71159145D01*
X131743927Y-71185691D01*
X131743197Y-71215467D01*
X131748728Y-71243150D01*
X131760528Y-71263417D01*
X131763897Y-71266303D01*
X131784003Y-71274086D01*
X131811509Y-71276636D01*
X131840280Y-71274249D01*
X131864180Y-71267226D01*
X131873580Y-71260960D01*
X131883435Y-71246276D01*
X131888035Y-71224819D01*
X131888820Y-71203810D01*
X131888820Y-71430398D01*
X131869263Y-71436912D01*
X131820660Y-71442798D01*
X131773111Y-71439826D01*
X131747800Y-71433572D01*
X131712860Y-71417662D01*
X131677246Y-71394849D01*
X131646185Y-71368921D01*
X131625930Y-71345279D01*
X131610690Y-71321964D01*
X131460195Y-71321942D01*
X131309700Y-71321920D01*
X131309700Y-71522149D01*
X131309700Y-71722379D01*
X131361326Y-71773609D01*
X131412952Y-71824840D01*
X131565206Y-71824840D01*
X131717459Y-71824840D01*
X131961255Y-71580237D01*
X132012283Y-71529341D01*
X132060757Y-71481572D01*
X132105472Y-71438073D01*
X132145224Y-71399991D01*
X132178809Y-71368471D01*
X132205024Y-71344659D01*
X132222663Y-71329700D01*
X132229570Y-71324967D01*
X132249377Y-71320076D01*
X132280554Y-71316587D01*
X132319296Y-71314500D01*
X132361795Y-71313815D01*
X132404248Y-71314532D01*
X132442849Y-71316652D01*
X132473791Y-71320174D01*
X132492950Y-71324957D01*
X132504620Y-71333043D01*
X132525292Y-71350536D01*
X132553337Y-71375926D01*
X132587123Y-71407701D01*
X132625021Y-71444352D01*
X132665398Y-71484368D01*
X132669799Y-71488787D01*
X132822127Y-71641960D01*
X132860707Y-71641960D01*
X132905054Y-71648929D01*
X132950370Y-71668360D01*
X132993514Y-71698042D01*
X133031342Y-71735763D01*
X133060713Y-71779309D01*
X133063452Y-71784683D01*
X133076740Y-71824928D01*
X133082302Y-71872094D01*
X133082302Y-71872094D01*
X133082302Y-71872094D01*
G37*
X133082302Y-71872094D02*
X133080114Y-71920273D01*
X133070154Y-71963558D01*
X133064205Y-71977742D01*
X133040667Y-72014381D01*
X133007921Y-72050932D01*
X132971020Y-72082350D01*
X132940882Y-72100900D01*
X132917520Y-72108751D01*
X132917520Y-71881990D01*
X132914454Y-71847795D01*
X132903885Y-71825738D01*
X132883762Y-71813723D01*
X132852031Y-71809655D01*
X132846586Y-71809600D01*
X132820931Y-71811375D01*
X132800102Y-71815908D01*
X132792828Y-71819329D01*
X132779607Y-71837325D01*
X132772627Y-71863871D01*
X132771897Y-71893647D01*
X132777428Y-71921330D01*
X132789228Y-71941597D01*
X132792597Y-71944483D01*
X132812703Y-71952266D01*
X132840209Y-71954816D01*
X132868980Y-71952429D01*
X132892880Y-71945406D01*
X132902280Y-71939140D01*
X132912135Y-71924456D01*
X132916735Y-71902999D01*
X132917520Y-71881990D01*
X132917520Y-72108751D01*
X132905252Y-72112874D01*
X132862496Y-72119290D01*
X132818877Y-72119784D01*
X132780657Y-72113993D01*
X132770634Y-72110770D01*
X132720767Y-72084326D01*
X132675409Y-72046044D01*
X132637960Y-71999288D01*
X132615783Y-71957577D01*
X132607614Y-71925803D01*
X132604589Y-71886414D01*
X132606685Y-71846131D01*
X132613879Y-71811675D01*
X132616314Y-71805133D01*
X132628480Y-71776015D01*
X132515920Y-71663267D01*
X132403361Y-71550520D01*
X132361311Y-71550520D01*
X132319261Y-71550520D01*
X132075465Y-71795123D01*
X132024437Y-71846019D01*
X131975963Y-71893788D01*
X131931248Y-71937287D01*
X131891496Y-71975369D01*
X131857911Y-72006888D01*
X131831696Y-72030701D01*
X131814057Y-72045660D01*
X131807150Y-72050393D01*
X131791417Y-72053808D01*
X131762922Y-72056628D01*
X131724134Y-72058854D01*
X131677518Y-72060484D01*
X131625543Y-72061516D01*
X131570675Y-72061948D01*
X131515381Y-72061780D01*
X131462129Y-72061009D01*
X131413386Y-72059635D01*
X131371618Y-72057655D01*
X131339294Y-72055069D01*
X131318880Y-72051874D01*
X131315170Y-72050684D01*
X131300549Y-72041068D01*
X131278155Y-72022197D01*
X131250192Y-71996336D01*
X131218862Y-71965749D01*
X131186368Y-71932703D01*
X131154914Y-71899462D01*
X131126702Y-71868293D01*
X131103935Y-71841461D01*
X131088817Y-71821231D01*
X131084404Y-71813375D01*
X131082119Y-71800253D01*
X131080070Y-71773392D01*
X131078257Y-71734292D01*
X131076681Y-71684453D01*
X131075342Y-71625374D01*
X131074239Y-71558556D01*
X131073373Y-71485497D01*
X131072744Y-71407698D01*
X131072351Y-71326658D01*
X131072194Y-71243877D01*
X131072275Y-71160854D01*
X131072591Y-71079089D01*
X131073145Y-71000082D01*
X131073935Y-70925333D01*
X131074961Y-70856340D01*
X131076224Y-70794604D01*
X131077724Y-70741625D01*
X131079460Y-70698901D01*
X131081433Y-70667933D01*
X131083642Y-70650221D01*
X131084404Y-70647585D01*
X131094040Y-70632256D01*
X131112609Y-70609002D01*
X131137910Y-70580089D01*
X131167739Y-70547783D01*
X131199894Y-70514348D01*
X131232171Y-70482050D01*
X131262367Y-70453155D01*
X131288280Y-70429928D01*
X131307706Y-70414635D01*
X131315170Y-70410276D01*
X131331101Y-70406881D01*
X131359757Y-70404093D01*
X131398674Y-70401913D01*
X131445382Y-70400339D01*
X131497415Y-70399369D01*
X131552307Y-70399001D01*
X131607589Y-70399235D01*
X131660794Y-70400068D01*
X131709456Y-70401500D01*
X131751107Y-70403529D01*
X131783281Y-70406153D01*
X131803509Y-70409372D01*
X131807150Y-70410567D01*
X131817514Y-70418079D01*
X131837362Y-70435309D01*
X131865490Y-70461112D01*
X131900695Y-70494343D01*
X131941772Y-70533855D01*
X131987517Y-70578504D01*
X132036727Y-70627144D01*
X132075465Y-70665837D01*
X132319261Y-70910440D01*
X132361311Y-70910440D01*
X132403361Y-70910440D01*
X132515920Y-70797692D01*
X132628480Y-70684945D01*
X132616314Y-70655827D01*
X132605577Y-70613661D01*
X132604378Y-70565810D01*
X132612440Y-70518244D01*
X132624195Y-70486756D01*
X132655079Y-70438620D01*
X132696527Y-70395667D01*
X132743901Y-70362569D01*
X132751217Y-70358751D01*
X132800737Y-70342102D01*
X132854213Y-70337956D01*
X132906887Y-70346315D01*
X132939043Y-70358751D01*
X132983471Y-70387297D01*
X133023961Y-70425123D01*
X133055706Y-70467484D01*
X133063452Y-70481663D01*
X133073498Y-70505926D01*
X133079052Y-70531259D01*
X133081201Y-70563559D01*
X133081350Y-70578970D01*
X133077866Y-70628951D01*
X133066083Y-70670444D01*
X133044006Y-70708189D01*
X133011366Y-70745206D01*
X132964104Y-70783813D01*
X132917520Y-70806034D01*
X132917520Y-70578970D01*
X132914454Y-70544775D01*
X132903885Y-70522718D01*
X132883762Y-70510703D01*
X132852031Y-70506635D01*
X132846586Y-70506580D01*
X132820931Y-70508355D01*
X132800102Y-70512888D01*
X132792828Y-70516309D01*
X132779607Y-70534305D01*
X132772627Y-70560851D01*
X132771897Y-70590627D01*
X132777428Y-70618310D01*
X132789228Y-70638577D01*
X132792597Y-70641463D01*
X132812703Y-70649246D01*
X132840209Y-70651796D01*
X132868980Y-70649409D01*
X132892880Y-70642386D01*
X132902280Y-70636120D01*
X132912135Y-70621436D01*
X132916735Y-70599979D01*
X132917520Y-70578970D01*
X132917520Y-70806034D01*
X132913808Y-70807805D01*
X132864594Y-70817346D01*
X132822270Y-70820509D01*
X132666060Y-70975600D01*
X132625079Y-71015836D01*
X132586617Y-71052749D01*
X132552256Y-71084885D01*
X132523578Y-71110793D01*
X132502163Y-71129023D01*
X132489594Y-71138121D01*
X132488399Y-71138675D01*
X132469362Y-71142570D01*
X132439132Y-71145197D01*
X132401425Y-71146594D01*
X132359957Y-71146801D01*
X132318445Y-71145855D01*
X132280604Y-71143795D01*
X132250150Y-71140659D01*
X132230800Y-71136487D01*
X132229570Y-71135993D01*
X132219206Y-71128481D01*
X132199358Y-71111251D01*
X132171230Y-71085448D01*
X132136025Y-71052217D01*
X132094948Y-71012705D01*
X132049203Y-70968056D01*
X131999993Y-70919416D01*
X131961255Y-70880723D01*
X131717459Y-70636120D01*
X131564810Y-70636120D01*
X131412161Y-70636120D01*
X131360931Y-70687746D01*
X131309700Y-70739372D01*
X131309700Y-70912536D01*
X131309700Y-71085700D01*
X131460195Y-71085678D01*
X131610690Y-71085656D01*
X131625930Y-71062341D01*
X131645326Y-71039837D01*
X131673717Y-71015345D01*
X131706041Y-70992762D01*
X131737237Y-70975986D01*
X131739163Y-70975165D01*
X131778013Y-70965310D01*
X131823431Y-70963551D01*
X131869267Y-70969586D01*
X131909371Y-70983112D01*
X131910343Y-70983591D01*
X131954771Y-71012137D01*
X131995261Y-71049963D01*
X132027006Y-71092324D01*
X132034752Y-71106503D01*
X132048040Y-71146748D01*
X132053602Y-71193914D01*
X132051414Y-71242093D01*
X132041454Y-71285378D01*
X132035505Y-71299562D01*
X132012011Y-71336149D01*
X131979355Y-71372619D01*
X131942561Y-71403954D01*
X131912182Y-71422616D01*
X131888820Y-71430398D01*
X131888820Y-71203810D01*
X131885754Y-71169615D01*
X131875185Y-71147558D01*
X131855062Y-71135543D01*
X131823331Y-71131475D01*
X131817886Y-71131420D01*
X131792231Y-71133195D01*
X131771402Y-71137728D01*
X131764128Y-71141149D01*
X131750907Y-71159145D01*
X131743927Y-71185691D01*
X131743197Y-71215467D01*
X131748728Y-71243150D01*
X131760528Y-71263417D01*
X131763897Y-71266303D01*
X131784003Y-71274086D01*
X131811509Y-71276636D01*
X131840280Y-71274249D01*
X131864180Y-71267226D01*
X131873580Y-71260960D01*
X131883435Y-71246276D01*
X131888035Y-71224819D01*
X131888820Y-71203810D01*
X131888820Y-71430398D01*
X131869263Y-71436912D01*
X131820660Y-71442798D01*
X131773111Y-71439826D01*
X131747800Y-71433572D01*
X131712860Y-71417662D01*
X131677246Y-71394849D01*
X131646185Y-71368921D01*
X131625930Y-71345279D01*
X131610690Y-71321964D01*
X131460195Y-71321942D01*
X131309700Y-71321920D01*
X131309700Y-71522149D01*
X131309700Y-71722379D01*
X131361326Y-71773609D01*
X131412952Y-71824840D01*
X131565206Y-71824840D01*
X131717459Y-71824840D01*
X131961255Y-71580237D01*
X132012283Y-71529341D01*
X132060757Y-71481572D01*
X132105472Y-71438073D01*
X132145224Y-71399991D01*
X132178809Y-71368471D01*
X132205024Y-71344659D01*
X132222663Y-71329700D01*
X132229570Y-71324967D01*
X132249377Y-71320076D01*
X132280554Y-71316587D01*
X132319296Y-71314500D01*
X132361795Y-71313815D01*
X132404248Y-71314532D01*
X132442849Y-71316652D01*
X132473791Y-71320174D01*
X132492950Y-71324957D01*
X132504620Y-71333043D01*
X132525292Y-71350536D01*
X132553337Y-71375926D01*
X132587123Y-71407701D01*
X132625021Y-71444352D01*
X132665398Y-71484368D01*
X132669799Y-71488787D01*
X132822127Y-71641960D01*
X132860707Y-71641960D01*
X132905054Y-71648929D01*
X132950370Y-71668360D01*
X132993514Y-71698042D01*
X133031342Y-71735763D01*
X133060713Y-71779309D01*
X133063452Y-71784683D01*
X133076740Y-71824928D01*
X133082302Y-71872094D01*
X133082302Y-71872094D01*
G36*
X127874319Y-71210469D02*
X127874196Y-71291315D01*
X127873828Y-71370484D01*
X127873215Y-71446439D01*
X127872356Y-71517645D01*
X127871251Y-71582565D01*
X127869900Y-71639665D01*
X127868301Y-71687407D01*
X127866455Y-71724258D01*
X127864361Y-71748680D01*
X127862436Y-71758410D01*
X127853077Y-71772554D01*
X127834708Y-71794533D01*
X127809511Y-71822183D01*
X127779672Y-71853335D01*
X127747374Y-71885824D01*
X127714802Y-71917484D01*
X127684138Y-71946148D01*
X127657568Y-71969650D01*
X127637274Y-71985824D01*
X127636860Y-71986073D01*
X127636860Y-71669070D01*
X127636860Y-71204221D01*
X127636860Y-70739372D01*
X127585629Y-70687746D01*
X127534399Y-70636120D01*
X127355316Y-70636120D01*
X127176232Y-70636120D01*
X127124606Y-70687351D01*
X127100714Y-70711358D01*
X127085636Y-70728321D01*
X127077344Y-70741906D01*
X127073812Y-70755780D01*
X127073012Y-70773609D01*
X127073002Y-70780696D01*
X127073817Y-70805693D01*
X127077666Y-70820776D01*
X127086707Y-70831243D01*
X127096339Y-70838050D01*
X127121007Y-70859443D01*
X127146443Y-70890045D01*
X127168743Y-70924561D01*
X127183520Y-70956302D01*
X127194400Y-71009092D01*
X127191596Y-71063326D01*
X127176045Y-71116152D01*
X127148684Y-71164717D01*
X127110449Y-71206166D01*
X127098291Y-71215835D01*
X127073400Y-71234290D01*
X127073190Y-71447459D01*
X127072980Y-71660627D01*
X127124211Y-71712254D01*
X127175441Y-71763880D01*
X127358321Y-71763880D01*
X127541200Y-71763880D01*
X127589030Y-71716475D01*
X127636860Y-71669070D01*
X127636860Y-71986073D01*
X127626839Y-71992102D01*
X127611810Y-71994766D01*
X127583967Y-71996904D01*
X127545595Y-71998531D01*
X127498978Y-71999660D01*
X127446400Y-72000304D01*
X127390144Y-72000478D01*
X127332497Y-72000195D01*
X127275740Y-71999470D01*
X127222160Y-71998314D01*
X127174039Y-71996743D01*
X127133663Y-71994770D01*
X127103314Y-71992409D01*
X127085279Y-71989672D01*
X127082748Y-71988842D01*
X127067702Y-71979161D01*
X127044750Y-71960578D01*
X127027260Y-71945121D01*
X127027260Y-71028550D01*
X127024193Y-70994355D01*
X127013625Y-70972298D01*
X126993502Y-70960283D01*
X126961771Y-70956215D01*
X126956326Y-70956160D01*
X126930671Y-70957935D01*
X126909842Y-70962468D01*
X126902568Y-70965889D01*
X126889347Y-70983885D01*
X126882367Y-71010431D01*
X126881637Y-71040207D01*
X126887168Y-71067890D01*
X126898968Y-71088157D01*
X126902338Y-71091043D01*
X126922443Y-71098826D01*
X126949949Y-71101376D01*
X126978720Y-71098989D01*
X127002620Y-71091966D01*
X127012020Y-71085700D01*
X127021875Y-71071016D01*
X127026475Y-71049559D01*
X127027260Y-71028550D01*
X127027260Y-71945121D01*
X127016142Y-71935295D01*
X126984127Y-71905509D01*
X126950953Y-71873423D01*
X126918872Y-71841234D01*
X126890131Y-71811144D01*
X126866980Y-71785352D01*
X126851669Y-71766058D01*
X126847136Y-71758410D01*
X126844109Y-71747799D01*
X126841687Y-71730833D01*
X126839815Y-71706081D01*
X126838439Y-71672113D01*
X126837505Y-71627498D01*
X126836958Y-71570806D01*
X126836746Y-71500605D01*
X126836738Y-71484090D01*
X126836716Y-71234290D01*
X126813401Y-71219050D01*
X126790613Y-71199392D01*
X126765932Y-71170643D01*
X126743210Y-71137828D01*
X126726296Y-71105972D01*
X126725749Y-71104678D01*
X126717498Y-71072773D01*
X126714355Y-71033296D01*
X126716317Y-70993035D01*
X126723386Y-70958775D01*
X126725749Y-70952422D01*
X126742320Y-70920723D01*
X126764869Y-70887845D01*
X126789544Y-70858813D01*
X126812496Y-70838652D01*
X126813401Y-70838050D01*
X126836716Y-70822810D01*
X126836738Y-70749011D01*
X126837565Y-70714419D01*
X126839761Y-70683387D01*
X126842935Y-70660589D01*
X126844756Y-70653761D01*
X126853218Y-70640425D01*
X126870811Y-70618949D01*
X126895415Y-70591473D01*
X126924908Y-70560132D01*
X126957168Y-70527067D01*
X126990076Y-70494414D01*
X127021508Y-70464312D01*
X127049344Y-70438899D01*
X127071462Y-70420313D01*
X127085742Y-70410692D01*
X127086070Y-70410545D01*
X127101337Y-70407317D01*
X127129520Y-70404613D01*
X127168305Y-70402434D01*
X127215377Y-70400782D01*
X127268421Y-70399656D01*
X127325123Y-70399059D01*
X127383167Y-70398991D01*
X127440240Y-70399454D01*
X127494026Y-70400448D01*
X127542210Y-70401976D01*
X127582479Y-70404038D01*
X127612517Y-70406635D01*
X127630009Y-70409768D01*
X127631390Y-70410276D01*
X127646011Y-70419892D01*
X127668405Y-70438763D01*
X127696368Y-70464624D01*
X127727698Y-70495211D01*
X127760192Y-70528257D01*
X127791646Y-70561498D01*
X127819858Y-70592667D01*
X127842625Y-70619499D01*
X127857743Y-70639729D01*
X127862156Y-70647585D01*
X127864462Y-70660744D01*
X127866527Y-70687583D01*
X127868350Y-70726565D01*
X127869931Y-70776156D01*
X127871271Y-70834819D01*
X127872367Y-70901019D01*
X127873221Y-70973219D01*
X127873831Y-71049885D01*
X127874197Y-71129480D01*
X127874319Y-71210469D01*
X127874319Y-71210469D01*
X127874319Y-71210469D01*
G37*
X127874319Y-71210469D02*
X127874196Y-71291315D01*
X127873828Y-71370484D01*
X127873215Y-71446439D01*
X127872356Y-71517645D01*
X127871251Y-71582565D01*
X127869900Y-71639665D01*
X127868301Y-71687407D01*
X127866455Y-71724258D01*
X127864361Y-71748680D01*
X127862436Y-71758410D01*
X127853077Y-71772554D01*
X127834708Y-71794533D01*
X127809511Y-71822183D01*
X127779672Y-71853335D01*
X127747374Y-71885824D01*
X127714802Y-71917484D01*
X127684138Y-71946148D01*
X127657568Y-71969650D01*
X127637274Y-71985824D01*
X127636860Y-71986073D01*
X127636860Y-71669070D01*
X127636860Y-71204221D01*
X127636860Y-70739372D01*
X127585629Y-70687746D01*
X127534399Y-70636120D01*
X127355316Y-70636120D01*
X127176232Y-70636120D01*
X127124606Y-70687351D01*
X127100714Y-70711358D01*
X127085636Y-70728321D01*
X127077344Y-70741906D01*
X127073812Y-70755780D01*
X127073012Y-70773609D01*
X127073002Y-70780696D01*
X127073817Y-70805693D01*
X127077666Y-70820776D01*
X127086707Y-70831243D01*
X127096339Y-70838050D01*
X127121007Y-70859443D01*
X127146443Y-70890045D01*
X127168743Y-70924561D01*
X127183520Y-70956302D01*
X127194400Y-71009092D01*
X127191596Y-71063326D01*
X127176045Y-71116152D01*
X127148684Y-71164717D01*
X127110449Y-71206166D01*
X127098291Y-71215835D01*
X127073400Y-71234290D01*
X127073190Y-71447459D01*
X127072980Y-71660627D01*
X127124211Y-71712254D01*
X127175441Y-71763880D01*
X127358321Y-71763880D01*
X127541200Y-71763880D01*
X127589030Y-71716475D01*
X127636860Y-71669070D01*
X127636860Y-71986073D01*
X127626839Y-71992102D01*
X127611810Y-71994766D01*
X127583967Y-71996904D01*
X127545595Y-71998531D01*
X127498978Y-71999660D01*
X127446400Y-72000304D01*
X127390144Y-72000478D01*
X127332497Y-72000195D01*
X127275740Y-71999470D01*
X127222160Y-71998314D01*
X127174039Y-71996743D01*
X127133663Y-71994770D01*
X127103314Y-71992409D01*
X127085279Y-71989672D01*
X127082748Y-71988842D01*
X127067702Y-71979161D01*
X127044750Y-71960578D01*
X127027260Y-71945121D01*
X127027260Y-71028550D01*
X127024193Y-70994355D01*
X127013625Y-70972298D01*
X126993502Y-70960283D01*
X126961771Y-70956215D01*
X126956326Y-70956160D01*
X126930671Y-70957935D01*
X126909842Y-70962468D01*
X126902568Y-70965889D01*
X126889347Y-70983885D01*
X126882367Y-71010431D01*
X126881637Y-71040207D01*
X126887168Y-71067890D01*
X126898968Y-71088157D01*
X126902338Y-71091043D01*
X126922443Y-71098826D01*
X126949949Y-71101376D01*
X126978720Y-71098989D01*
X127002620Y-71091966D01*
X127012020Y-71085700D01*
X127021875Y-71071016D01*
X127026475Y-71049559D01*
X127027260Y-71028550D01*
X127027260Y-71945121D01*
X127016142Y-71935295D01*
X126984127Y-71905509D01*
X126950953Y-71873423D01*
X126918872Y-71841234D01*
X126890131Y-71811144D01*
X126866980Y-71785352D01*
X126851669Y-71766058D01*
X126847136Y-71758410D01*
X126844109Y-71747799D01*
X126841687Y-71730833D01*
X126839815Y-71706081D01*
X126838439Y-71672113D01*
X126837505Y-71627498D01*
X126836958Y-71570806D01*
X126836746Y-71500605D01*
X126836738Y-71484090D01*
X126836716Y-71234290D01*
X126813401Y-71219050D01*
X126790613Y-71199392D01*
X126765932Y-71170643D01*
X126743210Y-71137828D01*
X126726296Y-71105972D01*
X126725749Y-71104678D01*
X126717498Y-71072773D01*
X126714355Y-71033296D01*
X126716317Y-70993035D01*
X126723386Y-70958775D01*
X126725749Y-70952422D01*
X126742320Y-70920723D01*
X126764869Y-70887845D01*
X126789544Y-70858813D01*
X126812496Y-70838652D01*
X126813401Y-70838050D01*
X126836716Y-70822810D01*
X126836738Y-70749011D01*
X126837565Y-70714419D01*
X126839761Y-70683387D01*
X126842935Y-70660589D01*
X126844756Y-70653761D01*
X126853218Y-70640425D01*
X126870811Y-70618949D01*
X126895415Y-70591473D01*
X126924908Y-70560132D01*
X126957168Y-70527067D01*
X126990076Y-70494414D01*
X127021508Y-70464312D01*
X127049344Y-70438899D01*
X127071462Y-70420313D01*
X127085742Y-70410692D01*
X127086070Y-70410545D01*
X127101337Y-70407317D01*
X127129520Y-70404613D01*
X127168305Y-70402434D01*
X127215377Y-70400782D01*
X127268421Y-70399656D01*
X127325123Y-70399059D01*
X127383167Y-70398991D01*
X127440240Y-70399454D01*
X127494026Y-70400448D01*
X127542210Y-70401976D01*
X127582479Y-70404038D01*
X127612517Y-70406635D01*
X127630009Y-70409768D01*
X127631390Y-70410276D01*
X127646011Y-70419892D01*
X127668405Y-70438763D01*
X127696368Y-70464624D01*
X127727698Y-70495211D01*
X127760192Y-70528257D01*
X127791646Y-70561498D01*
X127819858Y-70592667D01*
X127842625Y-70619499D01*
X127857743Y-70639729D01*
X127862156Y-70647585D01*
X127864462Y-70660744D01*
X127866527Y-70687583D01*
X127868350Y-70726565D01*
X127869931Y-70776156D01*
X127871271Y-70834819D01*
X127872367Y-70901019D01*
X127873221Y-70973219D01*
X127873831Y-71049885D01*
X127874197Y-71129480D01*
X127874319Y-71210469D01*
X127874319Y-71210469D01*
G36*
X129022973Y-70522916D02*
X129015647Y-70576002D01*
X128994880Y-70627066D01*
X128976533Y-70654862D01*
X128956762Y-70677796D01*
X128935316Y-70698611D01*
X128927091Y-70705295D01*
X128902200Y-70723750D01*
X128901990Y-71137135D01*
X128901780Y-71550520D01*
X128856060Y-71550520D01*
X128856060Y-70518010D01*
X128852993Y-70483815D01*
X128842425Y-70461758D01*
X128822302Y-70449743D01*
X128790571Y-70445675D01*
X128785126Y-70445620D01*
X128759471Y-70447395D01*
X128738642Y-70451928D01*
X128731368Y-70455349D01*
X128718147Y-70473345D01*
X128711167Y-70499891D01*
X128710437Y-70529667D01*
X128715968Y-70557350D01*
X128727768Y-70577617D01*
X128731138Y-70580503D01*
X128751243Y-70588286D01*
X128778749Y-70590836D01*
X128807520Y-70588449D01*
X128831420Y-70581426D01*
X128840820Y-70575160D01*
X128850675Y-70560476D01*
X128855275Y-70539019D01*
X128856060Y-70518010D01*
X128856060Y-71550520D01*
X128783670Y-71550520D01*
X128665560Y-71550520D01*
X128665538Y-71137135D01*
X128665516Y-70723750D01*
X128642201Y-70708510D01*
X128619413Y-70688852D01*
X128594732Y-70660103D01*
X128572010Y-70627288D01*
X128555096Y-70595432D01*
X128554549Y-70594138D01*
X128544092Y-70552865D01*
X128542886Y-70505699D01*
X128550640Y-70458625D01*
X128562735Y-70425796D01*
X128593619Y-70377660D01*
X128635067Y-70334707D01*
X128682441Y-70301609D01*
X128689757Y-70297791D01*
X128739277Y-70281142D01*
X128792753Y-70276996D01*
X128845427Y-70285355D01*
X128877583Y-70297791D01*
X128929067Y-70330713D01*
X128969907Y-70371705D01*
X128999544Y-70418748D01*
X129017419Y-70469825D01*
X129022973Y-70522916D01*
X129022973Y-70522916D01*
X129022973Y-70522916D01*
G37*
X129022973Y-70522916D02*
X129015647Y-70576002D01*
X128994880Y-70627066D01*
X128976533Y-70654862D01*
X128956762Y-70677796D01*
X128935316Y-70698611D01*
X128927091Y-70705295D01*
X128902200Y-70723750D01*
X128901990Y-71137135D01*
X128901780Y-71550520D01*
X128856060Y-71550520D01*
X128856060Y-70518010D01*
X128852993Y-70483815D01*
X128842425Y-70461758D01*
X128822302Y-70449743D01*
X128790571Y-70445675D01*
X128785126Y-70445620D01*
X128759471Y-70447395D01*
X128738642Y-70451928D01*
X128731368Y-70455349D01*
X128718147Y-70473345D01*
X128711167Y-70499891D01*
X128710437Y-70529667D01*
X128715968Y-70557350D01*
X128727768Y-70577617D01*
X128731138Y-70580503D01*
X128751243Y-70588286D01*
X128778749Y-70590836D01*
X128807520Y-70588449D01*
X128831420Y-70581426D01*
X128840820Y-70575160D01*
X128850675Y-70560476D01*
X128855275Y-70539019D01*
X128856060Y-70518010D01*
X128856060Y-71550520D01*
X128783670Y-71550520D01*
X128665560Y-71550520D01*
X128665538Y-71137135D01*
X128665516Y-70723750D01*
X128642201Y-70708510D01*
X128619413Y-70688852D01*
X128594732Y-70660103D01*
X128572010Y-70627288D01*
X128555096Y-70595432D01*
X128554549Y-70594138D01*
X128544092Y-70552865D01*
X128542886Y-70505699D01*
X128550640Y-70458625D01*
X128562735Y-70425796D01*
X128593619Y-70377660D01*
X128635067Y-70334707D01*
X128682441Y-70301609D01*
X128689757Y-70297791D01*
X128739277Y-70281142D01*
X128792753Y-70276996D01*
X128845427Y-70285355D01*
X128877583Y-70297791D01*
X128929067Y-70330713D01*
X128969907Y-70371705D01*
X128999544Y-70418748D01*
X129017419Y-70469825D01*
X129022973Y-70522916D01*
X129022973Y-70522916D01*
D13*
X132309286Y-119765476D02*
X132309286Y-119342143D01*
X132974524Y-119160714D02*
X132974524Y-119765476D01*
X131704524Y-119765476D01*
X131704524Y-119160714D01*
X131704524Y-118737380D02*
X132974524Y-117890714D01*
X131704524Y-117890714D02*
X132974524Y-118737380D01*
X131704524Y-117588333D02*
X131704524Y-116862618D01*
X132974524Y-117225475D02*
X131704524Y-117225475D01*
X131825476Y-116499761D02*
X131765000Y-116439285D01*
X131704524Y-116318333D01*
X131704524Y-116015952D01*
X131765000Y-115894999D01*
X131825476Y-115834523D01*
X131946429Y-115774047D01*
X132067381Y-115774047D01*
X132248810Y-115834523D01*
X132974524Y-116560237D01*
X132974524Y-115774047D01*
X162608381Y-113725476D02*
X162668857Y-113665000D01*
X162789809Y-113604524D01*
X163092190Y-113604524D01*
X163213143Y-113665000D01*
X163273619Y-113725476D01*
X163334095Y-113846429D01*
X163334095Y-113967381D01*
X163273619Y-114148810D01*
X162547905Y-114874524D01*
X163334095Y-114874524D01*
X164120286Y-113604524D02*
X164241238Y-113604524D01*
X164362190Y-113665000D01*
X164422667Y-113725476D01*
X164483143Y-113846429D01*
X164543619Y-114088333D01*
X164543619Y-114390714D01*
X164483143Y-114632619D01*
X164422667Y-114753571D01*
X164362190Y-114814048D01*
X164241238Y-114874524D01*
X164120286Y-114874524D01*
X163999333Y-114814048D01*
X163938857Y-114753571D01*
X163878381Y-114632619D01*
X163817905Y-114390714D01*
X163817905Y-114088333D01*
X163878381Y-113846429D01*
X163938857Y-113725476D01*
X163999333Y-113665000D01*
X164120286Y-113604524D01*
X163334095Y-117414524D02*
X162608381Y-117414524D01*
X162971238Y-117414524D02*
X162971238Y-116144524D01*
X162850286Y-116325952D01*
X162729333Y-116446905D01*
X162608381Y-116507381D01*
X163938857Y-117414524D02*
X164180762Y-117414524D01*
X164301714Y-117354048D01*
X164362190Y-117293571D01*
X164483143Y-117112143D01*
X164543619Y-116870238D01*
X164543619Y-116386429D01*
X164483143Y-116265476D01*
X164422667Y-116205000D01*
X164301714Y-116144524D01*
X164059810Y-116144524D01*
X163938857Y-116205000D01*
X163878381Y-116265476D01*
X163817905Y-116386429D01*
X163817905Y-116688810D01*
X163878381Y-116809762D01*
X163938857Y-116870238D01*
X164059810Y-116930714D01*
X164301714Y-116930714D01*
X164422667Y-116870238D01*
X164483143Y-116809762D01*
X164543619Y-116688810D01*
X135527143Y-113725476D02*
X135587619Y-113665000D01*
X135708571Y-113604524D01*
X136010952Y-113604524D01*
X136131905Y-113665000D01*
X136192381Y-113725476D01*
X136252857Y-113846429D01*
X136252857Y-113967381D01*
X136192381Y-114148810D01*
X135466667Y-114874524D01*
X136252857Y-114874524D01*
X136252857Y-117414524D02*
X135527143Y-117414524D01*
X135890000Y-117414524D02*
X135890000Y-116144524D01*
X135769048Y-116325952D01*
X135648095Y-116446905D01*
X135527143Y-116507381D01*
X148892381Y-118424476D02*
X148952857Y-118364000D01*
X149073809Y-118303524D01*
X149376190Y-118303524D01*
X149497143Y-118364000D01*
X149557619Y-118424476D01*
X149618095Y-118545429D01*
X149618095Y-118666381D01*
X149557619Y-118847810D01*
X148831905Y-119573524D01*
X149618095Y-119573524D01*
X150404286Y-118303524D02*
X150525238Y-118303524D01*
X150646190Y-118364000D01*
X150706667Y-118424476D01*
X150767143Y-118545429D01*
X150827619Y-118787333D01*
X150827619Y-119089714D01*
X150767143Y-119331619D01*
X150706667Y-119452571D01*
X150646190Y-119513048D01*
X150525238Y-119573524D01*
X150404286Y-119573524D01*
X150283333Y-119513048D01*
X150222857Y-119452571D01*
X150162381Y-119331619D01*
X150101905Y-119089714D01*
X150101905Y-118787333D01*
X150162381Y-118545429D01*
X150222857Y-118424476D01*
X150283333Y-118364000D01*
X150404286Y-118303524D01*
X138332381Y-108904524D02*
X138332381Y-109932619D01*
X138392857Y-110053571D01*
X138453333Y-110114048D01*
X138574286Y-110174524D01*
X138816190Y-110174524D01*
X138937143Y-110114048D01*
X138997619Y-110053571D01*
X139058095Y-109932619D01*
X139058095Y-108904524D01*
X139602381Y-109025476D02*
X139662857Y-108965000D01*
X139783809Y-108904524D01*
X140086190Y-108904524D01*
X140207143Y-108965000D01*
X140267619Y-109025476D01*
X140328095Y-109146429D01*
X140328095Y-109267381D01*
X140267619Y-109448810D01*
X139541905Y-110174524D01*
X140328095Y-110174524D01*
D20*
X144581905Y-103274762D02*
X144724762Y-103322381D01*
X144962858Y-103322381D01*
X145058096Y-103274762D01*
X145105715Y-103227143D01*
X145153334Y-103131905D01*
X145153334Y-103036667D01*
X145105715Y-102941429D01*
X145058096Y-102893810D01*
X144962858Y-102846190D01*
X144772381Y-102798571D01*
X144677143Y-102750952D01*
X144629524Y-102703333D01*
X144581905Y-102608095D01*
X144581905Y-102512857D01*
X144629524Y-102417619D01*
X144677143Y-102370000D01*
X144772381Y-102322381D01*
X145010477Y-102322381D01*
X145153334Y-102370000D01*
X145534286Y-103274762D02*
X145677143Y-103322381D01*
X145915239Y-103322381D01*
X146010477Y-103274762D01*
X146058096Y-103227143D01*
X146105715Y-103131905D01*
X146105715Y-103036667D01*
X146058096Y-102941429D01*
X146010477Y-102893810D01*
X145915239Y-102846190D01*
X145724762Y-102798571D01*
X145629524Y-102750952D01*
X145581905Y-102703333D01*
X145534286Y-102608095D01*
X145534286Y-102512857D01*
X145581905Y-102417619D01*
X145629524Y-102370000D01*
X145724762Y-102322381D01*
X145962858Y-102322381D01*
X146105715Y-102370000D01*
X146724762Y-102322381D02*
X146915239Y-102322381D01*
X147010477Y-102370000D01*
X147105715Y-102465238D01*
X147153334Y-102655714D01*
X147153334Y-102989048D01*
X147105715Y-103179524D01*
X147010477Y-103274762D01*
X146915239Y-103322381D01*
X146724762Y-103322381D01*
X146629524Y-103274762D01*
X146534286Y-103179524D01*
X146486667Y-102989048D01*
X146486667Y-102655714D01*
X146534286Y-102465238D01*
X146629524Y-102370000D01*
X146724762Y-102322381D01*
X147581905Y-103322381D02*
X147581905Y-102322381D01*
X147962858Y-102322381D01*
X148058096Y-102370000D01*
X148105715Y-102417619D01*
X148153334Y-102512857D01*
X148153334Y-102655714D01*
X148105715Y-102750952D01*
X148058096Y-102798571D01*
X147962858Y-102846190D01*
X147581905Y-102846190D01*
X149010477Y-102655714D02*
X149010477Y-103322381D01*
X148772381Y-102274762D02*
X148534286Y-102989048D01*
X149153334Y-102989048D01*
X149677143Y-102750952D02*
X149581905Y-102703333D01*
X149534286Y-102655714D01*
X149486667Y-102560476D01*
X149486667Y-102512857D01*
X149534286Y-102417619D01*
X149581905Y-102370000D01*
X149677143Y-102322381D01*
X149867620Y-102322381D01*
X149962858Y-102370000D01*
X150010477Y-102417619D01*
X150058096Y-102512857D01*
X150058096Y-102560476D01*
X150010477Y-102655714D01*
X149962858Y-102703333D01*
X149867620Y-102750952D01*
X149677143Y-102750952D01*
X149581905Y-102798571D01*
X149534286Y-102846190D01*
X149486667Y-102941429D01*
X149486667Y-103131905D01*
X149534286Y-103227143D01*
X149581905Y-103274762D01*
X149677143Y-103322381D01*
X149867620Y-103322381D01*
X149962858Y-103274762D01*
X150010477Y-103227143D01*
X150058096Y-103131905D01*
X150058096Y-102941429D01*
X150010477Y-102846190D01*
X149962858Y-102798571D01*
X149867620Y-102750952D01*
D11*
X132951834Y-87617500D02*
X132909500Y-87659833D01*
X132782500Y-87702167D01*
X132697834Y-87702167D01*
X132570834Y-87659833D01*
X132486167Y-87575167D01*
X132443834Y-87490500D01*
X132401500Y-87321167D01*
X132401500Y-87194167D01*
X132443834Y-87024833D01*
X132486167Y-86940167D01*
X132570834Y-86855500D01*
X132697834Y-86813167D01*
X132782500Y-86813167D01*
X132909500Y-86855500D01*
X132951834Y-86897833D01*
X133798500Y-87702167D02*
X133290500Y-87702167D01*
X133544500Y-87702167D02*
X133544500Y-86813167D01*
X133459834Y-86940167D01*
X133375167Y-87024833D01*
X133290500Y-87067167D01*
X142028500Y-93717500D02*
X141986166Y-93759833D01*
X141859166Y-93802167D01*
X141774500Y-93802167D01*
X141647500Y-93759833D01*
X141562833Y-93675167D01*
X141520500Y-93590500D01*
X141478166Y-93421167D01*
X141478166Y-93294167D01*
X141520500Y-93124833D01*
X141562833Y-93040167D01*
X141647500Y-92955500D01*
X141774500Y-92913167D01*
X141859166Y-92913167D01*
X141986166Y-92955500D01*
X142028500Y-92997833D01*
X142875166Y-93802167D02*
X142367166Y-93802167D01*
X142621166Y-93802167D02*
X142621166Y-92913167D01*
X142536500Y-93040167D01*
X142451833Y-93124833D01*
X142367166Y-93167167D01*
X143213833Y-92997833D02*
X143256167Y-92955500D01*
X143340833Y-92913167D01*
X143552500Y-92913167D01*
X143637167Y-92955500D01*
X143679500Y-92997833D01*
X143721833Y-93082500D01*
X143721833Y-93167167D01*
X143679500Y-93294167D01*
X143171500Y-93802167D01*
X143721833Y-93802167D01*
X153328500Y-93717500D02*
X153286166Y-93759833D01*
X153159166Y-93802167D01*
X153074500Y-93802167D01*
X152947500Y-93759833D01*
X152862833Y-93675167D01*
X152820500Y-93590500D01*
X152778166Y-93421167D01*
X152778166Y-93294167D01*
X152820500Y-93124833D01*
X152862833Y-93040167D01*
X152947500Y-92955500D01*
X153074500Y-92913167D01*
X153159166Y-92913167D01*
X153286166Y-92955500D01*
X153328500Y-92997833D01*
X154175166Y-93802167D02*
X153667166Y-93802167D01*
X153921166Y-93802167D02*
X153921166Y-92913167D01*
X153836500Y-93040167D01*
X153751833Y-93124833D01*
X153667166Y-93167167D01*
X154471500Y-92913167D02*
X155021833Y-92913167D01*
X154725500Y-93251833D01*
X154852500Y-93251833D01*
X154937167Y-93294167D01*
X154979500Y-93336500D01*
X155021833Y-93421167D01*
X155021833Y-93632833D01*
X154979500Y-93717500D01*
X154937167Y-93759833D01*
X154852500Y-93802167D01*
X154598500Y-93802167D01*
X154513833Y-93759833D01*
X154471500Y-93717500D01*
X142028500Y-96817500D02*
X141986166Y-96859833D01*
X141859166Y-96902167D01*
X141774500Y-96902167D01*
X141647500Y-96859833D01*
X141562833Y-96775167D01*
X141520500Y-96690500D01*
X141478166Y-96521167D01*
X141478166Y-96394167D01*
X141520500Y-96224833D01*
X141562833Y-96140167D01*
X141647500Y-96055500D01*
X141774500Y-96013167D01*
X141859166Y-96013167D01*
X141986166Y-96055500D01*
X142028500Y-96097833D01*
X142875166Y-96902167D02*
X142367166Y-96902167D01*
X142621166Y-96902167D02*
X142621166Y-96013167D01*
X142536500Y-96140167D01*
X142451833Y-96224833D01*
X142367166Y-96267167D01*
X143679500Y-96013167D02*
X143256167Y-96013167D01*
X143213833Y-96436500D01*
X143256167Y-96394167D01*
X143340833Y-96351833D01*
X143552500Y-96351833D01*
X143637167Y-96394167D01*
X143679500Y-96436500D01*
X143721833Y-96521167D01*
X143721833Y-96732833D01*
X143679500Y-96817500D01*
X143637167Y-96859833D01*
X143552500Y-96902167D01*
X143340833Y-96902167D01*
X143256167Y-96859833D01*
X143213833Y-96817500D01*
X156602167Y-96048166D02*
X156178833Y-96344500D01*
X156602167Y-96556166D02*
X155713167Y-96556166D01*
X155713167Y-96217500D01*
X155755500Y-96132833D01*
X155797833Y-96090500D01*
X155882500Y-96048166D01*
X156009500Y-96048166D01*
X156094167Y-96090500D01*
X156136500Y-96132833D01*
X156178833Y-96217500D01*
X156178833Y-96556166D01*
X156602167Y-95201500D02*
X156602167Y-95709500D01*
X156602167Y-95455500D02*
X155713167Y-95455500D01*
X155840167Y-95540166D01*
X155924833Y-95624833D01*
X155967167Y-95709500D01*
X156602167Y-93448166D02*
X156178833Y-93744500D01*
X156602167Y-93956166D02*
X155713167Y-93956166D01*
X155713167Y-93617500D01*
X155755500Y-93532833D01*
X155797833Y-93490500D01*
X155882500Y-93448166D01*
X156009500Y-93448166D01*
X156094167Y-93490500D01*
X156136500Y-93532833D01*
X156178833Y-93617500D01*
X156178833Y-93956166D01*
X155797833Y-93109500D02*
X155755500Y-93067166D01*
X155713167Y-92982500D01*
X155713167Y-92770833D01*
X155755500Y-92686166D01*
X155797833Y-92643833D01*
X155882500Y-92601500D01*
X155967167Y-92601500D01*
X156094167Y-92643833D01*
X156602167Y-93151833D01*
X156602167Y-92601500D01*
X156702167Y-98548166D02*
X156278833Y-98844500D01*
X156702167Y-99056166D02*
X155813167Y-99056166D01*
X155813167Y-98717500D01*
X155855500Y-98632833D01*
X155897833Y-98590500D01*
X155982500Y-98548166D01*
X156109500Y-98548166D01*
X156194167Y-98590500D01*
X156236500Y-98632833D01*
X156278833Y-98717500D01*
X156278833Y-99056166D01*
X155813167Y-98251833D02*
X155813167Y-97701500D01*
X156151833Y-97997833D01*
X156151833Y-97870833D01*
X156194167Y-97786166D01*
X156236500Y-97743833D01*
X156321167Y-97701500D01*
X156532833Y-97701500D01*
X156617500Y-97743833D01*
X156659833Y-97786166D01*
X156702167Y-97870833D01*
X156702167Y-98124833D01*
X156659833Y-98209500D01*
X156617500Y-98251833D01*
X156702167Y-101148166D02*
X156278833Y-101444500D01*
X156702167Y-101656166D02*
X155813167Y-101656166D01*
X155813167Y-101317500D01*
X155855500Y-101232833D01*
X155897833Y-101190500D01*
X155982500Y-101148166D01*
X156109500Y-101148166D01*
X156194167Y-101190500D01*
X156236500Y-101232833D01*
X156278833Y-101317500D01*
X156278833Y-101656166D01*
X156109500Y-100386166D02*
X156702167Y-100386166D01*
X155770833Y-100597833D02*
X156405833Y-100809500D01*
X156405833Y-100259166D01*
D21*
X136187262Y-79105833D02*
X135884881Y-79317500D01*
X136187262Y-79468691D02*
X135552262Y-79468691D01*
X135552262Y-79226786D01*
X135582500Y-79166310D01*
X135612738Y-79136071D01*
X135673214Y-79105833D01*
X135763929Y-79105833D01*
X135824405Y-79136071D01*
X135854643Y-79166310D01*
X135884881Y-79226786D01*
X135884881Y-79468691D01*
X135552262Y-78531310D02*
X135552262Y-78833691D01*
X135854643Y-78863929D01*
X135824405Y-78833691D01*
X135794167Y-78773214D01*
X135794167Y-78622024D01*
X135824405Y-78561548D01*
X135854643Y-78531310D01*
X135915119Y-78501071D01*
X136066310Y-78501071D01*
X136126786Y-78531310D01*
X136157024Y-78561548D01*
X136187262Y-78622024D01*
X136187262Y-78773214D01*
X136157024Y-78833691D01*
X136126786Y-78863929D01*
X135694167Y-80787262D02*
X135482500Y-80484881D01*
X135331309Y-80787262D02*
X135331309Y-80152262D01*
X135573214Y-80152262D01*
X135633690Y-80182500D01*
X135663929Y-80212738D01*
X135694167Y-80273214D01*
X135694167Y-80363929D01*
X135663929Y-80424405D01*
X135633690Y-80454643D01*
X135573214Y-80484881D01*
X135331309Y-80484881D01*
X136238452Y-80152262D02*
X136117500Y-80152262D01*
X136057024Y-80182500D01*
X136026786Y-80212738D01*
X135966309Y-80303452D01*
X135936071Y-80424405D01*
X135936071Y-80666310D01*
X135966309Y-80726786D01*
X135996548Y-80757024D01*
X136057024Y-80787262D01*
X136177976Y-80787262D01*
X136238452Y-80757024D01*
X136268690Y-80726786D01*
X136298929Y-80666310D01*
X136298929Y-80515119D01*
X136268690Y-80454643D01*
X136238452Y-80424405D01*
X136177976Y-80394167D01*
X136057024Y-80394167D01*
X135996548Y-80424405D01*
X135966309Y-80454643D01*
X135936071Y-80515119D01*
X140194167Y-80187262D02*
X139982500Y-79884881D01*
X139831309Y-80187262D02*
X139831309Y-79552262D01*
X140073214Y-79552262D01*
X140133690Y-79582500D01*
X140163929Y-79612738D01*
X140194167Y-79673214D01*
X140194167Y-79763929D01*
X140163929Y-79824405D01*
X140133690Y-79854643D01*
X140073214Y-79884881D01*
X139831309Y-79884881D01*
X140405833Y-79552262D02*
X140829167Y-79552262D01*
X140557024Y-80187262D01*
D11*
X136851834Y-106302167D02*
X136555500Y-105878833D01*
X136343834Y-106302167D02*
X136343834Y-105413167D01*
X136682500Y-105413167D01*
X136767167Y-105455500D01*
X136809500Y-105497833D01*
X136851834Y-105582500D01*
X136851834Y-105709500D01*
X136809500Y-105794167D01*
X136767167Y-105836500D01*
X136682500Y-105878833D01*
X136343834Y-105878833D01*
X137359834Y-105794167D02*
X137275167Y-105751833D01*
X137232834Y-105709500D01*
X137190500Y-105624833D01*
X137190500Y-105582500D01*
X137232834Y-105497833D01*
X137275167Y-105455500D01*
X137359834Y-105413167D01*
X137529167Y-105413167D01*
X137613834Y-105455500D01*
X137656167Y-105497833D01*
X137698500Y-105582500D01*
X137698500Y-105624833D01*
X137656167Y-105709500D01*
X137613834Y-105751833D01*
X137529167Y-105794167D01*
X137359834Y-105794167D01*
X137275167Y-105836500D01*
X137232834Y-105878833D01*
X137190500Y-105963500D01*
X137190500Y-106132833D01*
X137232834Y-106217500D01*
X137275167Y-106259833D01*
X137359834Y-106302167D01*
X137529167Y-106302167D01*
X137613834Y-106259833D01*
X137656167Y-106217500D01*
X137698500Y-106132833D01*
X137698500Y-105963500D01*
X137656167Y-105878833D01*
X137613834Y-105836500D01*
X137529167Y-105794167D01*
X160351834Y-80002167D02*
X160055500Y-79578833D01*
X159843834Y-80002167D02*
X159843834Y-79113167D01*
X160182500Y-79113167D01*
X160267167Y-79155500D01*
X160309500Y-79197833D01*
X160351834Y-79282500D01*
X160351834Y-79409500D01*
X160309500Y-79494167D01*
X160267167Y-79536500D01*
X160182500Y-79578833D01*
X159843834Y-79578833D01*
X160775167Y-80002167D02*
X160944500Y-80002167D01*
X161029167Y-79959833D01*
X161071500Y-79917500D01*
X161156167Y-79790500D01*
X161198500Y-79621167D01*
X161198500Y-79282500D01*
X161156167Y-79197833D01*
X161113834Y-79155500D01*
X161029167Y-79113167D01*
X160859834Y-79113167D01*
X160775167Y-79155500D01*
X160732834Y-79197833D01*
X160690500Y-79282500D01*
X160690500Y-79494167D01*
X160732834Y-79578833D01*
X160775167Y-79621167D01*
X160859834Y-79663500D01*
X161029167Y-79663500D01*
X161113834Y-79621167D01*
X161156167Y-79578833D01*
X161198500Y-79494167D01*
X157928500Y-110602167D02*
X157632166Y-110178833D01*
X157420500Y-110602167D02*
X157420500Y-109713167D01*
X157759166Y-109713167D01*
X157843833Y-109755500D01*
X157886166Y-109797833D01*
X157928500Y-109882500D01*
X157928500Y-110009500D01*
X157886166Y-110094167D01*
X157843833Y-110136500D01*
X157759166Y-110178833D01*
X157420500Y-110178833D01*
X158775166Y-110602167D02*
X158267166Y-110602167D01*
X158521166Y-110602167D02*
X158521166Y-109713167D01*
X158436500Y-109840167D01*
X158351833Y-109924833D01*
X158267166Y-109967167D01*
X159325500Y-109713167D02*
X159410167Y-109713167D01*
X159494833Y-109755500D01*
X159537167Y-109797833D01*
X159579500Y-109882500D01*
X159621833Y-110051833D01*
X159621833Y-110263500D01*
X159579500Y-110432833D01*
X159537167Y-110517500D01*
X159494833Y-110559833D01*
X159410167Y-110602167D01*
X159325500Y-110602167D01*
X159240833Y-110559833D01*
X159198500Y-110517500D01*
X159156167Y-110432833D01*
X159113833Y-110263500D01*
X159113833Y-110051833D01*
X159156167Y-109882500D01*
X159198500Y-109797833D01*
X159240833Y-109755500D01*
X159325500Y-109713167D01*
X132628500Y-85002167D02*
X132332166Y-84578833D01*
X132120500Y-85002167D02*
X132120500Y-84113167D01*
X132459166Y-84113167D01*
X132543833Y-84155500D01*
X132586166Y-84197833D01*
X132628500Y-84282500D01*
X132628500Y-84409500D01*
X132586166Y-84494167D01*
X132543833Y-84536500D01*
X132459166Y-84578833D01*
X132120500Y-84578833D01*
X133475166Y-85002167D02*
X132967166Y-85002167D01*
X133221166Y-85002167D02*
X133221166Y-84113167D01*
X133136500Y-84240167D01*
X133051833Y-84324833D01*
X132967166Y-84367167D01*
X134321833Y-85002167D02*
X133813833Y-85002167D01*
X134067833Y-85002167D02*
X134067833Y-84113167D01*
X133983167Y-84240167D01*
X133898500Y-84324833D01*
X133813833Y-84367167D01*
X132951834Y-88917500D02*
X132909500Y-88959833D01*
X132782500Y-89002167D01*
X132697834Y-89002167D01*
X132570834Y-88959833D01*
X132486167Y-88875167D01*
X132443834Y-88790500D01*
X132401500Y-88621167D01*
X132401500Y-88494167D01*
X132443834Y-88324833D01*
X132486167Y-88240167D01*
X132570834Y-88155500D01*
X132697834Y-88113167D01*
X132782500Y-88113167D01*
X132909500Y-88155500D01*
X132951834Y-88197833D01*
X133290500Y-88197833D02*
X133332834Y-88155500D01*
X133417500Y-88113167D01*
X133629167Y-88113167D01*
X133713834Y-88155500D01*
X133756167Y-88197833D01*
X133798500Y-88282500D01*
X133798500Y-88367167D01*
X133756167Y-88494167D01*
X133248167Y-89002167D01*
X133798500Y-89002167D01*
X137851834Y-94717500D02*
X137809500Y-94759833D01*
X137682500Y-94802167D01*
X137597834Y-94802167D01*
X137470834Y-94759833D01*
X137386167Y-94675167D01*
X137343834Y-94590500D01*
X137301500Y-94421167D01*
X137301500Y-94294167D01*
X137343834Y-94124833D01*
X137386167Y-94040167D01*
X137470834Y-93955500D01*
X137597834Y-93913167D01*
X137682500Y-93913167D01*
X137809500Y-93955500D01*
X137851834Y-93997833D01*
X138148167Y-93913167D02*
X138698500Y-93913167D01*
X138402167Y-94251833D01*
X138529167Y-94251833D01*
X138613834Y-94294167D01*
X138656167Y-94336500D01*
X138698500Y-94421167D01*
X138698500Y-94632833D01*
X138656167Y-94717500D01*
X138613834Y-94759833D01*
X138529167Y-94802167D01*
X138275167Y-94802167D01*
X138190500Y-94759833D01*
X138148167Y-94717500D01*
D21*
X132494167Y-80726786D02*
X132463929Y-80757024D01*
X132373214Y-80787262D01*
X132312738Y-80787262D01*
X132222024Y-80757024D01*
X132161548Y-80696548D01*
X132131309Y-80636071D01*
X132101071Y-80515119D01*
X132101071Y-80424405D01*
X132131309Y-80303452D01*
X132161548Y-80242976D01*
X132222024Y-80182500D01*
X132312738Y-80152262D01*
X132373214Y-80152262D01*
X132463929Y-80182500D01*
X132494167Y-80212738D01*
X133038452Y-80363929D02*
X133038452Y-80787262D01*
X132887262Y-80122024D02*
X132736071Y-80575595D01*
X133129167Y-80575595D01*
D11*
X138417500Y-91348166D02*
X138459833Y-91390500D01*
X138502167Y-91517500D01*
X138502167Y-91602166D01*
X138459833Y-91729166D01*
X138375167Y-91813833D01*
X138290500Y-91856166D01*
X138121167Y-91898500D01*
X137994167Y-91898500D01*
X137824833Y-91856166D01*
X137740167Y-91813833D01*
X137655500Y-91729166D01*
X137613167Y-91602166D01*
X137613167Y-91517500D01*
X137655500Y-91390500D01*
X137697833Y-91348166D01*
X137613167Y-90543833D02*
X137613167Y-90967166D01*
X138036500Y-91009500D01*
X137994167Y-90967166D01*
X137951833Y-90882500D01*
X137951833Y-90670833D01*
X137994167Y-90586166D01*
X138036500Y-90543833D01*
X138121167Y-90501500D01*
X138332833Y-90501500D01*
X138417500Y-90543833D01*
X138459833Y-90586166D01*
X138502167Y-90670833D01*
X138502167Y-90882500D01*
X138459833Y-90967166D01*
X138417500Y-91009500D01*
D21*
X140194167Y-79226786D02*
X140163929Y-79257024D01*
X140073214Y-79287262D01*
X140012738Y-79287262D01*
X139922024Y-79257024D01*
X139861548Y-79196548D01*
X139831309Y-79136071D01*
X139801071Y-79015119D01*
X139801071Y-78924405D01*
X139831309Y-78803452D01*
X139861548Y-78742976D01*
X139922024Y-78682500D01*
X140012738Y-78652262D01*
X140073214Y-78652262D01*
X140163929Y-78682500D01*
X140194167Y-78712738D01*
X140405833Y-78652262D02*
X140829167Y-78652262D01*
X140557024Y-79287262D01*
D11*
X145128500Y-110417500D02*
X145086166Y-110459833D01*
X144959166Y-110502167D01*
X144874500Y-110502167D01*
X144747500Y-110459833D01*
X144662833Y-110375167D01*
X144620500Y-110290500D01*
X144578166Y-110121167D01*
X144578166Y-109994167D01*
X144620500Y-109824833D01*
X144662833Y-109740167D01*
X144747500Y-109655500D01*
X144874500Y-109613167D01*
X144959166Y-109613167D01*
X145086166Y-109655500D01*
X145128500Y-109697833D01*
X145975166Y-110502167D02*
X145467166Y-110502167D01*
X145721166Y-110502167D02*
X145721166Y-109613167D01*
X145636500Y-109740167D01*
X145551833Y-109824833D01*
X145467166Y-109867167D01*
X146525500Y-109613167D02*
X146610167Y-109613167D01*
X146694833Y-109655500D01*
X146737167Y-109697833D01*
X146779500Y-109782500D01*
X146821833Y-109951833D01*
X146821833Y-110163500D01*
X146779500Y-110332833D01*
X146737167Y-110417500D01*
X146694833Y-110459833D01*
X146610167Y-110502167D01*
X146525500Y-110502167D01*
X146440833Y-110459833D01*
X146398500Y-110417500D01*
X146356167Y-110332833D01*
X146313833Y-110163500D01*
X146313833Y-109951833D01*
X146356167Y-109782500D01*
X146398500Y-109697833D01*
X146440833Y-109655500D01*
X146525500Y-109613167D01*
D13*
X131938000Y-101682571D02*
X131865429Y-101827714D01*
X131865429Y-102045428D01*
X131938000Y-102263143D01*
X132083143Y-102408285D01*
X132228286Y-102480857D01*
X132518571Y-102553428D01*
X132736286Y-102553428D01*
X133026571Y-102480857D01*
X133171714Y-102408285D01*
X133316857Y-102263143D01*
X133389429Y-102045428D01*
X133389429Y-101900285D01*
X133316857Y-101682571D01*
X133244286Y-101610000D01*
X132736286Y-101610000D01*
X132736286Y-101900285D01*
X133389429Y-100956857D02*
X131865429Y-100956857D01*
X131865429Y-100376285D01*
X131938000Y-100231143D01*
X132010571Y-100158571D01*
X132155714Y-100086000D01*
X132373429Y-100086000D01*
X132518571Y-100158571D01*
X132591143Y-100231143D01*
X132663714Y-100376285D01*
X132663714Y-100956857D01*
X133389429Y-99432857D02*
X131865429Y-99432857D01*
X131865429Y-98416857D02*
X131865429Y-98126571D01*
X131938000Y-97981429D01*
X132083143Y-97836286D01*
X132373429Y-97763714D01*
X132881429Y-97763714D01*
X133171714Y-97836286D01*
X133316857Y-97981429D01*
X133389429Y-98126571D01*
X133389429Y-98416857D01*
X133316857Y-98562000D01*
X133171714Y-98707143D01*
X132881429Y-98779714D01*
X132373429Y-98779714D01*
X132083143Y-98707143D01*
X131938000Y-98562000D01*
X131865429Y-98416857D01*
X133534571Y-97473429D02*
X133534571Y-96312286D01*
X133389429Y-95949429D02*
X131865429Y-95949429D01*
X132373429Y-95223715D02*
X133389429Y-95223715D01*
X132518571Y-95223715D02*
X132446000Y-95151143D01*
X132373429Y-95006001D01*
X132373429Y-94788286D01*
X132446000Y-94643143D01*
X132591143Y-94570572D01*
X133389429Y-94570572D01*
X133389429Y-93046572D02*
X133389429Y-93917429D01*
X133389429Y-93482001D02*
X131865429Y-93482001D01*
X132083143Y-93627144D01*
X132228286Y-93772286D01*
X132300857Y-93917429D01*
X121351524Y-115902619D02*
X121980476Y-115902619D01*
X121641810Y-116289667D01*
X121786952Y-116289667D01*
X121883714Y-116338048D01*
X121932095Y-116386429D01*
X121980476Y-116483190D01*
X121980476Y-116725095D01*
X121932095Y-116821857D01*
X121883714Y-116870238D01*
X121786952Y-116918619D01*
X121496667Y-116918619D01*
X121399905Y-116870238D01*
X121351524Y-116821857D01*
X122851333Y-116241286D02*
X122851333Y-116918619D01*
X122609429Y-115854238D02*
X122367524Y-116579952D01*
X122996476Y-116579952D01*
X166638000Y-116053428D02*
X166565429Y-116198571D01*
X166565429Y-116416285D01*
X166638000Y-116634000D01*
X166783143Y-116779142D01*
X166928286Y-116851714D01*
X167218571Y-116924285D01*
X167436286Y-116924285D01*
X167726571Y-116851714D01*
X167871714Y-116779142D01*
X168016857Y-116634000D01*
X168089429Y-116416285D01*
X168089429Y-116271142D01*
X168016857Y-116053428D01*
X167944286Y-115980857D01*
X167436286Y-115980857D01*
X167436286Y-116271142D01*
X168089429Y-115327714D02*
X166565429Y-115327714D01*
X166565429Y-114747142D01*
X166638000Y-114602000D01*
X166710571Y-114529428D01*
X166855714Y-114456857D01*
X167073429Y-114456857D01*
X167218571Y-114529428D01*
X167291143Y-114602000D01*
X167363714Y-114747142D01*
X167363714Y-115327714D01*
X168089429Y-113803714D02*
X166565429Y-113803714D01*
X166565429Y-112787714D02*
X166565429Y-112497428D01*
X166638000Y-112352286D01*
X166783143Y-112207143D01*
X167073429Y-112134571D01*
X167581429Y-112134571D01*
X167871714Y-112207143D01*
X168016857Y-112352286D01*
X168089429Y-112497428D01*
X168089429Y-112787714D01*
X168016857Y-112932857D01*
X167871714Y-113078000D01*
X167581429Y-113150571D01*
X167073429Y-113150571D01*
X166783143Y-113078000D01*
X166638000Y-112932857D01*
X166565429Y-112787714D01*
X168234571Y-111844286D02*
X168234571Y-110683143D01*
X166565429Y-110030000D02*
X166565429Y-109739714D01*
X166638000Y-109594572D01*
X166783143Y-109449429D01*
X167073429Y-109376857D01*
X167581429Y-109376857D01*
X167871714Y-109449429D01*
X168016857Y-109594572D01*
X168089429Y-109739714D01*
X168089429Y-110030000D01*
X168016857Y-110175143D01*
X167871714Y-110320286D01*
X167581429Y-110392857D01*
X167073429Y-110392857D01*
X166783143Y-110320286D01*
X166638000Y-110175143D01*
X166565429Y-110030000D01*
X167073429Y-108070572D02*
X168089429Y-108070572D01*
X167073429Y-108723715D02*
X167871714Y-108723715D01*
X168016857Y-108651143D01*
X168089429Y-108506001D01*
X168089429Y-108288286D01*
X168016857Y-108143143D01*
X167944286Y-108070572D01*
X167073429Y-107562572D02*
X167073429Y-106982001D01*
X166565429Y-107344858D02*
X167871714Y-107344858D01*
X168016857Y-107272286D01*
X168089429Y-107127144D01*
X168089429Y-106982001D01*
X168089429Y-105675715D02*
X168089429Y-106546572D01*
X168089429Y-106111144D02*
X166565429Y-106111144D01*
X166783143Y-106256287D01*
X166928286Y-106401429D01*
X167000857Y-106546572D01*
X176581324Y-118188619D02*
X177210276Y-118188619D01*
X176871610Y-118575667D01*
X177016752Y-118575667D01*
X177113514Y-118624048D01*
X177161895Y-118672429D01*
X177210276Y-118769190D01*
X177210276Y-119011095D01*
X177161895Y-119107857D01*
X177113514Y-119156238D01*
X177016752Y-119204619D01*
X176726467Y-119204619D01*
X176629705Y-119156238D01*
X176581324Y-119107857D01*
X178081133Y-118527286D02*
X178081133Y-119204619D01*
X177839229Y-118140238D02*
X177597324Y-118865952D01*
X178226276Y-118865952D01*
D20*
X138233334Y-97052381D02*
X137757143Y-97052381D01*
X137757143Y-96052381D01*
X139090477Y-97052381D02*
X138519048Y-97052381D01*
X138804762Y-97052381D02*
X138804762Y-96052381D01*
X138709524Y-96195238D01*
X138614286Y-96290476D01*
X138519048Y-96338095D01*
D17*
D11*
X139917500Y-74648166D02*
X139959833Y-74690500D01*
X140002167Y-74817500D01*
X140002167Y-74902166D01*
X139959833Y-75029166D01*
X139875167Y-75113833D01*
X139790500Y-75156166D01*
X139621167Y-75198500D01*
X139494167Y-75198500D01*
X139324833Y-75156166D01*
X139240167Y-75113833D01*
X139155500Y-75029166D01*
X139113167Y-74902166D01*
X139113167Y-74817500D01*
X139155500Y-74690500D01*
X139197833Y-74648166D01*
X139113167Y-73886166D02*
X139113167Y-74055500D01*
X139155500Y-74140166D01*
X139197833Y-74182500D01*
X139324833Y-74267166D01*
X139494167Y-74309500D01*
X139832833Y-74309500D01*
X139917500Y-74267166D01*
X139959833Y-74224833D01*
X140002167Y-74140166D01*
X140002167Y-73970833D01*
X139959833Y-73886166D01*
X139917500Y-73843833D01*
X139832833Y-73801500D01*
X139621167Y-73801500D01*
X139536500Y-73843833D01*
X139494167Y-73886166D01*
X139451833Y-73970833D01*
X139451833Y-74140166D01*
X139494167Y-74224833D01*
X139536500Y-74267166D01*
X139621167Y-74309500D01*
X149751834Y-80917500D02*
X149709500Y-80959833D01*
X149582500Y-81002167D01*
X149497834Y-81002167D01*
X149370834Y-80959833D01*
X149286167Y-80875167D01*
X149243834Y-80790500D01*
X149201500Y-80621167D01*
X149201500Y-80494167D01*
X149243834Y-80324833D01*
X149286167Y-80240167D01*
X149370834Y-80155500D01*
X149497834Y-80113167D01*
X149582500Y-80113167D01*
X149709500Y-80155500D01*
X149751834Y-80197833D01*
X150259834Y-80494167D02*
X150175167Y-80451833D01*
X150132834Y-80409500D01*
X150090500Y-80324833D01*
X150090500Y-80282500D01*
X150132834Y-80197833D01*
X150175167Y-80155500D01*
X150259834Y-80113167D01*
X150429167Y-80113167D01*
X150513834Y-80155500D01*
X150556167Y-80197833D01*
X150598500Y-80282500D01*
X150598500Y-80324833D01*
X150556167Y-80409500D01*
X150513834Y-80451833D01*
X150429167Y-80494167D01*
X150259834Y-80494167D01*
X150175167Y-80536500D01*
X150132834Y-80578833D01*
X150090500Y-80663500D01*
X150090500Y-80832833D01*
X150132834Y-80917500D01*
X150175167Y-80959833D01*
X150259834Y-81002167D01*
X150429167Y-81002167D01*
X150513834Y-80959833D01*
X150556167Y-80917500D01*
X150598500Y-80832833D01*
X150598500Y-80663500D01*
X150556167Y-80578833D01*
X150513834Y-80536500D01*
X150429167Y-80494167D01*
X144551834Y-80917500D02*
X144509500Y-80959833D01*
X144382500Y-81002167D01*
X144297834Y-81002167D01*
X144170834Y-80959833D01*
X144086167Y-80875167D01*
X144043834Y-80790500D01*
X144001500Y-80621167D01*
X144001500Y-80494167D01*
X144043834Y-80324833D01*
X144086167Y-80240167D01*
X144170834Y-80155500D01*
X144297834Y-80113167D01*
X144382500Y-80113167D01*
X144509500Y-80155500D01*
X144551834Y-80197833D01*
X144975167Y-81002167D02*
X145144500Y-81002167D01*
X145229167Y-80959833D01*
X145271500Y-80917500D01*
X145356167Y-80790500D01*
X145398500Y-80621167D01*
X145398500Y-80282500D01*
X145356167Y-80197833D01*
X145313834Y-80155500D01*
X145229167Y-80113167D01*
X145059834Y-80113167D01*
X144975167Y-80155500D01*
X144932834Y-80197833D01*
X144890500Y-80282500D01*
X144890500Y-80494167D01*
X144932834Y-80578833D01*
X144975167Y-80621167D01*
X145059834Y-80663500D01*
X145229167Y-80663500D01*
X145313834Y-80621167D01*
X145356167Y-80578833D01*
X145398500Y-80494167D01*
X153028500Y-109517500D02*
X152986166Y-109559833D01*
X152859166Y-109602167D01*
X152774500Y-109602167D01*
X152647500Y-109559833D01*
X152562833Y-109475167D01*
X152520500Y-109390500D01*
X152478166Y-109221167D01*
X152478166Y-109094167D01*
X152520500Y-108924833D01*
X152562833Y-108840167D01*
X152647500Y-108755500D01*
X152774500Y-108713167D01*
X152859166Y-108713167D01*
X152986166Y-108755500D01*
X153028500Y-108797833D01*
X153875166Y-109602167D02*
X153367166Y-109602167D01*
X153621166Y-109602167D02*
X153621166Y-108713167D01*
X153536500Y-108840167D01*
X153451833Y-108924833D01*
X153367166Y-108967167D01*
X154721833Y-109602167D02*
X154213833Y-109602167D01*
X154467833Y-109602167D02*
X154467833Y-108713167D01*
X154383167Y-108840167D01*
X154298500Y-108924833D01*
X154213833Y-108967167D01*
X153328500Y-96817500D02*
X153286166Y-96859833D01*
X153159166Y-96902167D01*
X153074500Y-96902167D01*
X152947500Y-96859833D01*
X152862833Y-96775167D01*
X152820500Y-96690500D01*
X152778166Y-96521167D01*
X152778166Y-96394167D01*
X152820500Y-96224833D01*
X152862833Y-96140167D01*
X152947500Y-96055500D01*
X153074500Y-96013167D01*
X153159166Y-96013167D01*
X153286166Y-96055500D01*
X153328500Y-96097833D01*
X154175166Y-96902167D02*
X153667166Y-96902167D01*
X153921166Y-96902167D02*
X153921166Y-96013167D01*
X153836500Y-96140167D01*
X153751833Y-96224833D01*
X153667166Y-96267167D01*
X154937167Y-96309500D02*
X154937167Y-96902167D01*
X154725500Y-95970833D02*
X154513833Y-96605833D01*
X155064167Y-96605833D01*
X156243834Y-85102167D02*
X156243834Y-84213167D01*
X156455500Y-84213167D01*
X156582500Y-84255500D01*
X156667167Y-84340167D01*
X156709500Y-84424833D01*
X156751834Y-84594167D01*
X156751834Y-84721167D01*
X156709500Y-84890500D01*
X156667167Y-84975167D01*
X156582500Y-85059833D01*
X156455500Y-85102167D01*
X156243834Y-85102167D01*
X157598500Y-85102167D02*
X157090500Y-85102167D01*
X157344500Y-85102167D02*
X157344500Y-84213167D01*
X157259834Y-84340167D01*
X157175167Y-84424833D01*
X157090500Y-84467167D01*
D13*
X133325238Y-104874524D02*
X133325238Y-103604524D01*
X133627619Y-103604524D01*
X133809047Y-103665000D01*
X133930000Y-103785952D01*
X133990476Y-103906905D01*
X134050952Y-104148810D01*
X134050952Y-104330238D01*
X133990476Y-104572143D01*
X133930000Y-104693095D01*
X133809047Y-104814048D01*
X133627619Y-104874524D01*
X133325238Y-104874524D01*
X134595238Y-104874524D02*
X134595238Y-103604524D01*
X135925714Y-104874524D02*
X135502381Y-104269762D01*
X135200000Y-104874524D02*
X135200000Y-103604524D01*
X135683809Y-103604524D01*
X135804762Y-103665000D01*
X135865238Y-103725476D01*
X135925714Y-103846429D01*
X135925714Y-104027857D01*
X135865238Y-104148810D01*
X135804762Y-104209286D01*
X135683809Y-104269762D01*
X135200000Y-104269762D01*
X137135238Y-104874524D02*
X136409524Y-104874524D01*
X136772381Y-104874524D02*
X136772381Y-103604524D01*
X136651429Y-103785952D01*
X136530476Y-103906905D01*
X136409524Y-103967381D01*
X164974524Y-84374762D02*
X163704524Y-84374762D01*
X163704524Y-84072381D01*
X163765000Y-83890953D01*
X163885952Y-83770000D01*
X164006905Y-83709524D01*
X164248810Y-83649048D01*
X164430238Y-83649048D01*
X164672143Y-83709524D01*
X164793095Y-83770000D01*
X164914048Y-83890953D01*
X164974524Y-84072381D01*
X164974524Y-84374762D01*
X164974524Y-83104762D02*
X163704524Y-83104762D01*
X164974524Y-81774286D02*
X164369762Y-82197619D01*
X164974524Y-82500000D02*
X163704524Y-82500000D01*
X163704524Y-82016191D01*
X163765000Y-81895238D01*
X163825476Y-81834762D01*
X163946429Y-81774286D01*
X164127857Y-81774286D01*
X164248810Y-81834762D01*
X164309286Y-81895238D01*
X164369762Y-82016191D01*
X164369762Y-82500000D01*
X163825476Y-81290476D02*
X163765000Y-81230000D01*
X163704524Y-81109048D01*
X163704524Y-80806667D01*
X163765000Y-80685714D01*
X163825476Y-80625238D01*
X163946429Y-80564762D01*
X164067381Y-80564762D01*
X164248810Y-80625238D01*
X164974524Y-81350952D01*
X164974524Y-80564762D01*
X164874524Y-109774762D02*
X163604524Y-109774762D01*
X163604524Y-109472381D01*
X163665000Y-109290953D01*
X163785952Y-109170000D01*
X163906905Y-109109524D01*
X164148810Y-109049048D01*
X164330238Y-109049048D01*
X164572143Y-109109524D01*
X164693095Y-109170000D01*
X164814048Y-109290953D01*
X164874524Y-109472381D01*
X164874524Y-109774762D01*
X164874524Y-108504762D02*
X163604524Y-108504762D01*
X164874524Y-107174286D02*
X164269762Y-107597619D01*
X164874524Y-107900000D02*
X163604524Y-107900000D01*
X163604524Y-107416191D01*
X163665000Y-107295238D01*
X163725476Y-107234762D01*
X163846429Y-107174286D01*
X164027857Y-107174286D01*
X164148810Y-107234762D01*
X164209286Y-107295238D01*
X164269762Y-107416191D01*
X164269762Y-107900000D01*
X163604524Y-106750952D02*
X163604524Y-105964762D01*
X164088333Y-106388095D01*
X164088333Y-106206667D01*
X164148810Y-106085714D01*
X164209286Y-106025238D01*
X164330238Y-105964762D01*
X164632619Y-105964762D01*
X164753571Y-106025238D01*
X164814048Y-106085714D01*
X164874524Y-106206667D01*
X164874524Y-106569524D01*
X164814048Y-106690476D01*
X164753571Y-106750952D01*
X138774524Y-87974762D02*
X137504524Y-87974762D01*
X137504524Y-87672381D01*
X137565000Y-87490953D01*
X137685952Y-87370000D01*
X137806905Y-87309524D01*
X138048810Y-87249048D01*
X138230238Y-87249048D01*
X138472143Y-87309524D01*
X138593095Y-87370000D01*
X138714048Y-87490953D01*
X138774524Y-87672381D01*
X138774524Y-87974762D01*
X138774524Y-86704762D02*
X137504524Y-86704762D01*
X138774524Y-85374286D02*
X138169762Y-85797619D01*
X138774524Y-86100000D02*
X137504524Y-86100000D01*
X137504524Y-85616191D01*
X137565000Y-85495238D01*
X137625476Y-85434762D01*
X137746429Y-85374286D01*
X137927857Y-85374286D01*
X138048810Y-85434762D01*
X138109286Y-85495238D01*
X138169762Y-85616191D01*
X138169762Y-86100000D01*
X137927857Y-84285714D02*
X138774524Y-84285714D01*
X137444048Y-84588095D02*
X138351190Y-84890476D01*
X138351190Y-84104286D01*
X167309286Y-74265476D02*
X167309286Y-73842143D01*
X167974524Y-73660714D02*
X167974524Y-74265476D01*
X166704524Y-74265476D01*
X166704524Y-73660714D01*
X166704524Y-73237380D02*
X167974524Y-72390714D01*
X166704524Y-72390714D02*
X167974524Y-73237380D01*
X166704524Y-72088333D02*
X166704524Y-71362618D01*
X167974524Y-71725475D02*
X166704524Y-71725475D01*
X167974524Y-70274047D02*
X167974524Y-70999761D01*
X167974524Y-70636904D02*
X166704524Y-70636904D01*
X166885952Y-70757856D01*
X167006905Y-70878809D01*
X167067381Y-70999761D01*
X163334095Y-76774524D02*
X162608381Y-76774524D01*
X162971238Y-76774524D02*
X162971238Y-75504524D01*
X162850286Y-75685952D01*
X162729333Y-75806905D01*
X162608381Y-75867381D01*
X163757429Y-75504524D02*
X164543619Y-75504524D01*
X164120286Y-75988333D01*
X164301714Y-75988333D01*
X164422667Y-76048810D01*
X164483143Y-76109286D01*
X164543619Y-76230238D01*
X164543619Y-76532619D01*
X164483143Y-76653571D01*
X164422667Y-76714048D01*
X164301714Y-76774524D01*
X163938857Y-76774524D01*
X163817905Y-76714048D01*
X163757429Y-76653571D01*
X163334095Y-74234524D02*
X162608381Y-74234524D01*
X162971238Y-74234524D02*
X162971238Y-72964524D01*
X162850286Y-73145952D01*
X162729333Y-73266905D01*
X162608381Y-73327381D01*
X164422667Y-73387857D02*
X164422667Y-74234524D01*
X164120286Y-72904048D02*
X163817905Y-73811190D01*
X164604095Y-73811190D01*
X143147143Y-73085476D02*
X143207619Y-73025000D01*
X143328571Y-72964524D01*
X143630952Y-72964524D01*
X143751905Y-73025000D01*
X143812381Y-73085476D01*
X143872857Y-73206429D01*
X143872857Y-73327381D01*
X143812381Y-73508810D01*
X143086667Y-74234524D01*
X143872857Y-74234524D01*
X143872857Y-76774524D02*
X143147143Y-76774524D01*
X143510000Y-76774524D02*
X143510000Y-75504524D01*
X143389048Y-75685952D01*
X143268095Y-75806905D01*
X143147143Y-75867381D01*
X153428095Y-78933524D02*
X152702381Y-78933524D01*
X153065238Y-78933524D02*
X153065238Y-77663524D01*
X152944286Y-77844952D01*
X152823333Y-77965905D01*
X152702381Y-78026381D01*
X154516667Y-78086857D02*
X154516667Y-78933524D01*
X154214286Y-77603048D02*
X153911905Y-78510190D01*
X154698095Y-78510190D01*
D11*
X132322667Y-90613167D02*
X132322667Y-91332833D01*
X132365000Y-91417500D01*
X132407333Y-91459833D01*
X132492000Y-91502167D01*
X132661333Y-91502167D01*
X132746000Y-91459833D01*
X132788333Y-91417500D01*
X132830667Y-91332833D01*
X132830667Y-90613167D01*
X133719666Y-91502167D02*
X133211666Y-91502167D01*
X133465666Y-91502167D02*
X133465666Y-90613167D01*
X133381000Y-90740167D01*
X133296333Y-90824833D01*
X133211666Y-90867167D01*
D13*
X155432381Y-80204524D02*
X155432381Y-81232619D01*
X155492857Y-81353571D01*
X155553333Y-81414048D01*
X155674286Y-81474524D01*
X155916190Y-81474524D01*
X156037143Y-81414048D01*
X156097619Y-81353571D01*
X156158095Y-81232619D01*
X156158095Y-80204524D01*
X156641905Y-80204524D02*
X157428095Y-80204524D01*
X157004762Y-80688333D01*
X157186190Y-80688333D01*
X157307143Y-80748810D01*
X157367619Y-80809286D01*
X157428095Y-80930238D01*
X157428095Y-81232619D01*
X157367619Y-81353571D01*
X157307143Y-81414048D01*
X157186190Y-81474524D01*
X156823333Y-81474524D01*
X156702381Y-81414048D01*
X156641905Y-81353571D01*
D20*
X144581905Y-87399762D02*
X144724762Y-87447381D01*
X144962858Y-87447381D01*
X145058096Y-87399762D01*
X145105715Y-87352143D01*
X145153334Y-87256905D01*
X145153334Y-87161667D01*
X145105715Y-87066429D01*
X145058096Y-87018810D01*
X144962858Y-86971190D01*
X144772381Y-86923571D01*
X144677143Y-86875952D01*
X144629524Y-86828333D01*
X144581905Y-86733095D01*
X144581905Y-86637857D01*
X144629524Y-86542619D01*
X144677143Y-86495000D01*
X144772381Y-86447381D01*
X145010477Y-86447381D01*
X145153334Y-86495000D01*
X145534286Y-87399762D02*
X145677143Y-87447381D01*
X145915239Y-87447381D01*
X146010477Y-87399762D01*
X146058096Y-87352143D01*
X146105715Y-87256905D01*
X146105715Y-87161667D01*
X146058096Y-87066429D01*
X146010477Y-87018810D01*
X145915239Y-86971190D01*
X145724762Y-86923571D01*
X145629524Y-86875952D01*
X145581905Y-86828333D01*
X145534286Y-86733095D01*
X145534286Y-86637857D01*
X145581905Y-86542619D01*
X145629524Y-86495000D01*
X145724762Y-86447381D01*
X145962858Y-86447381D01*
X146105715Y-86495000D01*
X146724762Y-86447381D02*
X146915239Y-86447381D01*
X147010477Y-86495000D01*
X147105715Y-86590238D01*
X147153334Y-86780714D01*
X147153334Y-87114048D01*
X147105715Y-87304524D01*
X147010477Y-87399762D01*
X146915239Y-87447381D01*
X146724762Y-87447381D01*
X146629524Y-87399762D01*
X146534286Y-87304524D01*
X146486667Y-87114048D01*
X146486667Y-86780714D01*
X146534286Y-86590238D01*
X146629524Y-86495000D01*
X146724762Y-86447381D01*
X147581905Y-87447381D02*
X147581905Y-86447381D01*
X147962858Y-86447381D01*
X148058096Y-86495000D01*
X148105715Y-86542619D01*
X148153334Y-86637857D01*
X148153334Y-86780714D01*
X148105715Y-86875952D01*
X148058096Y-86923571D01*
X147962858Y-86971190D01*
X147581905Y-86971190D01*
X149010477Y-86780714D02*
X149010477Y-87447381D01*
X148772381Y-86399762D02*
X148534286Y-87114048D01*
X149153334Y-87114048D01*
X149677143Y-86875952D02*
X149581905Y-86828333D01*
X149534286Y-86780714D01*
X149486667Y-86685476D01*
X149486667Y-86637857D01*
X149534286Y-86542619D01*
X149581905Y-86495000D01*
X149677143Y-86447381D01*
X149867620Y-86447381D01*
X149962858Y-86495000D01*
X150010477Y-86542619D01*
X150058096Y-86637857D01*
X150058096Y-86685476D01*
X150010477Y-86780714D01*
X149962858Y-86828333D01*
X149867620Y-86875952D01*
X149677143Y-86875952D01*
X149581905Y-86923571D01*
X149534286Y-86971190D01*
X149486667Y-87066429D01*
X149486667Y-87256905D01*
X149534286Y-87352143D01*
X149581905Y-87399762D01*
X149677143Y-87447381D01*
X149867620Y-87447381D01*
X149962858Y-87399762D01*
X150010477Y-87352143D01*
X150058096Y-87256905D01*
X150058096Y-87066429D01*
X150010477Y-86971190D01*
X149962858Y-86923571D01*
X149867620Y-86875952D01*
D13*
X156404524Y-107830714D02*
X157432619Y-107830714D01*
X157553571Y-107770238D01*
X157614048Y-107709762D01*
X157674524Y-107588809D01*
X157674524Y-107346905D01*
X157614048Y-107225952D01*
X157553571Y-107165476D01*
X157432619Y-107105000D01*
X156404524Y-107105000D01*
X157009286Y-106500238D02*
X157009286Y-106076905D01*
X157674524Y-105895476D02*
X157674524Y-106500238D01*
X156404524Y-106500238D01*
X156404524Y-105895476D01*
X156404524Y-105472142D02*
X157674524Y-104625476D01*
X156404524Y-104625476D02*
X157674524Y-105472142D01*
X156404524Y-104323095D02*
X156404524Y-103597380D01*
X157674524Y-103960237D02*
X156404524Y-103960237D01*
X157674524Y-102508809D02*
X157674524Y-103234523D01*
X157674524Y-102871666D02*
X156404524Y-102871666D01*
X156585952Y-102992618D01*
X156706905Y-103113571D01*
X156767381Y-103234523D01*
X162499524Y-102603905D02*
X162499524Y-102362000D01*
X162439048Y-102241048D01*
X162378571Y-102180572D01*
X162197143Y-102059619D01*
X161955238Y-101999143D01*
X161471429Y-101999143D01*
X161350476Y-102059619D01*
X161290000Y-102120095D01*
X161229524Y-102241048D01*
X161229524Y-102482952D01*
X161290000Y-102603905D01*
X161350476Y-102664381D01*
X161471429Y-102724857D01*
X161773810Y-102724857D01*
X161894762Y-102664381D01*
X161955238Y-102603905D01*
X162015714Y-102482952D01*
X162015714Y-102241048D01*
X161955238Y-102120095D01*
X161894762Y-102059619D01*
X161773810Y-101999143D01*
X165039524Y-102603905D02*
X165039524Y-103329619D01*
X165039524Y-102966762D02*
X163769524Y-102966762D01*
X163950952Y-103087714D01*
X164071905Y-103208667D01*
X164132381Y-103329619D01*
X163769524Y-101817714D02*
X163769524Y-101696762D01*
X163830000Y-101575810D01*
X163890476Y-101515333D01*
X164011429Y-101454857D01*
X164253333Y-101394381D01*
X164555714Y-101394381D01*
X164797619Y-101454857D01*
X164918571Y-101515333D01*
X164979048Y-101575810D01*
X165039524Y-101696762D01*
X165039524Y-101817714D01*
X164979048Y-101938667D01*
X164918571Y-101999143D01*
X164797619Y-102059619D01*
X164555714Y-102120095D01*
X164253333Y-102120095D01*
X164011429Y-102059619D01*
X163890476Y-101999143D01*
X163830000Y-101938667D01*
X163769524Y-101817714D01*
X163890476Y-87738857D02*
X163830000Y-87678381D01*
X163769524Y-87557429D01*
X163769524Y-87255048D01*
X163830000Y-87134095D01*
X163890476Y-87073619D01*
X164011429Y-87013143D01*
X164132381Y-87013143D01*
X164313810Y-87073619D01*
X165039524Y-87799333D01*
X165039524Y-87013143D01*
X162499524Y-87013143D02*
X162499524Y-87738857D01*
X162499524Y-87376000D02*
X161229524Y-87376000D01*
X161410952Y-87496952D01*
X161531905Y-87617905D01*
X161592381Y-87738857D01*
X160340524Y-95237905D02*
X160340524Y-95963619D01*
X160340524Y-95600762D02*
X159070524Y-95600762D01*
X159251952Y-95721714D01*
X159372905Y-95842667D01*
X159433381Y-95963619D01*
X159070524Y-94451714D02*
X159070524Y-94330762D01*
X159131000Y-94209810D01*
X159191476Y-94149333D01*
X159312429Y-94088857D01*
X159554333Y-94028381D01*
X159856714Y-94028381D01*
X160098619Y-94088857D01*
X160219571Y-94149333D01*
X160280048Y-94209810D01*
X160340524Y-94330762D01*
X160340524Y-94451714D01*
X160280048Y-94572667D01*
X160219571Y-94633143D01*
X160098619Y-94693619D01*
X159856714Y-94754095D01*
X159554333Y-94754095D01*
X159312429Y-94693619D01*
X159191476Y-94633143D01*
X159131000Y-94572667D01*
X159070524Y-94451714D01*
X137236905Y-70604524D02*
X137660239Y-71874524D01*
X138083572Y-70604524D01*
X139232619Y-71874524D02*
X138809286Y-71269762D01*
X138506905Y-71874524D02*
X138506905Y-70604524D01*
X138990714Y-70604524D01*
X139111667Y-70665000D01*
X139172143Y-70725476D01*
X139232619Y-70846429D01*
X139232619Y-71027857D01*
X139172143Y-71148810D01*
X139111667Y-71209286D01*
X138990714Y-71269762D01*
X138506905Y-71269762D01*
X140442143Y-71874524D02*
X139716429Y-71874524D01*
X140079286Y-71874524D02*
X140079286Y-70604524D01*
X139958334Y-70785952D01*
X139837381Y-70906905D01*
X139716429Y-70967381D01*
D22*
X133045286Y-75754619D02*
X132464715Y-75754619D01*
X132755001Y-75754619D02*
X132755001Y-74738619D01*
X132658239Y-74883762D01*
X132561477Y-74980524D01*
X132464715Y-75028905D01*
X133714715Y-74835381D02*
X133763096Y-74787000D01*
X133859858Y-74738619D01*
X134101762Y-74738619D01*
X134198524Y-74787000D01*
X134246905Y-74835381D01*
X134295286Y-74932143D01*
X134295286Y-75028905D01*
X134246905Y-75174048D01*
X133666334Y-75754619D01*
X134295286Y-75754619D01*
X134916334Y-74738619D02*
X135545286Y-74738619D01*
X135206620Y-75125667D01*
X135351762Y-75125667D01*
X135448524Y-75174048D01*
X135496905Y-75222429D01*
X135545286Y-75319190D01*
X135545286Y-75561095D01*
X135496905Y-75657857D01*
X135448524Y-75706238D01*
X135351762Y-75754619D01*
X135061477Y-75754619D01*
X134964715Y-75706238D01*
X134916334Y-75657857D01*
X136698524Y-75077286D02*
X136698524Y-75754619D01*
X136456620Y-74690238D02*
X136214715Y-75415952D01*
X136843667Y-75415952D01*
X137996905Y-74738619D02*
X137513096Y-74738619D01*
X137464715Y-75222429D01*
X137513096Y-75174048D01*
X137609858Y-75125667D01*
X137851762Y-75125667D01*
X137948524Y-75174048D01*
X137996905Y-75222429D01*
X138045286Y-75319190D01*
X138045286Y-75561095D01*
X137996905Y-75657857D01*
X137948524Y-75706238D01*
X137851762Y-75754619D01*
X137609858Y-75754619D01*
X137513096Y-75706238D01*
X137464715Y-75657857D01*
D23*
X132340715Y-73909286D02*
X132469286Y-73952143D01*
X132683572Y-73952143D01*
X132769286Y-73909286D01*
X132812143Y-73866429D01*
X132855000Y-73780714D01*
X132855000Y-73695000D01*
X132812143Y-73609286D01*
X132769286Y-73566429D01*
X132683572Y-73523571D01*
X132512143Y-73480714D01*
X132426429Y-73437857D01*
X132383572Y-73395000D01*
X132340715Y-73309286D01*
X132340715Y-73223571D01*
X132383572Y-73137857D01*
X132426429Y-73095000D01*
X132512143Y-73052143D01*
X132726429Y-73052143D01*
X132855000Y-73095000D01*
X133412143Y-73052143D02*
X133583572Y-73052143D01*
X133669286Y-73095000D01*
X133755000Y-73180714D01*
X133797858Y-73352143D01*
X133797858Y-73652143D01*
X133755000Y-73823571D01*
X133669286Y-73909286D01*
X133583572Y-73952143D01*
X133412143Y-73952143D01*
X133326429Y-73909286D01*
X133240715Y-73823571D01*
X133197858Y-73652143D01*
X133197858Y-73352143D01*
X133240715Y-73180714D01*
X133326429Y-73095000D01*
X133412143Y-73052143D01*
X134055000Y-73052143D02*
X134569286Y-73052143D01*
X134312143Y-73952143D02*
X134312143Y-73052143D01*
X134869286Y-73609286D02*
X135555000Y-73609286D01*
X135940715Y-73137857D02*
X135983572Y-73095000D01*
X136069286Y-73052143D01*
X136283572Y-73052143D01*
X136369286Y-73095000D01*
X136412143Y-73137857D01*
X136455000Y-73223571D01*
X136455000Y-73309286D01*
X136412143Y-73437857D01*
X135897857Y-73952143D01*
X136455000Y-73952143D01*
X136797858Y-73137857D02*
X136840715Y-73095000D01*
X136926429Y-73052143D01*
X137140715Y-73052143D01*
X137226429Y-73095000D01*
X137269286Y-73137857D01*
X137312143Y-73223571D01*
X137312143Y-73309286D01*
X137269286Y-73437857D01*
X136755000Y-73952143D01*
X137312143Y-73952143D01*
X137612143Y-73052143D02*
X138169286Y-73052143D01*
X137869286Y-73395000D01*
X137997858Y-73395000D01*
X138083572Y-73437857D01*
X138126429Y-73480714D01*
X138169286Y-73566429D01*
X138169286Y-73780714D01*
X138126429Y-73866429D01*
X138083572Y-73909286D01*
X137997858Y-73952143D01*
X137740715Y-73952143D01*
X137655001Y-73909286D01*
X137612143Y-73866429D01*
D17*
M02*
