G04 #@! TF.FileFunction,Legend,Bot*
%FSLAX46Y46*%
G04 Gerber Fmt 4.6, Leading zero omitted, Abs format (unit mm)*
G04 Created by KiCad (PCBNEW 4.0.1-3.201512221401+6198~38~ubuntu15.10.1-stable) date Fri 08 Apr 2016 11:07:14 AM EEST*
%MOMM*%
G01*
G04 APERTURE LIST*
%ADD10C,0.100000*%
%ADD11C,0.317500*%
%ADD12C,0.635000*%
%ADD13C,0.222250*%
%ADD14C,0.254000*%
%ADD15C,1.000000*%
%ADD16C,0.150000*%
%ADD17C,0.370000*%
%ADD18C,0.380000*%
%ADD19C,0.400000*%
%ADD20C,0.420000*%
%ADD21C,0.200000*%
%ADD22C,0.127000*%
%ADD23C,0.508000*%
%ADD24C,0.700000*%
%ADD25C,0.500000*%
%ADD26C,0.180000*%
%ADD27C,0.350000*%
G04 APERTURE END LIST*
D10*
D11*
X159354761Y-90109524D02*
X159354761Y-88839524D01*
X158810475Y-90109524D02*
X158810475Y-89444286D01*
X158870952Y-89323333D01*
X158991904Y-89262857D01*
X159173332Y-89262857D01*
X159294285Y-89323333D01*
X159354761Y-89383810D01*
X158387142Y-89262857D02*
X157903332Y-89262857D01*
X158205713Y-88839524D02*
X158205713Y-89928095D01*
X158145237Y-90049048D01*
X158024284Y-90109524D01*
X157903332Y-90109524D01*
X157661428Y-89262857D02*
X157177618Y-89262857D01*
X157479999Y-88839524D02*
X157479999Y-89928095D01*
X157419523Y-90049048D01*
X157298570Y-90109524D01*
X157177618Y-90109524D01*
X156754285Y-89262857D02*
X156754285Y-90532857D01*
X156754285Y-89323333D02*
X156633333Y-89262857D01*
X156391428Y-89262857D01*
X156270476Y-89323333D01*
X156209999Y-89383810D01*
X156149523Y-89504762D01*
X156149523Y-89867619D01*
X156209999Y-89988571D01*
X156270476Y-90049048D01*
X156391428Y-90109524D01*
X156633333Y-90109524D01*
X156754285Y-90049048D01*
X155665713Y-90049048D02*
X155544761Y-90109524D01*
X155302856Y-90109524D01*
X155181904Y-90049048D01*
X155121428Y-89928095D01*
X155121428Y-89867619D01*
X155181904Y-89746667D01*
X155302856Y-89686190D01*
X155484285Y-89686190D01*
X155605237Y-89625714D01*
X155665713Y-89504762D01*
X155665713Y-89444286D01*
X155605237Y-89323333D01*
X155484285Y-89262857D01*
X155302856Y-89262857D01*
X155181904Y-89323333D01*
X154577142Y-89988571D02*
X154516666Y-90049048D01*
X154577142Y-90109524D01*
X154637618Y-90049048D01*
X154577142Y-89988571D01*
X154577142Y-90109524D01*
X154577142Y-89323333D02*
X154516666Y-89383810D01*
X154577142Y-89444286D01*
X154637618Y-89383810D01*
X154577142Y-89323333D01*
X154577142Y-89444286D01*
X153065237Y-88779048D02*
X154153809Y-90411905D01*
X151734761Y-88779048D02*
X152823333Y-90411905D01*
X151432380Y-89262857D02*
X151190476Y-90109524D01*
X150948571Y-89504762D01*
X150706666Y-90109524D01*
X150464761Y-89262857D01*
X150101904Y-89262857D02*
X149860000Y-90109524D01*
X149618095Y-89504762D01*
X149376190Y-90109524D01*
X149134285Y-89262857D01*
X148771428Y-89262857D02*
X148529524Y-90109524D01*
X148287619Y-89504762D01*
X148045714Y-90109524D01*
X147803809Y-89262857D01*
X147320000Y-89988571D02*
X147259524Y-90049048D01*
X147320000Y-90109524D01*
X147380476Y-90049048D01*
X147320000Y-89988571D01*
X147320000Y-90109524D01*
X146533809Y-90109524D02*
X146654762Y-90049048D01*
X146715238Y-89988571D01*
X146775714Y-89867619D01*
X146775714Y-89504762D01*
X146715238Y-89383810D01*
X146654762Y-89323333D01*
X146533809Y-89262857D01*
X146352381Y-89262857D01*
X146231429Y-89323333D01*
X146170952Y-89383810D01*
X146110476Y-89504762D01*
X146110476Y-89867619D01*
X146170952Y-89988571D01*
X146231429Y-90049048D01*
X146352381Y-90109524D01*
X146533809Y-90109524D01*
X145384761Y-90109524D02*
X145505714Y-90049048D01*
X145566190Y-89928095D01*
X145566190Y-88839524D01*
X144900952Y-90109524D02*
X144900952Y-89262857D01*
X144900952Y-88839524D02*
X144961428Y-88900000D01*
X144900952Y-88960476D01*
X144840476Y-88900000D01*
X144900952Y-88839524D01*
X144900952Y-88960476D01*
X144296190Y-90109524D02*
X144296190Y-89262857D01*
X144296190Y-89383810D02*
X144235714Y-89323333D01*
X144114761Y-89262857D01*
X143933333Y-89262857D01*
X143812381Y-89323333D01*
X143751904Y-89444286D01*
X143751904Y-90109524D01*
X143751904Y-89444286D02*
X143691428Y-89323333D01*
X143570476Y-89262857D01*
X143389047Y-89262857D01*
X143268095Y-89323333D01*
X143207619Y-89444286D01*
X143207619Y-90109524D01*
X142119048Y-90049048D02*
X142240000Y-90109524D01*
X142481905Y-90109524D01*
X142602857Y-90049048D01*
X142663333Y-89928095D01*
X142663333Y-89444286D01*
X142602857Y-89323333D01*
X142481905Y-89262857D01*
X142240000Y-89262857D01*
X142119048Y-89323333D01*
X142058571Y-89444286D01*
X142058571Y-89565238D01*
X142663333Y-89686190D01*
X141635238Y-90109524D02*
X140970000Y-89262857D01*
X141635238Y-89262857D02*
X140970000Y-90109524D01*
X140486191Y-89988571D02*
X140425715Y-90049048D01*
X140486191Y-90109524D01*
X140546667Y-90049048D01*
X140486191Y-89988571D01*
X140486191Y-90109524D01*
X139337143Y-90049048D02*
X139458096Y-90109524D01*
X139700000Y-90109524D01*
X139820953Y-90049048D01*
X139881429Y-89988571D01*
X139941905Y-89867619D01*
X139941905Y-89504762D01*
X139881429Y-89383810D01*
X139820953Y-89323333D01*
X139700000Y-89262857D01*
X139458096Y-89262857D01*
X139337143Y-89323333D01*
X138611429Y-90109524D02*
X138732382Y-90049048D01*
X138792858Y-89988571D01*
X138853334Y-89867619D01*
X138853334Y-89504762D01*
X138792858Y-89383810D01*
X138732382Y-89323333D01*
X138611429Y-89262857D01*
X138430001Y-89262857D01*
X138309049Y-89323333D01*
X138248572Y-89383810D01*
X138188096Y-89504762D01*
X138188096Y-89867619D01*
X138248572Y-89988571D01*
X138309049Y-90049048D01*
X138430001Y-90109524D01*
X138611429Y-90109524D01*
X137643810Y-90109524D02*
X137643810Y-89262857D01*
X137643810Y-89383810D02*
X137583334Y-89323333D01*
X137462381Y-89262857D01*
X137280953Y-89262857D01*
X137160001Y-89323333D01*
X137099524Y-89444286D01*
X137099524Y-90109524D01*
X137099524Y-89444286D02*
X137039048Y-89323333D01*
X136918096Y-89262857D01*
X136736667Y-89262857D01*
X136615715Y-89323333D01*
X136555239Y-89444286D01*
X136555239Y-90109524D01*
D12*
X163321999Y-80983667D02*
X163321999Y-78613000D01*
X163321999Y-77427667D02*
X163491333Y-77597000D01*
X163321999Y-77766333D01*
X163152666Y-77597000D01*
X163321999Y-77427667D01*
X163321999Y-77766333D01*
X159596666Y-80645000D02*
X159766000Y-80814333D01*
X160274000Y-80983667D01*
X160612666Y-80983667D01*
X161120666Y-80814333D01*
X161459333Y-80475667D01*
X161628666Y-80137000D01*
X161798000Y-79459667D01*
X161798000Y-78951667D01*
X161628666Y-78274333D01*
X161459333Y-77935667D01*
X161120666Y-77597000D01*
X160612666Y-77427667D01*
X160274000Y-77427667D01*
X159766000Y-77597000D01*
X159596666Y-77766333D01*
X158072666Y-79121000D02*
X156887333Y-79121000D01*
X156379333Y-80983667D02*
X158072666Y-80983667D01*
X158072666Y-77427667D01*
X156379333Y-77427667D01*
X153331333Y-78613000D02*
X153331333Y-80983667D01*
X154178000Y-77258333D02*
X155024667Y-79798333D01*
X152823333Y-79798333D01*
X150791333Y-77427667D02*
X150452666Y-77427667D01*
X150114000Y-77597000D01*
X149944666Y-77766333D01*
X149775333Y-78105000D01*
X149606000Y-78782333D01*
X149606000Y-79629000D01*
X149775333Y-80306333D01*
X149944666Y-80645000D01*
X150114000Y-80814333D01*
X150452666Y-80983667D01*
X150791333Y-80983667D01*
X151130000Y-80814333D01*
X151299333Y-80645000D01*
X151468666Y-80306333D01*
X151638000Y-79629000D01*
X151638000Y-78782333D01*
X151468666Y-78105000D01*
X151299333Y-77766333D01*
X151130000Y-77597000D01*
X150791333Y-77427667D01*
X148081999Y-79629000D02*
X145372666Y-79629000D01*
X143679332Y-80983667D02*
X143679332Y-77427667D01*
X142832666Y-77427667D01*
X142324666Y-77597000D01*
X141985999Y-77935667D01*
X141816666Y-78274333D01*
X141647332Y-78951667D01*
X141647332Y-79459667D01*
X141816666Y-80137000D01*
X141985999Y-80475667D01*
X142324666Y-80814333D01*
X142832666Y-80983667D01*
X143679332Y-80983667D01*
X140123332Y-80983667D02*
X140123332Y-77427667D01*
X137752666Y-77427667D02*
X137075333Y-77427667D01*
X136736666Y-77597000D01*
X136397999Y-77935667D01*
X136228666Y-78613000D01*
X136228666Y-79798333D01*
X136397999Y-80475667D01*
X136736666Y-80814333D01*
X137075333Y-80983667D01*
X137752666Y-80983667D01*
X138091333Y-80814333D01*
X138429999Y-80475667D01*
X138599333Y-79798333D01*
X138599333Y-78613000D01*
X138429999Y-77935667D01*
X138091333Y-77597000D01*
X137752666Y-77427667D01*
D13*
X139636500Y-84941833D02*
X139678834Y-84899500D01*
X139763500Y-84772500D01*
X139805834Y-84687833D01*
X139848167Y-84560833D01*
X139890500Y-84349167D01*
X139890500Y-84179833D01*
X139848167Y-83968167D01*
X139805834Y-83841167D01*
X139763500Y-83756500D01*
X139678834Y-83629500D01*
X139636500Y-83587167D01*
X138789833Y-84518500D02*
X138832167Y-84560833D01*
X138959167Y-84603167D01*
X139043833Y-84603167D01*
X139170833Y-84560833D01*
X139255500Y-84476167D01*
X139297833Y-84391500D01*
X139340167Y-84222167D01*
X139340167Y-84095167D01*
X139297833Y-83925833D01*
X139255500Y-83841167D01*
X139170833Y-83756500D01*
X139043833Y-83714167D01*
X138959167Y-83714167D01*
X138832167Y-83756500D01*
X138789833Y-83798833D01*
X138493500Y-84941833D02*
X138451167Y-84899500D01*
X138366500Y-84772500D01*
X138324167Y-84687833D01*
X138281833Y-84560833D01*
X138239500Y-84349167D01*
X138239500Y-84179833D01*
X138281833Y-83968167D01*
X138324167Y-83841167D01*
X138366500Y-83756500D01*
X138451167Y-83629500D01*
X138493500Y-83587167D01*
X137181167Y-83798833D02*
X137138833Y-83756500D01*
X137054167Y-83714167D01*
X136842500Y-83714167D01*
X136757833Y-83756500D01*
X136715500Y-83798833D01*
X136673167Y-83883500D01*
X136673167Y-83968167D01*
X136715500Y-84095167D01*
X137223500Y-84603167D01*
X136673167Y-84603167D01*
X136122833Y-83714167D02*
X136038166Y-83714167D01*
X135953500Y-83756500D01*
X135911166Y-83798833D01*
X135868833Y-83883500D01*
X135826500Y-84052833D01*
X135826500Y-84264500D01*
X135868833Y-84433833D01*
X135911166Y-84518500D01*
X135953500Y-84560833D01*
X136038166Y-84603167D01*
X136122833Y-84603167D01*
X136207500Y-84560833D01*
X136249833Y-84518500D01*
X136292166Y-84433833D01*
X136334500Y-84264500D01*
X136334500Y-84052833D01*
X136292166Y-83883500D01*
X136249833Y-83798833D01*
X136207500Y-83756500D01*
X136122833Y-83714167D01*
X134979833Y-84603167D02*
X135487833Y-84603167D01*
X135233833Y-84603167D02*
X135233833Y-83714167D01*
X135318499Y-83841167D01*
X135403166Y-83925833D01*
X135487833Y-83968167D01*
X134217832Y-83714167D02*
X134387166Y-83714167D01*
X134471832Y-83756500D01*
X134514166Y-83798833D01*
X134598832Y-83925833D01*
X134641166Y-84095167D01*
X134641166Y-84433833D01*
X134598832Y-84518500D01*
X134556499Y-84560833D01*
X134471832Y-84603167D01*
X134302499Y-84603167D01*
X134217832Y-84560833D01*
X134175499Y-84518500D01*
X134133166Y-84433833D01*
X134133166Y-84222167D01*
X134175499Y-84137500D01*
X134217832Y-84095167D01*
X134302499Y-84052833D01*
X134471832Y-84052833D01*
X134556499Y-84095167D01*
X134598832Y-84137500D01*
X134641166Y-84222167D01*
D14*
X125000000Y-120000000D02*
X125000000Y-70000000D01*
X175000000Y-120000000D02*
X125000000Y-120000000D01*
X175000000Y-70000000D02*
X175000000Y-120000000D01*
X125000000Y-70000000D02*
X175000000Y-70000000D01*
X136779000Y-93853000D02*
X140335000Y-100965000D01*
X140335000Y-100965000D02*
X133223000Y-100965000D01*
X133223000Y-100965000D02*
X134556500Y-98298000D01*
X134556500Y-98298000D02*
X135001000Y-97409000D01*
X135001000Y-97409000D02*
X136779000Y-93853000D01*
X138557000Y-97472500D02*
X133223000Y-100965000D01*
X136182100Y-97409000D02*
X135001000Y-97409000D01*
X134556500Y-98298000D02*
X134874000Y-98298000D01*
X137541000Y-99885500D02*
X137388600Y-99885500D01*
X138493500Y-98488500D02*
X138493500Y-99568000D01*
X138049000Y-99885500D02*
X138049000Y-99758500D01*
X138112500Y-99695000D02*
X138112500Y-98679000D01*
X138112500Y-99695000D02*
X138176000Y-99695000D01*
X136398721Y-97345678D02*
G75*
G02X137985500Y-97853500I466639J-1274902D01*
G01*
X136397915Y-97347114D02*
G75*
G02X136182100Y-97409000I-182795J230214D01*
G01*
X134873301Y-98298474D02*
G75*
G02X135382000Y-98488500I64199J-604046D01*
G01*
X136204461Y-98934576D02*
G75*
G02X135382000Y-98488500I147819J1253796D01*
G01*
X136716708Y-98680166D02*
G75*
G02X137668000Y-99441000I-285688J-1332334D01*
G01*
X136778915Y-99124965D02*
G75*
G02X137350500Y-99885500I-284395J-808795D01*
G01*
X136339275Y-98997493D02*
G75*
G02X136779000Y-99123500I-825195J-3709947D01*
G01*
X137667967Y-99758600D02*
G75*
G02X137541000Y-99885500I-190467J63600D01*
G01*
X137667068Y-99441674D02*
G75*
G02X137668000Y-99758500I-316568J-159346D01*
G01*
X138110935Y-98680845D02*
G75*
G02X137414000Y-98234500I153965J1007685D01*
G01*
X138301549Y-98171142D02*
G75*
G02X137985500Y-97853500I478971J792622D01*
G01*
X138304048Y-98172575D02*
G75*
G02X138493500Y-98488500I-168688J-315925D01*
G01*
X138493500Y-99568000D02*
G75*
G02X138112500Y-99949000I-381000J0D01*
G01*
X138110071Y-99951545D02*
G75*
G02X138049000Y-99885500I2429J63505D01*
G01*
X138049000Y-99758500D02*
G75*
G02X138112500Y-99695000I63500J0D01*
G01*
X138176000Y-99695000D02*
G75*
G02X138303000Y-99822000I0J-127000D01*
G01*
D15*
X148696680Y-108381800D02*
X148363940Y-109113320D01*
X148696680Y-108473240D02*
X147515580Y-109486700D01*
X148582380Y-108336080D02*
X147965160Y-108663740D01*
X148262340Y-107916980D02*
X147652740Y-108023660D01*
X147426680Y-106758740D02*
X148148040Y-106906060D01*
X147667980Y-106065320D02*
X148323300Y-106431080D01*
X148536660Y-105196640D02*
X148955760Y-105783380D01*
X149123400Y-104945180D02*
X149344380Y-105630980D01*
X150388320Y-104929940D02*
X150220680Y-105539540D01*
X150822660Y-105189020D02*
X150647400Y-105547160D01*
X151820880Y-105966260D02*
X151363680Y-106255820D01*
X151996140Y-106446320D02*
X151554180Y-106606340D01*
X152321260Y-107690920D02*
X151615140Y-107563920D01*
X152072340Y-108336080D02*
X151508460Y-107856020D01*
X151406860Y-109235240D02*
X151041100Y-108473240D01*
X146616420Y-107182920D02*
X148084540Y-107269280D01*
X147607020Y-104998520D02*
X148719540Y-106065320D01*
X149872700Y-103941880D02*
X149867620Y-105455720D01*
X152133300Y-104917240D02*
X151071580Y-106024680D01*
X153118820Y-107203240D02*
X151701500Y-107142280D01*
X152082500Y-109407960D02*
X151229060Y-108386880D01*
D16*
X151066500Y-107977940D02*
X150759160Y-108244640D01*
X151396700Y-105064560D02*
X150413720Y-104571800D01*
X149217380Y-108569760D02*
X149339300Y-108285280D01*
X149080220Y-108115100D02*
X149334220Y-108280200D01*
X150581360Y-108112560D02*
X150355300Y-108287820D01*
X150949660Y-107998260D02*
X150690580Y-108336080D01*
X151173180Y-107777280D02*
X151079200Y-107947460D01*
X151173180Y-107777280D02*
X151079200Y-107947460D01*
X151310340Y-106923840D02*
X151178260Y-107746800D01*
X150886160Y-106187240D02*
X151305260Y-106918760D01*
X150014940Y-105757980D02*
X150886160Y-106187240D01*
X149199600Y-105925620D02*
X150014940Y-105765600D01*
X148689060Y-106354880D02*
X149199600Y-105925620D01*
X148455380Y-107027980D02*
X148689060Y-106354880D01*
X148460460Y-107533440D02*
X148460460Y-107015280D01*
X148836380Y-108244640D02*
X148460460Y-107533440D01*
X149014180Y-108366560D02*
X148836380Y-108244640D01*
X152285700Y-104345740D02*
X151401780Y-105067100D01*
X152041860Y-105699560D02*
X152643840Y-104790240D01*
X152046940Y-105694480D02*
X152433020Y-106692700D01*
X153576020Y-106961940D02*
X152460960Y-106715560D01*
X153433780Y-106906060D02*
X153433780Y-107556300D01*
X149057360Y-108308140D02*
X148529040Y-109689900D01*
X148666200Y-109987080D02*
X149052280Y-109006640D01*
X148137880Y-109659420D02*
X148666200Y-109987080D01*
X147454620Y-109992160D02*
X148275040Y-109463840D01*
X148318220Y-109687360D02*
X147441920Y-110307120D01*
X147431760Y-110302040D02*
X146748500Y-109611160D01*
X147035520Y-109527340D02*
X147520660Y-110058200D01*
X147002500Y-107891580D02*
X147383500Y-108872020D01*
X147106640Y-107924600D02*
X145983960Y-107713780D01*
X145968720Y-106735880D02*
X145971260Y-107693460D01*
X146052540Y-107477560D02*
X147159980Y-107701080D01*
X147355560Y-105707180D02*
X146989800Y-106575860D01*
X146740880Y-104825800D02*
X147444460Y-105816400D01*
X147439380Y-104127300D02*
X146745960Y-104818180D01*
X148455380Y-104802940D02*
X147444460Y-104129840D01*
X149141180Y-104416860D02*
X148336000Y-104754680D01*
X149357080Y-103327200D02*
X149131020Y-104498140D01*
X150322280Y-103327200D02*
X149357080Y-103327200D01*
X150332440Y-103334820D02*
X150533100Y-104360980D01*
X151320500Y-104729280D02*
X150416260Y-104350820D01*
X152255220Y-104081580D02*
X151284940Y-104797860D01*
X152941020Y-104797860D02*
X152267920Y-104084120D01*
X152920700Y-104833420D02*
X152326340Y-105686860D01*
X152659080Y-106517440D02*
X152323800Y-105684320D01*
X153728420Y-106715560D02*
X152557480Y-106512360D01*
X153725880Y-106718100D02*
X153725880Y-107703620D01*
X153725880Y-107711240D02*
X152654000Y-107906820D01*
X152963880Y-109618780D02*
X152366980Y-108755180D01*
X152234900Y-110314740D02*
X152956260Y-109621320D01*
X151401780Y-109743240D02*
X152227280Y-110307120D01*
X151389080Y-109753400D02*
X151043640Y-109974380D01*
X151005540Y-109956600D02*
X150355300Y-108287820D01*
D17*
X147439380Y-110147100D02*
X146885660Y-109601000D01*
X147505420Y-108706920D02*
X146885660Y-109593380D01*
X150761700Y-106309160D02*
G75*
G02X150685500Y-108163360I-965200J-889000D01*
G01*
X148810980Y-106481880D02*
G75*
G02X150736300Y-106283760I1061720J-863600D01*
G01*
X149191980Y-108331000D02*
G75*
G02X148821140Y-106466640I746760J1117600D01*
G01*
X148628100Y-109773720D02*
X149202140Y-108333540D01*
X148290280Y-109588300D02*
X148628100Y-109773720D01*
X147454620Y-110154720D02*
X148290280Y-109588300D01*
X147099020Y-107795060D02*
X147505420Y-108706920D01*
X146085560Y-107624880D02*
X147099020Y-107795060D01*
X146085560Y-106789220D02*
X146085560Y-107624880D01*
X147167600Y-106560620D02*
X146085560Y-106789220D01*
X147507960Y-105623360D02*
X147167600Y-106560620D01*
X146890740Y-104833420D02*
X147507960Y-105623360D01*
X147444460Y-104284780D02*
X146890740Y-104830880D01*
X148348700Y-104917240D02*
X147444460Y-104282800D01*
X149263100Y-104472740D02*
X148361400Y-104922320D01*
X149476460Y-103454200D02*
X149263100Y-104472740D01*
X150243540Y-103433880D02*
X149458680Y-103433880D01*
X150235920Y-103446580D02*
X150441660Y-104460040D01*
X151340820Y-104886760D02*
X150495000Y-104480360D01*
X152229820Y-104244140D02*
X151401780Y-104896920D01*
D18*
X152778460Y-104802940D02*
X152278080Y-104269540D01*
D17*
X152768300Y-104825800D02*
X152212040Y-105676700D01*
X152539700Y-106593640D02*
X152191720Y-105727500D01*
X153588720Y-106809540D02*
X152570180Y-106629200D01*
D18*
X153576020Y-106822240D02*
X153581100Y-107609640D01*
D17*
X153586180Y-107599480D02*
X152636220Y-107817920D01*
X152608280Y-107840780D02*
X152250140Y-108724700D01*
X152783540Y-109601000D02*
X152250140Y-108767880D01*
D18*
X152798780Y-109601000D02*
X152234900Y-110139480D01*
D19*
X152222200Y-110139480D02*
X151442420Y-109608620D01*
D17*
X151432260Y-109590840D02*
X151114760Y-109796580D01*
D20*
X151086820Y-109776260D02*
X150535640Y-108353860D01*
D21*
X133891020Y-113238280D02*
X136324340Y-110817660D01*
D14*
X136854037Y-112074960D02*
G75*
G03X136854037Y-112074960I-1802237J0D01*
G01*
D22*
X164465000Y-113030000D02*
G75*
G03X164465000Y-113030000I-127000J0D01*
G01*
D14*
X164211000Y-109728000D02*
G75*
G02X166497000Y-109728000I1143000J-1143000D01*
G01*
X165481000Y-108966000D02*
X165481000Y-109093000D01*
X165481000Y-109093000D02*
X165100000Y-109093000D01*
X165100000Y-109093000D02*
X165100000Y-108966000D01*
X165100000Y-108966000D02*
X165481000Y-108966000D01*
X165354000Y-110490000D02*
X164719000Y-110490000D01*
X165481000Y-110363000D02*
X164592000Y-110363000D01*
X164592000Y-110363000D02*
X164592000Y-110744000D01*
X164592000Y-110744000D02*
X165481000Y-110744000D01*
X165481000Y-110744000D02*
X165481000Y-110363000D01*
X164084000Y-110363000D02*
X164084000Y-109982000D01*
X164084000Y-109982000D02*
X163957000Y-109982000D01*
X163957000Y-109982000D02*
X163957000Y-110363000D01*
X164084000Y-109982000D02*
X164084000Y-110109000D01*
X164084000Y-109855000D02*
X163957000Y-110236000D01*
X164084000Y-109982000D02*
X164084000Y-110109000D01*
X164211000Y-109855000D02*
X164211000Y-110363000D01*
X164211000Y-110363000D02*
X163830000Y-110363000D01*
X163830000Y-110363000D02*
X163830000Y-109855000D01*
X166243000Y-109728000D02*
X166243000Y-109220000D01*
X166243000Y-109220000D02*
X166116000Y-109220000D01*
X166116000Y-109220000D02*
X166116000Y-109728000D01*
X164739609Y-113030000D02*
G75*
G03X164739609Y-113030000I-401609J0D01*
G01*
X164338000Y-112522000D02*
X164211000Y-110490000D01*
X166243000Y-113030000D02*
X166243000Y-113411000D01*
X166243000Y-113411000D02*
X165735000Y-113411000D01*
X165735000Y-113411000D02*
X165735000Y-113157000D01*
X166751000Y-109855000D02*
X163830000Y-109855000D01*
X166243000Y-113030000D02*
X166497000Y-109982000D01*
X166243000Y-113030000D02*
X164846000Y-113030000D01*
X167259000Y-113411000D02*
X163195000Y-109474000D01*
X167386000Y-109347000D02*
X163195000Y-113538000D01*
D16*
X167541200Y-114783400D02*
X163121600Y-114783400D01*
X163121600Y-114681800D02*
X167490400Y-114681800D01*
X167541200Y-114478600D02*
X163070800Y-114478600D01*
X167541200Y-114326200D02*
X163121600Y-114326200D01*
X163070800Y-114580200D02*
X167490400Y-114580200D01*
X163070800Y-114427800D02*
X167490400Y-114427800D01*
X167541200Y-114275400D02*
X163070800Y-114275400D01*
X163070800Y-114173800D02*
X167490400Y-114173800D01*
X163020000Y-114885000D02*
X167592000Y-114885000D01*
X167592000Y-114885000D02*
X167592000Y-114123000D01*
X167592000Y-114123000D02*
X163020000Y-114123000D01*
X163020000Y-114123000D02*
X163020000Y-114885000D01*
D14*
X145796000Y-97917000D02*
X157607000Y-97917000D01*
X157607000Y-100965000D02*
X145796000Y-100965000D01*
X144940020Y-96934020D02*
X144886680Y-96880680D01*
X144167860Y-96880680D02*
X143891000Y-97155000D01*
X150749000Y-91948000D02*
X149882860Y-94063820D01*
X147899120Y-96451420D02*
X147863560Y-96486980D01*
X145994120Y-97155000D02*
X145478500Y-97155000D01*
X150749000Y-91948000D02*
X149887940Y-92567760D01*
X148170900Y-92905580D02*
X146022060Y-92710000D01*
X143972280Y-94226380D02*
X143824960Y-94825820D01*
X143766540Y-95504000D02*
X143766540Y-95885000D01*
X143868140Y-97109280D02*
X143891000Y-97155000D01*
X144526000Y-98425000D02*
X144340580Y-98239580D01*
X149354540Y-93599000D02*
X149072600Y-93946980D01*
X147045680Y-94698820D02*
X146735800Y-94759780D01*
X144180560Y-96029780D02*
X144010380Y-96217740D01*
X143766540Y-95885000D02*
X143769080Y-95882460D01*
X144825720Y-94810580D02*
X144833340Y-94805500D01*
X146100800Y-94302580D02*
X146618960Y-94228920D01*
X147967700Y-94013020D02*
X149354540Y-93599000D01*
X144526000Y-98552000D02*
X144018000Y-97790000D01*
X143891000Y-97327720D02*
X143891000Y-97282000D01*
X144653000Y-98425000D02*
X144162780Y-97934780D01*
X143891000Y-97663000D02*
X143786860Y-97769680D01*
X143136620Y-97797620D02*
X143002000Y-97663000D01*
X143002000Y-97663000D02*
X143299180Y-97243900D01*
X143182340Y-96042480D02*
X143129000Y-95948500D01*
X142407640Y-95303340D02*
X141986000Y-95123000D01*
X141986000Y-95123000D02*
X140970000Y-94742000D01*
X140970000Y-94742000D02*
X141104620Y-95280480D01*
X141284960Y-97342960D02*
X141307820Y-97365820D01*
X142087600Y-97663000D02*
X142443200Y-97663000D01*
X142989300Y-97663000D02*
X143002000Y-97663000D01*
X141909800Y-96471740D02*
X141935200Y-96862900D01*
X150368000Y-92456000D02*
X149354540Y-93093540D01*
D23*
X149354540Y-93093540D02*
X148209000Y-93093540D01*
X148209000Y-93093540D02*
X147193000Y-92964000D01*
X147193000Y-92964000D02*
X145542000Y-92964000D01*
X145542000Y-92964000D02*
X144907000Y-93345000D01*
X144907000Y-93345000D02*
X144399000Y-93853000D01*
X144399000Y-93853000D02*
X144145000Y-94361000D01*
X144145000Y-94361000D02*
X144018000Y-95377000D01*
X144018000Y-95377000D02*
X144526000Y-94742000D01*
X144526000Y-94742000D02*
X145161000Y-94361000D01*
X145161000Y-94361000D02*
X144907000Y-93853000D01*
X144907000Y-93853000D02*
X144526000Y-94361000D01*
X145288000Y-94361000D02*
X145923000Y-93980000D01*
X145923000Y-93980000D02*
X146431000Y-93980000D01*
X146431000Y-93980000D02*
X146558000Y-93980000D01*
X146558000Y-93980000D02*
X147701000Y-93853000D01*
X147701000Y-93853000D02*
X148971000Y-93472000D01*
X148971000Y-93472000D02*
X149479000Y-93345000D01*
X149479000Y-93345000D02*
X144907000Y-93345000D01*
X144907000Y-93345000D02*
X144907000Y-93599000D01*
X144907000Y-93853000D02*
X144907000Y-93599000D01*
X144907000Y-93599000D02*
X149860000Y-93522800D01*
X144780000Y-93980000D02*
X146431000Y-93980000D01*
X150368000Y-92456000D02*
X149860000Y-93345000D01*
X149860000Y-93345000D02*
X149733000Y-93853000D01*
X149733000Y-93853000D02*
X149354540Y-94361000D01*
X149354540Y-94361000D02*
X149354540Y-93980000D01*
X149354540Y-93980000D02*
X149733000Y-93093540D01*
X149225000Y-94488000D02*
X148844000Y-94996000D01*
X148844000Y-94996000D02*
X148590000Y-95377000D01*
X148590000Y-95377000D02*
X147701000Y-96266000D01*
X147701000Y-96266000D02*
X147193000Y-96647000D01*
X147193000Y-96647000D02*
X146304000Y-96901000D01*
X146304000Y-96901000D02*
X145415000Y-96901000D01*
X145415000Y-96901000D02*
X144653000Y-96393000D01*
X144653000Y-96393000D02*
X144272000Y-96520000D01*
X144272000Y-96520000D02*
X144018000Y-96774000D01*
X144018000Y-96774000D02*
X144272000Y-96266000D01*
X144272000Y-96266000D02*
X144780000Y-95758000D01*
X144780000Y-95758000D02*
X145465800Y-95351600D01*
X145465800Y-95351600D02*
X146862800Y-94869000D01*
X146862800Y-94869000D02*
X147472400Y-94869000D01*
X147472400Y-94869000D02*
X148209000Y-94615000D01*
X148209000Y-94615000D02*
X148971000Y-94234000D01*
X148844000Y-94615000D02*
X148082000Y-95250000D01*
X148082000Y-95250000D02*
X147955000Y-95123000D01*
X147955000Y-95123000D02*
X147828000Y-95123000D01*
X147828000Y-95123000D02*
X146685000Y-95250000D01*
X146685000Y-95250000D02*
X145669000Y-95504000D01*
X145669000Y-95504000D02*
X145034000Y-96012000D01*
X145034000Y-96012000D02*
X144907000Y-96139000D01*
X144907000Y-96139000D02*
X145034000Y-96393000D01*
X145034000Y-96393000D02*
X145288000Y-96393000D01*
X145288000Y-96393000D02*
X145669000Y-96520000D01*
X145669000Y-96520000D02*
X146304000Y-96520000D01*
X146304000Y-96520000D02*
X146685000Y-96393000D01*
X146685000Y-96393000D02*
X147193000Y-96266000D01*
X147193000Y-96266000D02*
X147828000Y-95758000D01*
X147828000Y-95758000D02*
X147955000Y-95631000D01*
X147955000Y-95631000D02*
X147828000Y-95504000D01*
X147828000Y-95504000D02*
X147320000Y-95504000D01*
X147320000Y-95504000D02*
X146304000Y-95758000D01*
X146304000Y-95758000D02*
X146050000Y-95758000D01*
X146050000Y-95758000D02*
X145542000Y-96012000D01*
X145542000Y-96012000D02*
X145542000Y-96139000D01*
X145542000Y-96139000D02*
X145669000Y-96266000D01*
X145669000Y-96266000D02*
X146050000Y-96139000D01*
X146050000Y-96139000D02*
X147320000Y-95885000D01*
D14*
X142699740Y-97538540D02*
X142727680Y-97566480D01*
X142316200Y-96469200D02*
X142316200Y-96461580D01*
X143256000Y-96923860D02*
X143256000Y-96901000D01*
X143256000Y-96901000D02*
X143256000Y-96647000D01*
X143256000Y-96647000D02*
X143129000Y-96647000D01*
X143129000Y-96647000D02*
X143002000Y-96647000D01*
X143002000Y-96647000D02*
X143002000Y-97282000D01*
X143129000Y-96647000D02*
X143129000Y-96774000D01*
X143129000Y-96774000D02*
X143129000Y-97155000D01*
X143129000Y-97155000D02*
X143129000Y-97282000D01*
X143129000Y-97282000D02*
X143129000Y-97409000D01*
X143002000Y-96647000D02*
X142621000Y-96647000D01*
X142621000Y-96647000D02*
X142367000Y-96647000D01*
X142367000Y-96647000D02*
X142875000Y-97536000D01*
X142621000Y-96647000D02*
X142621000Y-97155000D01*
X143129000Y-96774000D02*
X142494000Y-96774000D01*
X143256000Y-96901000D02*
X142494000Y-96901000D01*
X143256000Y-97028000D02*
X142494000Y-97028000D01*
X143129000Y-97155000D02*
X142494000Y-97155000D01*
X143129000Y-97282000D02*
X142621000Y-97282000D01*
X142367000Y-96520000D02*
X143256000Y-96520000D01*
X142367000Y-96393000D02*
X143256000Y-96393000D01*
X142367000Y-96266000D02*
X143129000Y-96266000D01*
X142367000Y-96139000D02*
X143129000Y-96139000D01*
X142240000Y-96012000D02*
X143129000Y-96012000D01*
X142240000Y-95885000D02*
X143002000Y-95885000D01*
X142113000Y-95758000D02*
X142875000Y-95758000D01*
X142113000Y-95631000D02*
X142748000Y-95631000D01*
X141986000Y-95504000D02*
X142494000Y-95504000D01*
X141224000Y-95377000D02*
X141351000Y-95377000D01*
X141351000Y-95377000D02*
X141478000Y-95377000D01*
X141478000Y-95377000D02*
X142367000Y-95377000D01*
X141986000Y-95250000D02*
X141224000Y-95250000D01*
X141732000Y-95123000D02*
X141097000Y-95123000D01*
X141605000Y-94996000D02*
X141097000Y-94996000D01*
X141478000Y-95377000D02*
X141478000Y-95885000D01*
X141351000Y-95377000D02*
X141351000Y-95885000D01*
X141732000Y-95885000D02*
X141224000Y-95885000D01*
X141732000Y-96012000D02*
X141224000Y-96012000D01*
X141859000Y-96139000D02*
X141224000Y-96139000D01*
X141859000Y-96266000D02*
X141097000Y-96266000D01*
X141859000Y-96393000D02*
X141097000Y-96393000D01*
X141859000Y-96520000D02*
X141097000Y-96520000D01*
X141859000Y-96647000D02*
X141097000Y-96647000D01*
X141859000Y-96774000D02*
X141097000Y-96774000D01*
X141859000Y-96901000D02*
X141097000Y-96901000D01*
X141935200Y-97028000D02*
X141097000Y-97028000D01*
X141986000Y-97155000D02*
X141224000Y-97155000D01*
X141986000Y-97282000D02*
X141351000Y-97282000D01*
X142113000Y-97409000D02*
X141478000Y-97409000D01*
X142240000Y-97536000D02*
X141732000Y-97536000D01*
X144272000Y-99441000D02*
G75*
G02X145796000Y-97917000I1524000J0D01*
G01*
X157607000Y-97917000D02*
G75*
G02X159131000Y-99441000I0J-1524000D01*
G01*
X159131000Y-99441000D02*
G75*
G02X157607000Y-100965000I-1524000J0D01*
G01*
X145796000Y-100965000D02*
G75*
G02X144272000Y-99441000I0J1524000D01*
G01*
X145478500Y-97157066D02*
G75*
G02X144940020Y-96934020I0J761526D01*
G01*
X144167860Y-96878140D02*
G75*
G02X144886680Y-96880680I358140J-360680D01*
G01*
X149880464Y-94069447D02*
G75*
G02X147899120Y-96451420I-8344044J4925607D01*
G01*
X147859933Y-96489013D02*
G75*
G02X145994120Y-97155000I-1738813J1924813D01*
G01*
X149885952Y-92565522D02*
G75*
G02X148170900Y-92905580I-1268012J1900222D01*
G01*
X143971736Y-94222585D02*
G75*
G02X146022060Y-92710000I2144304J-760715D01*
G01*
X143764760Y-95503243D02*
G75*
G02X143824960Y-94825820I3049780J70363D01*
G01*
X144338549Y-98240559D02*
G75*
G02X143891000Y-97155000I1086611J1083019D01*
G01*
X149072541Y-93948778D02*
G75*
G02X147045680Y-94698820I-2631381J3997218D01*
G01*
X144181473Y-96029156D02*
G75*
G02X146735800Y-94759780I3654147J-4148444D01*
G01*
X143890155Y-97155069D02*
G75*
G02X144010380Y-96217740I762845J378529D01*
G01*
X143770641Y-95880765D02*
G75*
G02X144825720Y-94810580I3831299J-2722035D01*
G01*
X144837130Y-94802934D02*
G75*
G02X146100800Y-94302580I2134890J-3545866D01*
G01*
X147961379Y-94013186D02*
G75*
G02X146618960Y-94228920I-1812319J6992786D01*
G01*
X144396978Y-98552280D02*
G75*
G02X143891000Y-97327720I1228842J1224560D01*
G01*
X144159258Y-97934710D02*
G75*
G02X143891000Y-97282000I653762J650170D01*
G01*
X143786134Y-97768954D02*
G75*
G02X143428720Y-97917000I-357414J357414D01*
G01*
X143428720Y-97918612D02*
G75*
G02X143136620Y-97797620I0J413092D01*
G01*
X143384874Y-96799901D02*
G75*
G02X143299180Y-97243900I-1195674J501D01*
G01*
X143182794Y-96044321D02*
G75*
G02X143383000Y-96799400I-1323794J-755079D01*
G01*
X142407000Y-95304511D02*
G75*
G02X143129000Y-95948500I-601340J-1400909D01*
G01*
X141105148Y-95283136D02*
G75*
G02X141041120Y-96217740I-1478808J-368184D01*
G01*
X140970283Y-96586487D02*
G75*
G02X141041120Y-96217740I992857J447D01*
G01*
X141283946Y-97343974D02*
G75*
G02X140970000Y-96586040I757934J757934D01*
G01*
X141887497Y-97639453D02*
G75*
G02X141307820Y-97365820I205183J1185493D01*
G01*
X142088927Y-97664303D02*
G75*
G02X141889480Y-97640140I-1327J824263D01*
G01*
X141555795Y-95524066D02*
G75*
G02X141909800Y-96514920I-1408755J-1061974D01*
G01*
X142437340Y-97658613D02*
G75*
G02X141935200Y-96862900I709440J1003993D01*
G01*
X143003788Y-97664791D02*
G75*
G02X142699740Y-97538540I752J431051D01*
G01*
X142726340Y-97566046D02*
G75*
G02X142316200Y-96469200I1118940J1043506D01*
G01*
X141809020Y-95430180D02*
G75*
G02X142316200Y-96461580I-991420J-1127920D01*
G01*
X143255556Y-96925371D02*
G75*
G02X143002000Y-97536000I-865696J1511D01*
G01*
D10*
X145173700Y-83896200D02*
X143802100Y-83896200D01*
X143802100Y-83896200D02*
X143751300Y-83896200D01*
X143751300Y-83896200D02*
X142494000Y-85140800D01*
X146697700Y-84010500D02*
X146596100Y-84010500D01*
X146545300Y-83947000D02*
X146545300Y-83934300D01*
X146545300Y-83934300D02*
X147840700Y-83934300D01*
X147840700Y-83934300D02*
X147866100Y-83934300D01*
X147866100Y-83934300D02*
X148488400Y-84429600D01*
X146545300Y-86956900D02*
X146545300Y-83947000D01*
X150202900Y-83997800D02*
X150279100Y-83997800D01*
X150355300Y-83934300D02*
X149110700Y-83934300D01*
X149110700Y-83934300D02*
X148526500Y-84416900D01*
X150355300Y-86931500D02*
X150355300Y-83947000D01*
X151091900Y-86525100D02*
X151003000Y-86525100D01*
X151434800Y-86525100D02*
X151498300Y-86525100D01*
X151574500Y-86588600D02*
X150964900Y-86588600D01*
X150964900Y-86588600D02*
X150939500Y-86588600D01*
X150939500Y-86588600D02*
X150939500Y-84569300D01*
X151574500Y-84569300D02*
X151574500Y-86588600D01*
X153073100Y-83959700D02*
X152958800Y-83959700D01*
X153200100Y-83883500D02*
X152895300Y-83883500D01*
X152895300Y-83883500D02*
X152895300Y-86918800D01*
X153377900Y-83972400D02*
X153441400Y-83959700D01*
X153492200Y-83883500D02*
X153504900Y-83883500D01*
X153504900Y-83883500D02*
X153517600Y-83883500D01*
X153517600Y-83883500D02*
X153517600Y-87033100D01*
X153212800Y-83883500D02*
X153492200Y-83883500D01*
D24*
X153212800Y-86956900D02*
X153212800Y-84226400D01*
X146875500Y-84239100D02*
X146875500Y-86842600D01*
X154990800Y-84226400D02*
X155994100Y-84226400D01*
X154368500Y-84836000D02*
X154368500Y-86766400D01*
X156591000Y-84874100D02*
X156591000Y-85115400D01*
X156591000Y-86842600D02*
X156006800Y-87414100D01*
X156578300Y-86855300D02*
X156578300Y-86093300D01*
X156019500Y-87414100D02*
X154978100Y-87414100D01*
D19*
X144250659Y-85801200D02*
G75*
G03X144250659Y-85801200I-359659J0D01*
G01*
D24*
X144399000Y-85801200D02*
X145618200Y-85801200D01*
D19*
X141316735Y-84061300D02*
G75*
G03X141316735Y-84061300I-359435J0D01*
G01*
D24*
X141325600Y-84416900D02*
X142189200Y-85310600D01*
D25*
X142748000Y-85407500D02*
X142189200Y-85407500D01*
D24*
X143865600Y-84226400D02*
X142773400Y-85293200D01*
X145087500Y-84226400D02*
X143865600Y-84226400D01*
X145618200Y-84709000D02*
X145135600Y-84201000D01*
X145618200Y-84734400D02*
X145618200Y-86969600D01*
X145618200Y-86969600D02*
X145186400Y-87401400D01*
X145186400Y-87401400D02*
X143865600Y-87401400D01*
X143865600Y-87401400D02*
X142722600Y-86283800D01*
D25*
X142722600Y-86182200D02*
X142189200Y-86182200D01*
D24*
X141376400Y-87096600D02*
X142214600Y-86283800D01*
D19*
X141375666Y-87452200D02*
G75*
G03X141375666Y-87452200I-329466J0D01*
G01*
X147238729Y-87363300D02*
G75*
G03X147238729Y-87363300I-363229J0D01*
G01*
D24*
X147777200Y-84251800D02*
X146888200Y-84251800D01*
D19*
X148859318Y-86080600D02*
G75*
G03X148859318Y-86080600I-370918J0D01*
G01*
D24*
X148412200Y-84759800D02*
X147777200Y-84251800D01*
X148488400Y-85547200D02*
X148488400Y-84836000D01*
X149199600Y-84251800D02*
X148590000Y-84759800D01*
X150037800Y-84251800D02*
X149199600Y-84251800D01*
X150037800Y-86842600D02*
X150037800Y-84251800D01*
D19*
X150384759Y-87350600D02*
G75*
G03X150384759Y-87350600I-359659J0D01*
G01*
X151617818Y-84150200D02*
G75*
G03X151617818Y-84150200I-373518J0D01*
G01*
D24*
X151257000Y-84683600D02*
X151257000Y-86283800D01*
D19*
X151623324Y-87376000D02*
G75*
G03X151623324Y-87376000I-366324J0D01*
G01*
D24*
X151769800Y-87401400D02*
X152755600Y-87401400D01*
X152755600Y-87401400D02*
X153212800Y-86944200D01*
X154381200Y-86804500D02*
X154940000Y-87388700D01*
X154990800Y-84239100D02*
X154355800Y-84848700D01*
X156591000Y-84823300D02*
X156083000Y-84315300D01*
D19*
X156915747Y-85598000D02*
G75*
G03X156915747Y-85598000I-337447J0D01*
G01*
D26*
X150490798Y-112034581D02*
X150490798Y-111034581D01*
X150062226Y-112034581D02*
X150062226Y-111510771D01*
X150109845Y-111415533D01*
X150205083Y-111367914D01*
X150347941Y-111367914D01*
X150443179Y-111415533D01*
X150490798Y-111463152D01*
X149157464Y-112034581D02*
X149157464Y-111510771D01*
X149205083Y-111415533D01*
X149300321Y-111367914D01*
X149490798Y-111367914D01*
X149586036Y-111415533D01*
X149157464Y-111986962D02*
X149252702Y-112034581D01*
X149490798Y-112034581D01*
X149586036Y-111986962D01*
X149633655Y-111891724D01*
X149633655Y-111796486D01*
X149586036Y-111701248D01*
X149490798Y-111653629D01*
X149252702Y-111653629D01*
X149157464Y-111606010D01*
X148681274Y-112034581D02*
X148681274Y-111367914D01*
X148681274Y-111558390D02*
X148633655Y-111463152D01*
X148586036Y-111415533D01*
X148490798Y-111367914D01*
X148395559Y-111367914D01*
X147633654Y-112034581D02*
X147633654Y-111034581D01*
X147633654Y-111986962D02*
X147728892Y-112034581D01*
X147919369Y-112034581D01*
X148014607Y-111986962D01*
X148062226Y-111939343D01*
X148109845Y-111844105D01*
X148109845Y-111558390D01*
X148062226Y-111463152D01*
X148014607Y-111415533D01*
X147919369Y-111367914D01*
X147728892Y-111367914D01*
X147633654Y-111415533D01*
X147252702Y-111367914D02*
X147062226Y-112034581D01*
X146871749Y-111558390D01*
X146681273Y-112034581D01*
X146490797Y-111367914D01*
X145681273Y-112034581D02*
X145681273Y-111510771D01*
X145728892Y-111415533D01*
X145824130Y-111367914D01*
X146014607Y-111367914D01*
X146109845Y-111415533D01*
X145681273Y-111986962D02*
X145776511Y-112034581D01*
X146014607Y-112034581D01*
X146109845Y-111986962D01*
X146157464Y-111891724D01*
X146157464Y-111796486D01*
X146109845Y-111701248D01*
X146014607Y-111653629D01*
X145776511Y-111653629D01*
X145681273Y-111606010D01*
X145205083Y-112034581D02*
X145205083Y-111367914D01*
X145205083Y-111558390D02*
X145157464Y-111463152D01*
X145109845Y-111415533D01*
X145014607Y-111367914D01*
X144919368Y-111367914D01*
X144205082Y-111986962D02*
X144300320Y-112034581D01*
X144490797Y-112034581D01*
X144586035Y-111986962D01*
X144633654Y-111891724D01*
X144633654Y-111510771D01*
X144586035Y-111415533D01*
X144490797Y-111367914D01*
X144300320Y-111367914D01*
X144205082Y-111415533D01*
X144157463Y-111510771D01*
X144157463Y-111606010D01*
X144633654Y-111701248D01*
D14*
X154806297Y-111988379D02*
X154911059Y-111935998D01*
X154963440Y-111883617D01*
X155015821Y-111778855D01*
X155015821Y-111464570D01*
X154963440Y-111359808D01*
X154911059Y-111307427D01*
X154806297Y-111255046D01*
X154649155Y-111255046D01*
X154544393Y-111307427D01*
X154492012Y-111359808D01*
X154439631Y-111464570D01*
X154439631Y-111778855D01*
X154492012Y-111883617D01*
X154544393Y-111935998D01*
X154649155Y-111988379D01*
X154806297Y-111988379D01*
X153968202Y-111255046D02*
X153968202Y-112355046D01*
X153968202Y-111307427D02*
X153863440Y-111255046D01*
X153653917Y-111255046D01*
X153549155Y-111307427D01*
X153496774Y-111359808D01*
X153444393Y-111464570D01*
X153444393Y-111778855D01*
X153496774Y-111883617D01*
X153549155Y-111935998D01*
X153653917Y-111988379D01*
X153863440Y-111988379D01*
X153968202Y-111935998D01*
X152553917Y-111935998D02*
X152658679Y-111988379D01*
X152868202Y-111988379D01*
X152972964Y-111935998D01*
X153025345Y-111831236D01*
X153025345Y-111412189D01*
X152972964Y-111307427D01*
X152868202Y-111255046D01*
X152658679Y-111255046D01*
X152553917Y-111307427D01*
X152501536Y-111412189D01*
X152501536Y-111516950D01*
X153025345Y-111621712D01*
X152030107Y-111255046D02*
X152030107Y-111988379D01*
X152030107Y-111359808D02*
X151977726Y-111307427D01*
X151872964Y-111255046D01*
X151715822Y-111255046D01*
X151611060Y-111307427D01*
X151558679Y-111412189D01*
X151558679Y-111988379D01*
D16*
D14*
X136240068Y-112864328D02*
X136240068Y-111164328D01*
X135668640Y-111164328D01*
X135525782Y-111245280D01*
X135454354Y-111326232D01*
X135382925Y-111488137D01*
X135382925Y-111730994D01*
X135454354Y-111892899D01*
X135525782Y-111973851D01*
X135668640Y-112054804D01*
X136240068Y-112054804D01*
X134740068Y-112864328D02*
X134740068Y-111164328D01*
X134740068Y-111811947D02*
X134597211Y-111730994D01*
X134311497Y-111730994D01*
X134168640Y-111811947D01*
X134097211Y-111892899D01*
X134025782Y-112054804D01*
X134025782Y-112540518D01*
X134097211Y-112702423D01*
X134168640Y-112783375D01*
X134311497Y-112864328D01*
X134597211Y-112864328D01*
X134740068Y-112783375D01*
D25*
X156585634Y-97191082D02*
X157252301Y-96238701D01*
X157728492Y-97191082D02*
X157728492Y-95191082D01*
X156966587Y-95191082D01*
X156776111Y-95286320D01*
X156680872Y-95381558D01*
X156585634Y-95572034D01*
X156585634Y-95857749D01*
X156680872Y-96048225D01*
X156776111Y-96143463D01*
X156966587Y-96238701D01*
X157728492Y-96238701D01*
X155442777Y-97191082D02*
X155633253Y-97095844D01*
X155728492Y-97000606D01*
X155823730Y-96810130D01*
X155823730Y-96238701D01*
X155728492Y-96048225D01*
X155633253Y-95952987D01*
X155442777Y-95857749D01*
X155157063Y-95857749D01*
X154966587Y-95952987D01*
X154871349Y-96048225D01*
X154776111Y-96238701D01*
X154776111Y-96810130D01*
X154871349Y-97000606D01*
X154966587Y-97095844D01*
X155157063Y-97191082D01*
X155442777Y-97191082D01*
X153918968Y-97191082D02*
X153918968Y-95191082D01*
X153918968Y-96143463D02*
X152776110Y-96143463D01*
X152776110Y-97191082D02*
X152776110Y-95191082D01*
X151918968Y-97095844D02*
X151633253Y-97191082D01*
X151157063Y-97191082D01*
X150966587Y-97095844D01*
X150871349Y-97000606D01*
X150776110Y-96810130D01*
X150776110Y-96619653D01*
X150871349Y-96429177D01*
X150966587Y-96333939D01*
X151157063Y-96238701D01*
X151538015Y-96143463D01*
X151728491Y-96048225D01*
X151823730Y-95952987D01*
X151918968Y-95762510D01*
X151918968Y-95572034D01*
X151823730Y-95381558D01*
X151728491Y-95286320D01*
X151538015Y-95191082D01*
X151061825Y-95191082D01*
X150776110Y-95286320D01*
D27*
X157164194Y-100126800D02*
X157248860Y-100211467D01*
X157502860Y-100296133D01*
X157672194Y-100296133D01*
X157926194Y-100211467D01*
X158095527Y-100042133D01*
X158180194Y-99872800D01*
X158264860Y-99534133D01*
X158264860Y-99280133D01*
X158180194Y-98941467D01*
X158095527Y-98772133D01*
X157926194Y-98602800D01*
X157672194Y-98518133D01*
X157502860Y-98518133D01*
X157248860Y-98602800D01*
X157164194Y-98687467D01*
X156148194Y-100296133D02*
X156317527Y-100211467D01*
X156402194Y-100126800D01*
X156486860Y-99957467D01*
X156486860Y-99449467D01*
X156402194Y-99280133D01*
X156317527Y-99195467D01*
X156148194Y-99110800D01*
X155894194Y-99110800D01*
X155724860Y-99195467D01*
X155640194Y-99280133D01*
X155555527Y-99449467D01*
X155555527Y-99957467D01*
X155640194Y-100126800D01*
X155724860Y-100211467D01*
X155894194Y-100296133D01*
X156148194Y-100296133D01*
X154793527Y-100296133D02*
X154793527Y-99110800D01*
X154793527Y-99280133D02*
X154708860Y-99195467D01*
X154539527Y-99110800D01*
X154285527Y-99110800D01*
X154116193Y-99195467D01*
X154031527Y-99364800D01*
X154031527Y-100296133D01*
X154031527Y-99364800D02*
X153946860Y-99195467D01*
X153777527Y-99110800D01*
X153523527Y-99110800D01*
X153354193Y-99195467D01*
X153269527Y-99364800D01*
X153269527Y-100296133D01*
X152422860Y-99110800D02*
X152422860Y-100888800D01*
X152422860Y-99195467D02*
X152253526Y-99110800D01*
X151914860Y-99110800D01*
X151745526Y-99195467D01*
X151660860Y-99280133D01*
X151576193Y-99449467D01*
X151576193Y-99957467D01*
X151660860Y-100126800D01*
X151745526Y-100211467D01*
X151914860Y-100296133D01*
X152253526Y-100296133D01*
X152422860Y-100211467D01*
X150560193Y-100296133D02*
X150729526Y-100211467D01*
X150814193Y-100042133D01*
X150814193Y-98518133D01*
X149882860Y-100296133D02*
X149882860Y-99110800D01*
X149882860Y-98518133D02*
X149967526Y-98602800D01*
X149882860Y-98687467D01*
X149798193Y-98602800D01*
X149882860Y-98518133D01*
X149882860Y-98687467D01*
X148274193Y-100296133D02*
X148274193Y-99364800D01*
X148358859Y-99195467D01*
X148528193Y-99110800D01*
X148866859Y-99110800D01*
X149036193Y-99195467D01*
X148274193Y-100211467D02*
X148443526Y-100296133D01*
X148866859Y-100296133D01*
X149036193Y-100211467D01*
X149120859Y-100042133D01*
X149120859Y-99872800D01*
X149036193Y-99703467D01*
X148866859Y-99618800D01*
X148443526Y-99618800D01*
X148274193Y-99534133D01*
X147427526Y-99110800D02*
X147427526Y-100296133D01*
X147427526Y-99280133D02*
X147342859Y-99195467D01*
X147173526Y-99110800D01*
X146919526Y-99110800D01*
X146750192Y-99195467D01*
X146665526Y-99364800D01*
X146665526Y-100296133D01*
X146072859Y-99110800D02*
X145395525Y-99110800D01*
X145818859Y-98518133D02*
X145818859Y-100042133D01*
X145734192Y-100211467D01*
X145564859Y-100296133D01*
X145395525Y-100296133D01*
M02*
