M48
;DRILL file {KiCad 4.0.1-3.201512221401+6198~38~ubuntu15.10.1-stable} date Fri 08 Apr 2016 11:07:23 AM EEST
;FORMAT={-:-/ absolute / metric / decimal}
FMAT,2
METRIC,TZ
T1C0.300
T2C0.600
T3C1.000
T4C1.100
%
G90
G05
M71
T1
X132.445Y-88.951
X133.242Y-96.251
X133.357Y-93.726
X134.747Y-86.106
X134.747Y-93.535
X134.747Y-95.313
X134.985Y-97.869
X135.334Y-98.219
X136.144Y-88.085
X136.578Y-88.085
X136.779Y-90.043
X137.487Y-83.917
X137.922Y-86.106
X137.922Y-94.361
X139.619Y-82.543
X139.643Y-107.569
X139.825Y-83.917
X139.891Y-88.582
X139.891Y-105.28
X139.974Y-111.284
X140.208Y-95.631
X140.645Y-83.84
X140.645Y-89.987
X140.645Y-93.37
X141.291Y-84.37
X141.291Y-90.237
X141.291Y-93.154
X141.692Y-110.617
X141.922Y-95.631
X142.558Y-85.434
X142.558Y-90.233
X142.558Y-93.154
X143.192Y-89.98
X143.192Y-93.408
X143.222Y-109.601
X143.222Y-110.617
X143.256Y-87.376
X143.827Y-99.504
X143.827Y-100.647
X144.463Y-84.899
X144.463Y-101.219
X144.491Y-100.114
X145.034Y-101.751
X145.097Y-86.846
X145.669Y-99.504
X145.669Y-110.617
X145.706Y-102.069
X146.249Y-102.431
X146.431Y-88.011
X146.755Y-99.558
X146.77Y-102.825
X146.966Y-96.584
X147.619Y-96.584
X147.637Y-103.695
X148.272Y-96.584
X148.273Y-104.741
X148.907Y-95.631
X148.907Y-99.568
X148.907Y-103.099
X148.907Y-110.045
X149.542Y-96.584
X149.597Y-105.677
X150.196Y-96.584
X150.571Y-109.269
X150.749Y-80.645
X150.749Y-80.994
X150.812Y-99.568
X150.812Y-103.923
X150.837Y-106.202
X151.447Y-88.582
X152.019Y-109.742
X152.273Y-80.01
X152.718Y-99.568
X152.781Y-80.01
X152.781Y-80.645
X153.352Y-96.71
X153.965Y-110.167
X153.978Y-109.352
X154.006Y-96.71
X154.12Y-79.928
X154.623Y-95.631
X154.623Y-99.568
X154.891Y-79.573
X155.152Y-109.352
X155.385Y-99.568
X155.729Y-109.659
X155.89Y-110.758
X155.956Y-91.186
X156.019Y-99.822
X156.057Y-92.453
X156.21Y-111.379
X156.337Y-79.756
X156.591Y-88.011
X156.848Y-107.041
X156.938Y-110.625
X157.041Y-108.209
X157.099Y-79.756
X157.48Y-94.361
X157.48Y-97.028
X157.48Y-99.568
X157.48Y-88.538
X157.877Y-106.607
X158.75Y-78.359
X158.75Y-112.141
X158.877Y-97.917
X159.131Y-105.156
X159.499Y-100.565
X159.7Y-101.625
X160.129Y-97.692
X160.528Y-102.437
X161.798Y-109.855
X162.25Y-104.323
X163.195Y-88.582
X163.195Y-103.569
X163.385Y-115.57
X164.084Y-112.204
X164.401Y-111.023
X164.465Y-105.537
X165.989Y-109.855
T2
X126.111Y-84.836
X126.111Y-87.376
X126.111Y-89.916
X126.111Y-92.583
X126.111Y-94.996
X126.111Y-97.536
X126.111Y-100.076
X126.111Y-102.616
X126.111Y-105.156
X126.111Y-107.696
X126.111Y-110.236
X126.111Y-112.776
X126.111Y-115.316
X126.112Y-71.248
X126.112Y-72.962
X126.112Y-74.803
X126.112Y-77.216
X126.112Y-79.756
X126.112Y-82.295
X126.313Y-118.868
X128.27Y-71.248
X130.619Y-71.248
X130.81Y-118.868
X132.455Y-116.834
X132.587Y-71.248
X133.35Y-118.868
X133.985Y-114.3
X135.89Y-118.868
X138.43Y-118.868
X140.843Y-79.121
X140.97Y-118.868
X141.251Y-77.813
X141.296Y-75.372
X141.931Y-73.636
X142.113Y-77.851
X142.24Y-75.374
X143.129Y-73.635
X143.383Y-79.121
X143.51Y-118.868
X144.272Y-94.361
X145.294Y-95.625
X145.732Y-78.566
X146.05Y-118.868
X148.59Y-118.868
X148.908Y-79.787
X151.13Y-118.868
X151.257Y-94.361
X152.273Y-95.631
X153.67Y-118.868
X156.21Y-118.868
X158.75Y-118.868
X158.934Y-95.625
X160.274Y-94.361
X161.29Y-118.868
X161.926Y-86.382
X163.576Y-76.2
X163.576Y-77.597
X163.576Y-79.227
X163.83Y-118.868
X165.248Y-71.141
X165.689Y-84.913
X166.37Y-118.868
X167.238Y-71.141
X169.122Y-71.141
X169.291Y-118.868
X173.877Y-74.737
X173.881Y-84.985
X173.884Y-71.141
X173.884Y-73.025
X173.884Y-79.692
X173.884Y-82.296
X173.884Y-87.312
X173.884Y-89.916
X173.884Y-92.456
X173.884Y-94.932
X173.884Y-97.472
X173.884Y-100.076
X173.884Y-102.616
X173.884Y-105.156
X173.884Y-107.759
X173.884Y-110.236
X173.884Y-112.776
X173.884Y-115.316
X173.884Y-117.284
X173.884Y-118.868
X173.89Y-77.218
T3
X128.27Y-74.676
X128.27Y-77.216
X128.27Y-79.756
X128.27Y-82.296
X128.27Y-84.836
X128.27Y-87.376
X128.27Y-89.916
X128.27Y-92.456
X128.27Y-94.996
X128.27Y-97.536
X128.27Y-100.076
X128.27Y-102.616
X128.27Y-105.156
X128.27Y-107.696
X128.27Y-110.236
X128.27Y-112.776
X128.27Y-115.316
X130.81Y-74.676
X130.81Y-77.216
X130.81Y-79.756
X130.81Y-82.296
X130.81Y-84.836
X130.81Y-87.376
X130.81Y-89.916
X130.81Y-92.456
X130.81Y-94.996
X130.81Y-97.536
X130.81Y-100.076
X130.81Y-102.616
X130.81Y-105.156
X130.81Y-107.696
X130.81Y-110.236
X130.81Y-112.776
X130.81Y-115.316
X133.985Y-82.55
X133.985Y-107.95
X136.525Y-82.55
X136.525Y-107.95
X159.385Y-82.55
X159.385Y-107.95
X161.925Y-82.55
X161.925Y-107.95
X169.225Y-74.676
X169.225Y-77.216
X169.225Y-79.756
X169.225Y-82.296
X169.225Y-84.836
X169.225Y-87.376
X169.225Y-89.916
X169.225Y-92.456
X169.225Y-94.996
X169.225Y-97.536
X169.225Y-100.076
X169.225Y-102.616
X169.225Y-105.156
X169.225Y-107.696
X169.225Y-110.236
X169.225Y-112.776
X169.225Y-115.316
X171.765Y-74.676
X171.765Y-77.216
X171.765Y-79.756
X171.765Y-82.296
X171.765Y-84.836
X171.765Y-87.376
X171.765Y-89.916
X171.765Y-92.456
X171.765Y-94.996
X171.765Y-97.536
X171.765Y-100.076
X171.765Y-102.616
X171.765Y-105.156
X171.765Y-107.696
X171.765Y-110.236
X171.765Y-112.776
X171.765Y-115.316
T4
X138.43Y-114.3
X138.43Y-116.84
X140.97Y-114.3
X140.97Y-116.84
X143.51Y-114.3
X143.51Y-116.84
X146.05Y-73.66
X146.05Y-76.2
X146.05Y-114.3
X146.05Y-116.84
X148.59Y-73.66
X148.59Y-76.2
X148.59Y-114.3
X148.59Y-116.84
X151.13Y-73.66
X151.13Y-76.2
X151.13Y-114.3
X151.13Y-116.84
X153.67Y-73.66
X153.67Y-76.2
X153.67Y-114.3
X153.67Y-116.84
X156.21Y-73.66
X156.21Y-76.2
X156.21Y-114.3
X156.21Y-116.84
X158.75Y-73.66
X158.75Y-76.2
X158.75Y-114.3
X158.75Y-116.84
X161.29Y-73.66
X161.29Y-76.2
X161.29Y-114.3
X161.29Y-116.84
X161.925Y-89.916
X161.925Y-92.456
X161.925Y-94.996
X161.925Y-97.536
X161.925Y-100.076
X164.465Y-89.916
X164.465Y-92.456
X164.465Y-94.996
X164.465Y-97.536
X164.465Y-100.076
T0
M30
